  0
SECTION
  2
HEADER
  9
$ACADVER
  1
AC1027
  9
$ACADMAINTVER
 70
   125
  9
$DWGCODEPAGE
  3
ANSI_936
  9
$LASTSAVEDBY
  1
JohnWilliams
  9
$REQUIREDVERSIONS
160
                 0
  9
$INSBASE
 10
0.0
 20
0.0
 30
0.0
  9
$EXTMIN
 10
-1.742319574481852
 20
0.6776944696123059
 30
0.0
  9
$EXTMAX
 10
10.71426559298637
 20
6.344312657835191
 30
0.0
  9
$LIMMIN
 10
0.0
 20
0.0
  9
$LIMMAX
 10
12.0
 20
9.0
  9
$ORTHOMODE
 70
     0
  9
$REGENMODE
 70
     1
  9
$FILLMODE
 70
     1
  9
$QTEXTMODE
 70
     0
  9
$MIRRTEXT
 70
     1
  9
$LTSCALE
 40
1.0
  9
$ATTMODE
 70
     1
  9
$TEXTSIZE
 40
0.2
  9
$TRACEWID
 40
0.05
  9
$TEXTSTYLE
  7
Standard
  9
$CLAYER
  8
0
  9
$CELTYPE
  6
ByLayer
  9
$CECOLOR
 62
   256
  9
$CELTSCALE
 40
1.0
  9
$DISPSILH
 70
     0
  9
$DIMSCALE
 40
1.0
  9
$DIMASZ
 40
0.18
  9
$DIMEXO
 40
0.0625
  9
$DIMDLI
 40
0.38
  9
$DIMRND
 40
0.0
  9
$DIMDLE
 40
0.0
  9
$DIMEXE
 40
0.18
  9
$DIMTP
 40
0.0
  9
$DIMTM
 40
0.0
  9
$DIMTXT
 40
0.18
  9
$DIMCEN
 40
0.09
  9
$DIMTSZ
 40
0.0
  9
$DIMTOL
 70
     0
  9
$DIMLIM
 70
     0
  9
$DIMTIH
 70
     1
  9
$DIMTOH
 70
     1
  9
$DIMSE1
 70
     0
  9
$DIMSE2
 70
     0
  9
$DIMTAD
 70
     0
  9
$DIMZIN
 70
     0
  9
$DIMBLK
  1

  9
$DIMASO
 70
     1
  9
$DIMSHO
 70
     1
  9
$DIMPOST
  1

  9
$DIMAPOST
  1

  9
$DIMALT
 70
     0
  9
$DIMALTD
 70
     2
  9
$DIMALTF
 40
25.4
  9
$DIMLFAC
 40
1.0
  9
$DIMTOFL
 70
     0
  9
$DIMTVP
 40
0.0
  9
$DIMTIX
 70
     0
  9
$DIMSOXD
 70
     0
  9
$DIMSAH
 70
     0
  9
$DIMBLK1
  1

  9
$DIMBLK2
  1

  9
$DIMSTYLE
  2
Standard
  9
$DIMCLRD
 70
     0
  9
$DIMCLRE
 70
     0
  9
$DIMCLRT
 70
     0
  9
$DIMTFAC
 40
1.0
  9
$DIMGAP
 40
0.09
  9
$DIMJUST
 70
     0
  9
$DIMSD1
 70
     0
  9
$DIMSD2
 70
     0
  9
$DIMTOLJ
 70
     1
  9
$DIMTZIN
 70
     0
  9
$DIMALTZ
 70
     0
  9
$DIMALTTZ
 70
     0
  9
$DIMUPT
 70
     0
  9
$DIMDEC
 70
     4
  9
$DIMTDEC
 70
     4
  9
$DIMALTU
 70
     2
  9
$DIMALTTD
 70
     2
  9
$DIMTXSTY
  7
Standard
  9
$DIMAUNIT
 70
     0
  9
$DIMADEC
 70
     0
  9
$DIMALTRND
 40
0.0
  9
$DIMAZIN
 70
     0
  9
$DIMDSEP
 70
    46
  9
$DIMATFIT
 70
     3
  9
$DIMFRAC
 70
     0
  9
$DIMLDRBLK
  1

  9
$DIMLUNIT
 70
     2
  9
$DIMLWD
 70
    -2
  9
$DIMLWE
 70
    -2
  9
$DIMTMOVE
 70
     0
  9
$DIMFXL
 40
1.0
  9
$DIMFXLON
 70
     0
  9
$DIMJOGANG
 40
0.7853981633974483
  9
$DIMTFILL
 70
     0
  9
$DIMTFILLCLR
 70
     0
  9
$DIMARCSYM
 70
     0
  9
$DIMLTYPE
  6

  9
$DIMLTEX1
  6

  9
$DIMLTEX2
  6

  9
$DIMTXTDIRECTION
 70
     0
  9
$LUNITS
 70
     2
  9
$LUPREC
 70
     4
  9
$SKETCHINC
 40
0.1
  9
$FILLETRAD
 40
0.5
  9
$AUNITS
 70
     0
  9
$AUPREC
 70
     0
  9
$MENU
  1
.
  9
$ELEVATION
 40
0.0
  9
$PELEVATION
 40
0.0
  9
$THICKNESS
 40
0.0
  9
$LIMCHECK
 70
     0
  9
$CHAMFERA
 40
0.5
  9
$CHAMFERB
 40
0.5
  9
$CHAMFERC
 40
1.0
  9
$CHAMFERD
 40
0.0
  9
$SKPOLY
 70
     0
  9
$TDCREATE
 40
2458373.860023149
  9
$TDUCREATE
 40
2458373.526690092
  9
$TDUPDATE
 40
2458373.876932871
  9
$TDUUPDATE
 40
2458373.543599537
  9
$TDINDWG
 40
0.0168171412
  9
$TDUSRTIMER
 40
0.0168171412
  9
$USRTIMER
 70
     1
  9
$ANGBASE
 50
0.0
  9
$ANGDIR
 70
     0
  9
$PDMODE
 70
     0
  9
$PDSIZE
 40
0.0
  9
$PLINEWID
 40
0.0
  9
$SPLFRAME
 70
     0
  9
$SPLINETYPE
 70
     6
  9
$SPLINESEGS
 70
     8
  9
$HANDSEED
  5
16D
  9
$SURFTAB1
 70
     6
  9
$SURFTAB2
 70
     6
  9
$SURFTYPE
 70
     6
  9
$SURFU
 70
     6
  9
$SURFV
 70
     6
  9
$UCSBASE
  2

  9
$UCSNAME
  2

  9
$UCSORG
 10
0.0
 20
0.0
 30
0.0
  9
$UCSXDIR
 10
1.0
 20
0.0
 30
0.0
  9
$UCSYDIR
 10
0.0
 20
1.0
 30
0.0
  9
$UCSORTHOREF
  2

  9
$UCSORTHOVIEW
 70
     0
  9
$UCSORGTOP
 10
0.0
 20
0.0
 30
0.0
  9
$UCSORGBOTTOM
 10
0.0
 20
0.0
 30
0.0
  9
$UCSORGLEFT
 10
0.0
 20
0.0
 30
0.0
  9
$UCSORGRIGHT
 10
0.0
 20
0.0
 30
0.0
  9
$UCSORGFRONT
 10
0.0
 20
0.0
 30
0.0
  9
$UCSORGBACK
 10
0.0
 20
0.0
 30
0.0
  9
$PUCSBASE
  2

  9
$PUCSNAME
  2

  9
$PUCSORG
 10
0.0
 20
0.0
 30
0.0
  9
$PUCSXDIR
 10
1.0
 20
0.0
 30
0.0
  9
$PUCSYDIR
 10
0.0
 20
1.0
 30
0.0
  9
$PUCSORTHOREF
  2

  9
$PUCSORTHOVIEW
 70
     0
  9
$PUCSORGTOP
 10
0.0
 20
0.0
 30
0.0
  9
$PUCSORGBOTTOM
 10
0.0
 20
0.0
 30
0.0
  9
$PUCSORGLEFT
 10
0.0
 20
0.0
 30
0.0
  9
$PUCSORGRIGHT
 10
0.0
 20
0.0
 30
0.0
  9
$PUCSORGFRONT
 10
0.0
 20
0.0
 30
0.0
  9
$PUCSORGBACK
 10
0.0
 20
0.0
 30
0.0
  9
$USERI1
 70
     0
  9
$USERI2
 70
     0
  9
$USERI3
 70
     0
  9
$USERI4
 70
     0
  9
$USERI5
 70
     0
  9
$USERR1
 40
0.0
  9
$USERR2
 40
0.0
  9
$USERR3
 40
0.0
  9
$USERR4
 40
0.0
  9
$USERR5
 40
0.0
  9
$WORLDVIEW
 70
     1
  9
$SHADEDGE
 70
     3
  9
$SHADEDIF
 70
    70
  9
$TILEMODE
 70
     1
  9
$MAXACTVP
 70
    64
  9
$PINSBASE
 10
0.0
 20
0.0
 30
0.0
  9
$PLIMCHECK
 70
     0
  9
$PEXTMIN
 10
1.000000000000000E+20
 20
1.000000000000000E+20
 30
1.000000000000000E+20
  9
$PEXTMAX
 10
-1.000000000000000E+20
 20
-1.000000000000000E+20
 30
-1.000000000000000E+20
  9
$PLIMMIN
 10
0.0
 20
0.0
  9
$PLIMMAX
 10
12.0
 20
9.0
  9
$UNITMODE
 70
     0
  9
$VISRETAIN
 70
     1
  9
$PLINEGEN
 70
     0
  9
$PSLTSCALE
 70
     1
  9
$TREEDEPTH
 70
  3020
  9
$CMLSTYLE
  2
Standard
  9
$CMLJUST
 70
     0
  9
$CMLSCALE
 40
1.0
  9
$PROXYGRAPHICS
 70
     1
  9
$MEASUREMENT
 70
     0
  9
$CELWEIGHT
370
    -1
  9
$ENDCAPS
280
     0
  9
$JOINSTYLE
280
     0
  9
$LWDISPLAY
290
     1
  9
$INSUNITS
 70
     1
  9
$HYPERLINKBASE
  1

  9
$STYLESHEET
  1

  9
$XEDIT
290
     1
  9
$CEPSNTYPE
380
     0
  9
$PSTYLEMODE
290
     1
  9
$FINGERPRINTGUID
  2
{D3AA9A5A-FB58-4805-BF11-D7C94F03757D}
  9
$VERSIONGUID
  2
{F4CEA686-3A0C-4744-BB7C-026E765FC92D}
  9
$EXTNAMES
290
     1
  9
$PSVPSCALE
 40
0.0
  9
$OLESTARTUP
290
     0
  9
$SORTENTS
280
   127
  9
$INDEXCTL
280
     0
  9
$HIDETEXT
280
     1
  9
$XCLIPFRAME
280
     2
  9
$HALOGAP
280
     0
  9
$OBSCOLOR
 70
   257
  9
$OBSLTYPE
280
     0
  9
$INTERSECTIONDISPLAY
280
     0
  9
$INTERSECTIONCOLOR
 70
   257
  9
$DIMASSOC
280
     2
  9
$PROJECTNAME
  1

  9
$CAMERADISPLAY
290
     0
  9
$LENSLENGTH
 40
50.0
  9
$CAMERAHEIGHT
 40
0.0
  9
$STEPSPERSEC
 40
2.0
  9
$STEPSIZE
 40
6.0
  9
$3DDWFPREC
 40
2.0
  9
$PSOLWIDTH
 40
0.25
  9
$PSOLHEIGHT
 40
4.0
  9
$LOFTANG1
 40
1.570796326794897
  9
$LOFTANG2
 40
1.570796326794897
  9
$LOFTMAG1
 40
0.0
  9
$LOFTMAG2
 40
0.0
  9
$LOFTPARAM
 70
     7
  9
$LOFTNORMALS
280
     1
  9
$LATITUDE
 40
37.795
  9
$LONGITUDE
 40
-122.394
  9
$NORTHDIRECTION
 40
0.0
  9
$TIMEZONE
 70
 -8000
  9
$LIGHTGLYPHDISPLAY
280
     1
  9
$TILEMODELIGHTSYNCH
280
     1
  9
$CMATERIAL
347
3C
  9
$SOLIDHIST
280
     1
  9
$SHOWHIST
280
     1
  9
$DWFFRAME
280
     2
  9
$DGNFRAME
280
     2
  9
$REALWORLDSCALE
290
     1
  9
$INTERFERECOLOR
 62
   256
  9
$INTERFEREOBJVS
345
33
  9
$INTERFEREVPVS
346
73
  9
$CSHADOW
280
     0
  9
$SHADOWPLANELOCATION
 40
0.0
  0
ENDSEC
  0
SECTION
  2
CLASSES
  0
CLASS
  1
ACDBDICTIONARYWDFLT
  2
AcDbDictionaryWithDefault
  3
ObjectDBX Classes
 90
        0
 91
        1
280
     0
281
     0
  0
CLASS
  1
VISUALSTYLE
  2
AcDbVisualStyle
  3
ObjectDBX Classes
 90
     4095
 91
       26
280
     0
281
     0
  0
CLASS
  1
MATERIAL
  2
AcDbMaterial
  3
ObjectDBX Classes
 90
     1153
 91
        3
280
     0
281
     0
  0
CLASS
  1
SUN
  2
AcDbSun
  3
SCENEOE
 90
     1153
 91
        1
280
     0
281
     0
  0
CLASS
  1
TABLESTYLE
  2
AcDbTableStyle
  3
ObjectDBX Classes
 90
     4095
 91
        1
280
     0
281
     0
  0
CLASS
  1
SCALE
  2
AcDbScale
  3
ObjectDBX Classes
 90
     1153
 91
       17
280
     0
281
     0
  0
CLASS
  1
MLEADERSTYLE
  2
AcDbMLeaderStyle
  3
ACDB_MLEADERSTYLE_CLASS
 90
     4095
 91
        1
280
     0
281
     0
  0
CLASS
  1
ACDBSECTIONVIEWSTYLE
  2
AcDbSectionViewStyle
  3
ObjectDBX Classes
 90
     1025
 91
        1
280
     0
281
     0
  0
CLASS
  1
ACDBDETAILVIEWSTYLE
  2
AcDbDetailViewStyle
  3
ObjectDBX Classes
 90
     1025
 91
        1
280
     0
281
     0
  0
CLASS
  1
DICTIONARYVAR
  2
AcDbDictionaryVar
  3
ObjectDBX Classes
 90
        0
 91
       21
280
     0
281
     0
  0
CLASS
  1
SORTENTSTABLE
  2
AcDbSortentsTable
  3
ObjectDBX Classes
 90
        0
 91
        1
280
     0
281
     0
  0
CLASS
  1
CELLSTYLEMAP
  2
AcDbCellStyleMap
  3
ObjectDBX Classes
 90
     1152
 91
        6
280
     0
281
     0
  0
CLASS
  1
ACARRAYJIGENTITY
  2
AcArrayJigEntity
  3
ACAD_ARRAY
 90
      129
 91
        2
280
     0
281
     1
  0
CLASS
  1
ACDBASSOCNETWORK
  2
AcDbAssocNetwork
  3
ObjectDBX Classes
 90
     1025
 91
        2
280
     0
281
     0
  0
CLASS
  1
ACDBASSOCACTION
  2
AcDbAssocAction
  3
ObjectDBX Classes
 90
     1025
 91
        1
280
     0
281
     0
  0
CLASS
  1
ACDBASSOCARRAYACTIONBODY
  2
AcDbAssocArrayActionBody
  3
ObjectDBX Classes
 90
     1025
 91
        1
280
     0
281
     0
  0
CLASS
  1
ACDBASSOCVERTEXACTIONPARAM
  2
AcDbAssocVertexActionParam
  3
ObjectDBX Classes
 90
     1025
 91
        3
280
     0
281
     0
  0
CLASS
  1
ACDBASSOCDEPENDENCY
  2
AcDbAssocDependency
  3
ObjectDBX Classes
 90
     1025
 91
        3
280
     0
281
     0
  0
CLASS
  1
ACDBASSOCARRAYRECTANGULARPARAMETERS
  2
AcDbAssocArrayRectangularParameters
  3
ObjectDBX Classes
 90
     1025
 91
        0
280
     0
281
     0
  0
ENDSEC
  0
SECTION
  2
TABLES
  0
TABLE
  2
VPORT
  5
8
330
0
100
AcDbSymbolTable
 70
     1
1001
ACAD
1000
DbSaveVer
1071
       51
  0
VPORT
  5
29
330
8
100
AcDbSymbolTableRecord
100
AcDbViewportTableRecord
  2
*Active
 70
     0
 10
0.0
 20
0.0
 11
1.0
 21
1.0
 12
-5.838812065562695
 22
-3.371433256270755
 13
0.0
 23
0.0
 14
0.5
 24
0.5
 15
0.5
 25
0.5
 16
0.0
 26
0.0
 36
1.0
 17
8.555555555555555
 27
3.361111111111111
 37
0.0
 40
12.75258496578696
 41
2.839820359281437
 42
50.0
 43
0.0
 44
0.0
 50
0.0
 51
0.0
 71
     0
 72
   100
 73
     1
 74
     3
 75
     0
 76
     0
 77
     0
 78
     0
281
     0
 65
     1
110
0.0
120
0.0
130
0.0
111
1.0
121
0.0
131
0.0
112
0.0
122
1.0
132
0.0
 79
     0
146
0.0
348
2F
 60
     3
 61
     5
292
     1
282
     1
141
0.0
142
0.0
 63
   250
361
3F
1001
ACAD_NAV_VCDISPLAY
1070
     3
  0
ENDTAB
  0
TABLE
  2
LTYPE
  5
5
330
0
100
AcDbSymbolTable
 70
     2
  0
LTYPE
  5
14
330
5
100
AcDbSymbolTableRecord
100
AcDbLinetypeTableRecord
  2
ByBlock
 70
     0
  3

 72
    65
 73
     0
 40
0.0
  0
LTYPE
  5
15
330
5
100
AcDbSymbolTableRecord
100
AcDbLinetypeTableRecord
  2
ByLayer
 70
     0
  3

 72
    65
 73
     0
 40
0.0
  0
LTYPE
  5
16
330
5
100
AcDbSymbolTableRecord
100
AcDbLinetypeTableRecord
  2
Continuous
 70
     0
  3
Solid line
 72
    65
 73
     0
 40
0.0
  0
ENDTAB
  0
TABLE
  2
LAYER
  5
2
102
{ACAD_XDICTIONARY
360
AE
102
}
330
0
100
AcDbSymbolTable
 70
     2
  0
LAYER
  5
10
330
2
100
AcDbSymbolTableRecord
100
AcDbLayerTableRecord
  2
0
 70
     0
 62
     7
  6
Continuous
370
    -3
390
F
347
3E
348
0
  0
LAYER
  5
40
330
2
100
AcDbSymbolTableRecord
100
AcDbLayerTableRecord
  2
Layer 1
 70
     0
 62
     7
  6
Continuous
370
    -3
390
F
347
3E
348
0
  0
ENDTAB
  0
TABLE
  2
STYLE
  5
3
330
0
100
AcDbSymbolTable
 70
     1
  0
STYLE
  5
11
330
3
100
AcDbSymbolTableRecord
100
AcDbTextStyleTableRecord
  2
Standard
 70
     0
 40
0.0
 41
1.0
 50
0.0
 71
     0
 42
0.2
  3
txt
  4

  0
ENDTAB
  0
TABLE
  2
VIEW
  5
6
330
0
100
AcDbSymbolTable
 70
     7
  0
ENDTAB
  0
TABLE
  2
UCS
  5
7
330
0
100
AcDbSymbolTable
 70
     0
  0
ENDTAB
  0
TABLE
  2
APPID
  5
9
330
0
100
AcDbSymbolTable
 70
     3
  0
APPID
  5
12
330
9
100
AcDbSymbolTableRecord
100
AcDbRegAppTableRecord
  2
ACAD
 70
     0
  0
APPID
  5
9A
330
9
100
AcDbSymbolTableRecord
100
AcDbRegAppTableRecord
  2
ACAD_NAV_VCDISPLAY
 70
     0
  0
APPID
  5
A4
330
9
100
AcDbSymbolTableRecord
100
AcDbRegAppTableRecord
  2
ACAD_EXEMPT_FROM_CAD_STANDARDS
 70
     0
  0
ENDTAB
  0
TABLE
  2
DIMSTYLE
  5
A
330
0
100
AcDbSymbolTable
 70
     2
100
AcDbDimStyleTable
 71
     1
340
27
  0
DIMSTYLE
105
27
330
A
100
AcDbSymbolTableRecord
100
AcDbDimStyleTableRecord
  2
Standard
 70
     0
340
11
  0
ENDTAB
  0
TABLE
  2
BLOCK_RECORD
  5
1
330
0
100
AcDbSymbolTable
 70
     5
  0
BLOCK_RECORD
  5
1F
102
{ACAD_XDICTIONARY
360
A2
102
}
330
1
100
AcDbSymbolTableRecord
100
AcDbBlockTableRecord
  2
*Model_Space
340
22
 70
     0
280
     1
281
     0
  0
BLOCK_RECORD
  5
1B
330
1
100
AcDbSymbolTableRecord
100
AcDbBlockTableRecord
  2
*Paper_Space
340
1E
 70
     0
280
     1
281
     0
  0
BLOCK_RECORD
  5
23
330
1
100
AcDbSymbolTableRecord
100
AcDbBlockTableRecord
  2
*Paper_Space0
340
26
 70
     0
280
     1
281
     0
  0
BLOCK_RECORD
  5
41
330
1
100
AcDbSymbolTableRecord
100
AcDbBlockTableRecord
  2
block 2
340
0
 70
     0
280
     1
281
     0
  0
BLOCK_RECORD
  5
57
330
1
100
AcDbSymbolTableRecord
100
AcDbBlockTableRecord
  2
block 3
340
0
 70
     0
280
     1
281
     0
  0
BLOCK_RECORD
  5
68
330
1
100
AcDbSymbolTableRecord
100
AcDbBlockTableRecord
  2
block 4
340
0
102
{BLKREFS
331
69
102
}
 70
     0
280
     1
281
     0
  0
ENDTAB
  0
ENDSEC
  0
SECTION
  2
BLOCKS
  0
BLOCK
  5
20
330
1F
100
AcDbEntity
  8
0
100
AcDbBlockBegin
  2
*Model_Space
 70
     0
 10
0.0
 20
0.0
 30
0.0
  3
*Model_Space
  1

  0
ENDBLK
  5
21
330
1F
100
AcDbEntity
  8
0
100
AcDbBlockEnd
  0
BLOCK
  5
1C
330
1B
100
AcDbEntity
 67
     1
  8
0
100
AcDbBlockBegin
  2
*Paper_Space
 70
     0
 10
0.0
 20
0.0
 30
0.0
  3
*Paper_Space
  1

  0
ENDBLK
  5
1D
330
1B
100
AcDbEntity
 67
     1
  8
0
100
AcDbBlockEnd
  0
BLOCK
  5
24
330
23
100
AcDbEntity
 67
     1
  8
0
100
AcDbBlockBegin
  2
*Paper_Space0
 70
     0
 10
0.0
 20
0.0
 30
0.0
  3
*Paper_Space0
  1

  0
ENDBLK
  5
25
330
23
100
AcDbEntity
 67
     1
  8
0
100
AcDbBlockEnd
  0
BLOCK
  5
43
330
41
100
AcDbEntity
  8
0
100
AcDbBlockBegin
  2
block 2
 70
     0
 10
0.0
 20
0.0
 30
0.0
  3
block 2
  1

  0
SPLINE
  5
45
330
41
100
AcDbEntity
  8
Layer 1
370
     0
100
AcDbSpline
210
0.0
220
0.0
230
1.0
 70
     9
 71
     3
 72
   215
 73
   211
 74
     0
 42
0.000000001
 43
0.0000000001
 40
0.0
 40
0.0
 40
0.0
 40
0.0
 40
1.0
 40
1.0
 40
1.0
 40
2.0
 40
2.0
 40
2.0
 40
3.0
 40
3.0
 40
3.0
 40
4.0
 40
4.0
 40
4.0
 40
5.0
 40
5.0
 40
5.0
 40
6.0
 40
6.0
 40
6.0
 40
7.0
 40
7.0
 40
7.0
 40
8.0
 40
8.0
 40
8.0
 40
9.0
 40
9.0
 40
9.0
 40
10.0
 40
10.0
 40
10.0
 40
11.0
 40
11.0
 40
11.0
 40
12.0
 40
12.0
 40
12.0
 40
13.0
 40
13.0
 40
13.0
 40
14.0
 40
14.0
 40
14.0
 40
15.0
 40
15.0
 40
15.0
 40
16.0
 40
16.0
 40
16.0
 40
17.0
 40
17.0
 40
17.0
 40
18.0
 40
18.0
 40
18.0
 40
19.0
 40
19.0
 40
19.0
 40
20.0
 40
20.0
 40
20.0
 40
21.0
 40
21.0
 40
21.0
 40
22.0
 40
22.0
 40
22.0
 40
23.0
 40
23.0
 40
23.0
 40
24.0
 40
24.0
 40
24.0
 40
25.0
 40
25.0
 40
25.0
 40
26.0
 40
26.0
 40
26.0
 40
27.0
 40
27.0
 40
27.0
 40
28.0
 40
28.0
 40
28.0
 40
29.0
 40
29.0
 40
29.0
 40
30.0
 40
30.0
 40
30.0
 40
31.0
 40
31.0
 40
31.0
 40
32.0
 40
32.0
 40
32.0
 40
33.0
 40
33.0
 40
33.0
 40
34.0
 40
34.0
 40
34.0
 40
35.0
 40
35.0
 40
35.0
 40
36.0
 40
36.0
 40
36.0
 40
37.0
 40
37.0
 40
37.0
 40
38.0
 40
38.0
 40
38.0
 40
39.0
 40
39.0
 40
39.0
 40
40.0
 40
40.0
 40
40.0
 40
41.0
 40
41.0
 40
41.0
 40
42.0
 40
42.0
 40
42.0
 40
43.0
 40
43.0
 40
43.0
 40
44.0
 40
44.0
 40
44.0
 40
45.0
 40
45.0
 40
45.0
 40
46.0
 40
46.0
 40
46.0
 40
47.0
 40
47.0
 40
47.0
 40
48.0
 40
48.0
 40
48.0
 40
49.0
 40
49.0
 40
49.0
 40
50.0
 40
50.0
 40
50.0
 40
51.0
 40
51.0
 40
51.0
 40
52.0
 40
52.0
 40
52.0
 40
53.0
 40
53.0
 40
53.0
 40
54.0
 40
54.0
 40
54.0
 40
55.0
 40
55.0
 40
55.0
 40
56.0
 40
56.0
 40
56.0
 40
57.0
 40
57.0
 40
57.0
 40
58.0
 40
58.0
 40
58.0
 40
59.0
 40
59.0
 40
59.0
 40
60.0
 40
60.0
 40
60.0
 40
61.0
 40
61.0
 40
61.0
 40
62.0
 40
62.0
 40
62.0
 40
63.0
 40
63.0
 40
63.0
 40
64.0
 40
64.0
 40
64.0
 40
65.0
 40
65.0
 40
65.0
 40
66.0
 40
66.0
 40
66.0
 40
67.0
 40
67.0
 40
67.0
 40
68.0
 40
68.0
 40
68.0
 40
69.0
 40
69.0
 40
69.0
 40
70.0
 40
70.0
 40
70.0
 40
70.0
 10
-0.2792634597480072
 20
5.881353258243734
 30
0.0
 10
0.0221254291408791
 20
5.978853258243714
 30
0.0
 10
0.3379587624742094
 20
6.026214369354823
 30
0.0
 10
0.6536532069186542
 20
6.044408813799287
 30
0.0
 10
1.318375429140877
 20
6.085103258243734
 30
0.0
 10
1.982680984696433
 20
5.978297702688172
 30
0.0
 10
2.625042095807543
 20
5.813714369354834
 30
0.0
 10
3.402264318029766
 20
5.611214369354834
 30
0.0
 10
4.159764318029766
 20
5.319964369354843
 30
0.0
 10
4.856014318029767
 20
4.917186591577066
 30
0.0
 10
5.326569873585324
 20
4.641075480465941
 30
0.0
 10
5.773930984696435
 20
4.309964369354828
 30
0.0
 10
6.121153206918656
 20
3.885242147132607
 30
0.0
 10
6.556014318029762
 20
4.172881036021509
 30
0.0
 10
7.13212542914088
 20
4.228436591577064
 30
0.0
 10
7.614347651363106
 20
4.030797702688156
 30
0.0
 10
8.071430984696437
 20
3.849131036021491
 30
0.0
 10
8.433930984696429
 20
3.448297702688174
 30
0.0
 10
8.567542095807541
 20
2.974964369354843
 30
0.0
 10
8.705042095807545
 20
2.506075480465951
 30
0.0
 10
8.615736540251987
 20
1.977325480465955
 30
0.0
 10
8.328792095807544
 20
1.581353258243729
 30
0.0
 10
8.032819873585316
 20
1.162186591577059
 30
0.0
 10
7.529208762474214
 20
0.8992699249103882
 30
0.0
 10
7.015319873585326
 20
0.9014921471326083
 30
0.0
 10
6.510458762474209
 20
0.8946865915770558
 30
0.0
 10
6.012264318029767
 20
1.14315881379927
 30
0.0
 10
5.711014318029771
 20
1.547881036021509
 30
0.0
 10
5.416569873585318
 20
1.932603258243715
 30
0.0
 10
5.312819873585326
 20
2.452742147132615
 30
0.0
 10
5.433097651363103
 20
2.921631036021506
 30
0.0
 10
5.528236540251983
 20
3.305242147132603
 30
0.0
 10
5.770736540251985
 20
3.649131036021496
 30
0.0
 10
6.098375429140876
 20
3.869686591577066
 30
0.0
 10
5.70990320691865
 20
4.188297702688158
 30
0.0
 10
5.293930984696431
 20
4.473297702688165
 30
0.0
 10
4.853097651363099
 20
4.714547702688175
 30
0.0
 10
4.552680984696431
 20
4.879408813799273
 30
0.0
 10
4.244347651363102
 20
5.030103258243721
 30
0.0
 10
3.930180984696436
 20
5.166769924910391
 30
0.0
 10
3.370180984696433
 20
5.406492147132616
 30
0.0
 10
2.782403206918654
 20
5.581214369354838
 30
0.0
 10
2.182264318029764
 20
5.685381036021504
 30
0.0
 10
1.573792095807543
 20
5.78954770268817
 30
0.0
 10
0.9501809846964366
 20
5.827603258243723
 30
0.0
 10
0.3360143180297667
 20
5.754269924910381
 30
0.0
 10
0.0494865402519875
 20
5.717186591577048
 30
0.0
 10
-0.2385690153035651
 20
5.658714369354835
 30
0.0
 10
-0.5016245708591214
 20
5.535519924910381
 30
0.0
 10
-0.628569015303564
 20
5.473158813799273
 30
0.0
 10
-0.7560690153035682
 20
5.394269924910379
 30
0.0
 10
-0.8330134597480121
 20
5.271769924910383
 30
0.0
 10
-0.8848190153035677
 20
5.191353258243731
 30
0.0
 10
-0.8973190153035627
 20
5.087325480465956
 30
0.0
 10
-0.8642634597480121
 20
4.997325480465936
 30
0.0
 10
-0.8198190153035637
 20
4.874131036021505
 30
0.0
 10
-0.7235690153035659
 20
4.778714369354828
 30
0.0
 10
-0.6232912375257911
 20
4.698575480465933
 30
0.0
 10
-0.4537079041924573
 20
4.566353258243731
 30
0.0
 10
-0.2598190153035678
 20
4.469408813799266
 30
0.0
 10
-0.0631523486368969
 20
4.384131036021496
 30
0.0
 10
0.255458762474215
 20
4.247464369354828
 30
0.0
 10
0.5880976513631014
 20
4.146631036021491
 30
0.0
 10
0.9224032069186591
 20
4.056631036021498
 30
0.0
 10
1.346292095807547
 20
4.294686591577046
 30
0.0
 10
1.805180984696436
 20
4.490658813799276
 30
0.0
 10
2.292264318029765
 20
4.544547702688177
 30
0.0
 10
2.510042095807547
 20
4.565936591577054
 30
0.0
 10
2.738792095807543
 20
4.561631036021505
 30
0.0
 10
2.942819873585323
 20
4.474269924910382
 30
0.0
 10
3.027542095807544
 20
4.43621436935483
 30
0.0
 10
3.111708762474209
 20
4.378436591577055
 30
0.0
 10
3.148514318029767
 20
4.289964369354846
 30
0.0
 10
3.179069873585326
 20
4.218019924910398
 30
0.0
 10
3.15851431802977
 20
4.133992147132604
 30
0.0
 10
3.111153206918654
 20
4.074547702688176
 30
0.0
 10
3.041292095807547
 20
3.985381036021508
 30
0.0
 10
2.937680984696435
 20
3.931075480465956
 30
0.0
 10
2.834208762474208
 20
3.890103258243722
 30
0.0
 10
2.656847651363099
 20
3.82301992491039
 30
0.0
 10
2.467403206918655
 20
3.794825480465938
 30
0.0
 10
2.279069873585322
 20
3.781214369354832
 30
0.0
 10
1.861153206918654
 20
3.753992147132621
 30
0.0
 10
1.442403206918654
 20
3.800936591577055
 30
0.0
 10
1.031153206918657
 20
3.873158813799287
 30
0.0
 10
0.8336532069186546
 20
3.749269924910398
 30
0.0
 10
0.6401809846964347
 20
3.612464369354837
 30
0.0
 10
0.4860143180297693
 20
3.43579770268818
 30
0.0
 10
0.3993476513630993
 20
3.333714369354841
 30
0.0
 10
0.3189309846964332
 20
3.212603258243714
 30
0.0
 10
0.3153198735853253
 20
3.074269924910393
 30
0.0
 10
0.3119865402519887
 20
2.9752421471326
 30
0.0
 10
0.3718476513630991
 20
2.881908813799276
 30
0.0
 10
0.4576809846964365
 20
2.835242147132602
 30
0.0
 10
0.5897643180297666
 20
2.763019924910395
 30
0.0
 10
0.7435143180297688
 20
2.747047702688178
 30
0.0
 10
0.8912920958075448
 20
2.73885325824373
 30
0.0
 10
1.200180984696437
 20
2.727881036021497
 30
0.0
 10
1.509208762474214
 20
2.76774214713262
 30
0.0
 10
1.810319873585323
 20
2.83468659157706
 30
0.0
 10
1.917542095807543
 20
2.861214369354836
 30
0.0
 10
2.027264318029765
 20
2.885381036021498
 30
0.0
 10
2.126708762474208
 20
2.934408813799286
 30
0.0
 10
2.293792095807544
 20
3.177881036021491
 30
0.0
 10
2.488792095807543
 20
3.413019924910384
 30
0.0
 10
2.746847651363099
 20
3.564131036021509
 30
0.0
 10
2.854069873585323
 20
3.625381036021508
 30
0.0
 10
2.974347651363101
 20
3.674547702688162
 30
0.0
 10
3.099903206918654
 20
3.670797702688156
 30
0.0
 10
3.165458762474214
 20
3.668436591577068
 30
0.0
 10
3.238653206918658
 20
3.643575480465945
 30
0.0
 10
3.270875429140877
 20
3.581908813799272
 30
0.0
 10
3.304486540251988
 20
3.515658813799291
 30
0.0
 10
3.2793476513631
 20
3.438019924910399
 30
0.0
 10
3.243236540251991
 20
3.378297702688163
 30
0.0
 10
3.172542095807544
 20
3.264547702688156
 30
0.0
 10
3.063375429140876
 20
3.181492147132606
 30
0.0
 10
2.951986540251986
 20
3.110381036021508
 30
0.0
 10
2.736292095807546
 20
2.976908813799278
 30
0.0
 10
2.496430984696436
 20
2.887464369354828
 30
0.0
 10
2.253792095807543
 20
2.816631036021489
 30
0.0
 10
2.239903206918654
 20
2.81079770268818
 30
0.0
 10
2.219764318029768
 20
2.810658813799287
 30
0.0
 10
2.213653206918655
 20
2.79399214713261
 30
0.0
 10
2.124347651363103
 20
2.628019924910379
 30
0.0
 10
2.040042095807544
 20
2.455519924910377
 30
0.0
 10
2.003514318029765
 20
2.269269924910379
 30
0.0
 10
1.983375429140879
 20
2.162464369354843
 30
0.0
 10
1.983097651363102
 20
2.036769924910383
 30
0.0
 10
2.060042095807545
 20
1.951075480465938
 30
0.0
 10
2.143236540251987
 20
1.860658813799267
 30
0.0
 10
2.275180984696431
 20
1.844964369354834
 30
0.0
 10
2.391430984696437
 20
1.84579770268816
 30
0.0
 10
2.692958762474214
 20
1.853714369354823
 30
0.0
 10
2.983792095807542
 20
1.954825480465944
 30
0.0
 10
3.251430984696437
 20
2.088297702688174
 30
0.0
 10
3.448653206918656
 20
2.188297702688159
 30
0.0
 10
3.638097651363106
 20
2.305381036021496
 30
0.0
 10
3.811569873585325
 20
2.442742147132624
 30
0.0
 10
3.813930984696437
 20
2.504547702688165
 30
0.0
 10
3.821014318029761
 20
2.566214369354838
 30
0.0
 10
3.819347651363096
 20
2.628158813799271
 30
0.0
 10
3.790042095807545
 20
2.572881036021498
 30
0.0
 10
3.757403206918651
 20
2.519547702688164
 30
0.0
 10
3.725736540251987
 20
2.465519924910394
 30
0.0
 10
3.614347651363106
 20
2.578436591577049
 30
0.0
 10
3.502542095807548
 20
2.690658813799271
 30
0.0
 10
3.391569873585321
 20
2.803992147132602
 30
0.0
 10
3.84143098469643
 20
2.948297702688174
 30
0.0
 10
4.290875429140883
 20
3.093436591577048
 30
0.0
 10
4.740458762474215
 20
3.238297702688163
 30
0.0
 10
4.593514318029771
 20
2.868853258243714
 30
0.0
 10
4.447680984696438
 20
2.498714369354829
 30
0.0
 10
4.300180984696428
 20
2.129408813799273
 30
0.0
 10
4.148514318029773
 20
2.2141310360215
 30
0.0
 10
3.995736540251995
 20
2.297186591577049
 30
0.0
 10
3.842819873585325
 20
2.379686591577056
 30
0.0
 10
3.679486540251988
 20
2.223992147132624
 30
0.0
 10
3.489486540251991
 20
2.098575480465948
 30
0.0
 10
3.290736540251991
 20
1.993019924910388
 30
0.0
 10
3.077264318029764
 20
1.88107548046595
 30
0.0
 10
2.851292095807542
 20
1.790936591577064
 30
0.0
 10
2.61601431802977
 20
1.737881036021513
 30
0.0
 10
2.447403206918654
 20
1.701492147132612
 30
0.0
 10
2.269903206918659
 20
1.679408813799278
 30
0.0
 10
2.100180984696433
 20
1.720519924910401
 30
0.0
 10
1.999764318029765
 20
1.744825480465958
 30
0.0
 10
1.902542095807543
 20
1.804269924910386
 30
0.0
 10
1.855597651363104
 20
1.899269924910388
 30
0.0
 10
1.800458762474212
 20
2.006631036021492
 30
0.0
 10
1.807680984696434
 20
2.13329770268817
 30
0.0
 10
1.830875429140879
 20
2.248158813799288
 30
0.0
 10
1.869903206918655
 20
2.428436591577059
 30
0.0
 10
1.948375429140879
 20
2.597325480465946
 30
0.0
 10
2.035875429140876
 20
2.758714369354846
 30
0.0
 10
1.744903206918655
 20
2.67343659157705
 30
0.0
 10
1.443792095807546
 20
2.622881036021504
 30
0.0
 10
1.141014318029767
 20
2.607186591577046
 30
0.0
 10
0.9267087624742142
 20
2.598019924910381
 30
0.0
 10
0.7078198735853221
 20
2.604408813799283
 30
0.0
 10
0.5007365402519908
 20
2.665797702688173
 30
0.0
 10
0.3697643180297644
 20
2.704131036021509
 30
0.0
 10
0.2465698735853215
 20
2.77774214713261
 30
0.0
 10
0.1633754291408801
 20
2.887464369354828
 30
0.0
 10
0.1079587624742102
 20
2.959547702688167
 30
0.0
 10
0.0790698735853223
 20
3.052186591577057
 30
0.0
 10
0.0883754291408789
 20
3.143019924910377
 30
0.0
 10
0.098514318029768
 20
3.257325480465953
 30
0.0
 10
0.1547643180297705
 20
3.361214369354836
 30
0.0
 10
0.2197643180297683
 20
3.453297702688157
 30
0.0
 10
0.3574032069186551
 20
3.643575480465945
 30
0.0
 10
0.5415698735853249
 20
3.792325480465933
 30
0.0
 10
0.7249032069186557
 20
3.936075480465937
 30
0.0
 10
0.4880976513631038
 20
3.984825480465941
 30
0.0
 10
0.2589309846964372
 20
4.063297702688158
 30
0.0
 10
0.0324032069186539
 20
4.146769924910383
 30
0.0
 10
-0.2432912375257893
 20
4.241353258243736
 30
0.0
 10
-0.5170412375257899
 20
4.354131036021498
 30
0.0
 10
-0.7541245708591191
 20
4.526492147132608
 30
0.0
 10
-0.8894023486369
 20
4.626353258243726
 30
0.0
 10
-1.015374570859117
 20
4.749131036021505
 30
0.0
 10
-1.08287457085912
 20
4.905797702688156
 30
0.0
 10
-1.129124570859119
 20
5.012325480465934
 30
0.0
 10
-1.138430126414676
 20
5.135103258243714
 30
0.0
 10
-1.103291237525789
 20
5.246214369354825
 30
0.0
 10
-1.061207904192454
 20
5.382325480465952
 30
0.0
 10
-0.9655134597480115
 20
5.495103258243715
 30
0.0
 10
-0.8571801264146756
 20
5.584408813799276
 30
0.0
 10
-0.6877356819702337
 20
5.722186591577054
 30
0.0
 10
-0.4855134597480122
 20
5.813297702688158
 30
0.0
 10
-0.2792634597480072
 20
5.881353258243734
 30
0.0
  0
ENDBLK
  5
44
330
41
100
AcDbEntity
  8
0
100
AcDbBlockEnd
  0
BLOCK
  5
59
330
57
100
AcDbEntity
  8
0
100
AcDbBlockBegin
  2
block 3
 70
     0
 10
0.0
 20
0.0
 30
0.0
  3
block 3
  1

  0
SPLINE
  5
5B
330
57
100
AcDbEntity
  8
Layer 1
370
     0
100
AcDbSpline
210
0.0
220
0.0
230
1.0
 70
     9
 71
     3
 72
    41
 73
    37
 74
     0
 42
0.000000001
 43
0.0000000001
 40
0.0
 40
0.0
 40
0.0
 40
0.0
 40
1.0
 40
1.0
 40
1.0
 40
2.0
 40
2.0
 40
2.0
 40
3.0
 40
3.0
 40
3.0
 40
4.0
 40
4.0
 40
4.0
 40
5.0
 40
5.0
 40
5.0
 40
6.0
 40
6.0
 40
6.0
 40
7.0
 40
7.0
 40
7.0
 40
8.0
 40
8.0
 40
8.0
 40
9.0
 40
9.0
 40
9.0
 40
10.0
 40
10.0
 40
10.0
 40
11.0
 40
11.0
 40
11.0
 40
12.0
 40
12.0
 40
12.0
 40
12.0
 10
12.27379209580754
 20
3.835519924910386
 30
0.0
 10
12.33379209580754
 20
3.842742147132613
 30
0.0
 10
12.39406987358532
 20
3.849408813799275
 30
0.0
 10
12.45406987358533
 20
3.857186591577046
 30
0.0
 10
12.46920876247421
 20
3.812047702688157
 30
0.0
 10
12.48323654025199
 20
3.766353258243726
 30
0.0
 10
12.49643098469643
 20
3.720519924910401
 30
0.0
 10
12.66504209580754
 20
3.720797702688161
 30
0.0
 10
12.83351431802977
 20
3.720519924910401
 30
0.0
 10
13.00212542914088
 20
3.720658813799268
 30
0.0
 10
13.00281987358532
 20
3.628992147132621
 30
0.0
 10
13.0018476513631
 20
3.537186591577058
 30
0.0
 10
13.00268098469644
 20
3.445381036021494
 30
0.0
 10
12.94726431802976
 20
3.444408813799276
 30
0.0
 10
12.8918476513631
 20
3.444964369354845
 30
0.0
 10
12.83643098469643
 20
3.444686591577061
 30
0.0
 10
12.83601431802977
 20
3.487325480465945
 30
0.0
 10
12.83601431802977
 20
3.529964369354829
 30
0.0
 10
12.83615320691865
 20
3.572603258243714
 30
0.0
 10
12.5405976513631
 20
3.572742147132607
 30
0.0
 10
12.24504209580755
 20
3.572742147132607
 30
0.0
 10
11.94948654025198
 20
3.572603258243714
 30
0.0
 10
11.94948654025198
 20
3.529964369354829
 30
0.0
 10
11.9493476513631
 20
3.487464369354837
 30
0.0
 10
11.94948654025198
 20
3.444825480465953
 30
0.0
 10
11.89406987358532
 20
3.444825480465953
 30
0.0
 10
11.83865320691866
 20
3.444964369354845
 30
0.0
 10
11.78323654025199
 20
3.444825480465953
 30
0.0
 10
11.78295876247421
 20
3.536769924910383
 30
0.0
 10
11.7830976513631
 20
3.628714369354838
 30
0.0
 10
11.78323654025199
 20
3.720658813799268
 30
0.0
 10
11.95851431802977
 20
3.720658813799268
 30
0.0
 10
12.13379209580754
 20
3.720658813799268
 30
0.0
 10
12.30906987358532
 20
3.720658813799268
 30
0.0
 10
12.29781987358533
 20
3.759131036021497
 30
0.0
 10
12.28615320691866
 20
3.797464369354834
 30
0.0
 10
12.27379209580754
 20
3.835519924910386
 30
0.0
  0
SPLINE
  5
5C
330
57
100
AcDbEntity
  8
Layer 1
370
     0
100
AcDbSpline
210
0.0
220
0.0
230
1.0
 70
     9
 71
     3
 72
   125
 73
   121
 74
     0
 42
0.000000001
 43
0.0000000001
 40
0.0
 40
0.0
 40
0.0
 40
0.0
 40
1.0
 40
1.0
 40
1.0
 40
2.0
 40
2.0
 40
2.0
 40
3.0
 40
3.0
 40
3.0
 40
4.0
 40
4.0
 40
4.0
 40
5.0
 40
5.0
 40
5.0
 40
6.0
 40
6.0
 40
6.0
 40
7.0
 40
7.0
 40
7.0
 40
8.0
 40
8.0
 40
8.0
 40
9.0
 40
9.0
 40
9.0
 40
10.0
 40
10.0
 40
10.0
 40
11.0
 40
11.0
 40
11.0
 40
12.0
 40
12.0
 40
12.0
 40
13.0
 40
13.0
 40
13.0
 40
14.0
 40
14.0
 40
14.0
 40
15.0
 40
15.0
 40
15.0
 40
16.0
 40
16.0
 40
16.0
 40
17.0
 40
17.0
 40
17.0
 40
18.0
 40
18.0
 40
18.0
 40
19.0
 40
19.0
 40
19.0
 40
20.0
 40
20.0
 40
20.0
 40
21.0
 40
21.0
 40
21.0
 40
22.0
 40
22.0
 40
22.0
 40
23.0
 40
23.0
 40
23.0
 40
24.0
 40
24.0
 40
24.0
 40
25.0
 40
25.0
 40
25.0
 40
26.0
 40
26.0
 40
26.0
 40
27.0
 40
27.0
 40
27.0
 40
28.0
 40
28.0
 40
28.0
 40
29.0
 40
29.0
 40
29.0
 40
30.0
 40
30.0
 40
30.0
 40
31.0
 40
31.0
 40
31.0
 40
32.0
 40
32.0
 40
32.0
 40
33.0
 40
33.0
 40
33.0
 40
34.0
 40
34.0
 40
34.0
 40
35.0
 40
35.0
 40
35.0
 40
36.0
 40
36.0
 40
36.0
 40
37.0
 40
37.0
 40
37.0
 40
38.0
 40
38.0
 40
38.0
 40
39.0
 40
39.0
 40
39.0
 40
40.0
 40
40.0
 40
40.0
 40
40.0
 10
14.73226431802977
 20
3.848714369354841
 30
0.0
 10
14.78448654025199
 20
3.848575480465948
 30
0.0
 10
14.83670876247422
 20
3.848714369354841
 30
0.0
 10
14.88906987358532
 20
3.848714369354841
 30
0.0
 10
14.88920876247422
 20
3.738575480465947
 30
0.0
 10
14.88906987358532
 20
3.628436591577055
 30
0.0
 10
14.88920876247422
 20
3.518297702688162
 30
0.0
 10
14.93031987358533
 20
3.518297702688162
 30
0.0
 10
14.97156987358532
 20
3.518297702688162
 30
0.0
 10
15.01295876247421
 20
3.518714369354837
 30
0.0
 10
15.01323654025198
 20
3.464547702688176
 30
0.0
 10
15.01323654025198
 20
3.410381036021489
 30
0.0
 10
15.01295876247421
 20
3.356075480465936
 30
0.0
 10
14.97156987358532
 20
3.356214369354826
 30
0.0
 10
14.93031987358533
 20
3.356214369354826
 30
0.0
 10
14.88920876247422
 20
3.356214369354826
 30
0.0
 10
14.88920876247422
 20
3.20788103602149
 30
0.0
 10
14.88893098469643
 20
3.059547702688178
 30
0.0
 10
14.8893476513631
 20
2.911075480465948
 30
0.0
 10
14.91504209580754
 20
2.917325480465933
 30
0.0
 10
14.94254209580754
 20
2.919408813799287
 30
0.0
 10
14.96684765136309
 20
2.930936591577063
 30
0.0
 10
15.06670876247421
 20
3.008297702688171
 30
0.0
 10
15.13754209580755
 20
3.118992147132606
 30
0.0
 10
15.17670876247421
 20
3.238575480465947
 30
0.0
 10
15.13670876247421
 20
3.238714369354838
 30
0.0
 10
15.0968476513631
 20
3.238714369354838
 30
0.0
 10
15.05698654025199
 20
3.238575480465947
 30
0.0
 10
15.0568476513631
 20
3.286214369354841
 30
0.0
 10
15.05698654025199
 20
3.333853258243733
 30
0.0
 10
15.05698654025199
 20
3.381353258243734
 30
0.0
 10
15.19226431802977
 20
3.468992147132615
 30
0.0
 10
15.32795876247421
 20
3.555797702688171
 30
0.0
 10
15.46240320691865
 20
3.644547702688163
 30
0.0
 10
15.3268476513631
 20
3.64718659157706
 30
0.0
 10
15.19129209580755
 20
3.644964369354838
 30
0.0
 10
15.05573654025199
 20
3.645797702688165
 30
0.0
 10
15.0555976513631
 20
3.692464369354841
 30
0.0
 10
15.0555976513631
 20
3.739269924910382
 30
0.0
 10
15.05573654025199
 20
3.785936591577056
 30
0.0
 10
15.28254209580754
 20
3.785936591577056
 30
0.0
 10
15.5093476513631
 20
3.785797702688165
 30
0.0
 10
15.73615320691865
 20
3.785936591577056
 30
0.0
 10
15.73587542914088
 20
3.740103258243733
 30
0.0
 10
15.73601431802977
 20
3.694131036021492
 30
0.0
 10
15.73601431802977
 20
3.648158813799278
 30
0.0
 10
15.60198654025199
 20
3.558714369354825
 30
0.0
 10
15.46865320691866
 20
3.468297702688157
 30
0.0
 10
15.33490320691865
 20
3.378714369354838
 30
0.0
 10
15.49726431802977
 20
3.378714369354838
 30
0.0
 10
15.65976431802977
 20
3.378992147132621
 30
0.0
 10
15.82226431802976
 20
3.378575480465946
 30
0.0
 10
15.82115320691865
 20
3.188575480465943
 30
0.0
 10
15.816986540252
 20
2.998575480465937
 30
0.0
 10
15.80490320691865
 20
2.80899214713261
 30
0.0
 10
15.80143098469643
 20
2.732881036021504
 30
0.0
 10
15.76531987358533
 20
2.648853258243712
 30
0.0
 10
15.68837542914088
 20
2.622047702688178
 30
0.0
 10
15.614486540252
 20
2.597325480465946
 30
0.0
 10
15.53448654025199
 20
2.605242147132608
 30
0.0
 10
15.45795876247421
 20
2.599408813799275
 30
0.0
 10
15.45031987358532
 20
2.656353258243723
 30
0.0
 10
15.43962542914088
 20
2.712881036021497
 30
0.0
 10
15.42726431802977
 20
2.768992147132621
 30
0.0
 10
15.48240320691866
 20
2.767881036021511
 30
0.0
 10
15.53962542914088
 20
2.758019924910386
 30
0.0
 10
15.59365320691866
 20
2.774686591577063
 30
0.0
 10
15.63018098469643
 20
2.786214369354841
 30
0.0
 10
15.65365320691866
 20
2.822464369354823
 30
0.0
 10
15.65629209580754
 20
2.85968659157705
 30
0.0
 10
15.66795876247421
 20
2.985658813799267
 30
0.0
 10
15.67101431802977
 20
3.112186591577053
 30
0.0
 10
15.6743476513631
 20
3.238575480465947
 30
0.0
 10
15.64656987358532
 20
3.238575480465947
 30
0.0
 10
15.61906987358533
 20
3.238575480465947
 30
0.0
 10
15.59170876247421
 20
3.238714369354838
 30
0.0
 10
15.54962542914089
 20
2.992325480465953
 30
0.0
 10
15.43587542914088
 20
2.753297702688163
 30
0.0
 10
15.24337542914088
 20
2.589547702688175
 30
0.0
 10
15.19656987358533
 20
2.625242147132615
 30
0.0
 10
15.14879209580754
 20
2.659547702688163
 30
0.0
 10
15.09962542914088
 20
2.691631036021489
 30
0.0
 10
15.27462542914088
 20
2.825936591577046
 30
0.0
 10
15.40629209580754
 20
3.019825480465947
 30
0.0
 10
15.44670876247421
 20
3.238575480465947
 30
0.0
 10
15.40587542914088
 20
3.238714369354838
 30
0.0
 10
15.36504209580754
 20
3.238714369354838
 30
0.0
 10
15.32448654025198
 20
3.238436591577055
 30
0.0
 10
15.28281987358532
 20
3.081769924910379
 30
0.0
 10
15.20601431802976
 20
2.93176992491039
 30
0.0
 10
15.08698654025199
 20
2.819825480465953
 30
0.0
 10
15.06393098469644
 20
2.839547702688176
 30
0.0
 10
15.04073654025199
 20
2.858992147132615
 30
0.0
 10
15.01754209580755
 20
2.878019924910379
 30
0.0
 10
15.01643098469644
 20
2.842603258243721
 30
0.0
 10
15.01629209580754
 20
2.806908813799281
 30
0.0
 10
15.01670876247421
 20
2.771353258243733
 30
0.0
 10
14.88143098469643
 20
2.743575480465956
 30
0.0
 10
14.74629209580755
 20
2.714686591577068
 30
0.0
 10
14.61170876247421
 20
2.683297702688175
 30
0.0
 10
14.60129209580754
 20
2.739964369354841
 30
0.0
 10
14.59115320691866
 20
2.796631036021506
 30
0.0
 10
14.5805976513631
 20
2.85315881379928
 30
0.0
 10
14.63115320691865
 20
2.862047702688162
 30
0.0
 10
14.68170876247421
 20
2.870936591577068
 30
0.0
 10
14.73226431802977
 20
2.880519924910383
 30
0.0
 10
14.73184765136309
 20
3.039131036021494
 30
0.0
 10
14.73240320691866
 20
3.197742147132607
 30
0.0
 10
14.73198654025198
 20
3.356353258243718
 30
0.0
 10
14.68531987358532
 20
3.356214369354826
 30
0.0
 10
14.63879209580755
 20
3.356214369354826
 30
0.0
 10
14.59240320691866
 20
3.356214369354826
 30
0.0
 10
14.59240320691866
 20
3.41010325824373
 30
0.0
 10
14.59254209580754
 20
3.463992147132607
 30
0.0
 10
14.59226431802977
 20
3.517881036021511
 30
0.0
 10
14.63879209580755
 20
3.518436591577053
 30
0.0
 10
14.68545876247421
 20
3.518436591577053
 30
0.0
 10
14.73226431802977
 20
3.518297702688162
 30
0.0
 10
14.73184765136309
 20
3.628436591577055
 30
0.0
 10
14.73212542914088
 20
3.738575480465947
 30
0.0
 10
14.73226431802977
 20
3.848714369354841
 30
0.0
  0
SPLINE
  5
5D
330
57
100
AcDbEntity
  8
Layer 1
370
     0
100
AcDbSpline
210
0.0
220
0.0
230
1.0
 70
     9
 71
     3
 72
    62
 73
    58
 74
     0
 42
0.000000001
 43
0.0000000001
 40
0.0
 40
0.0
 40
0.0
 40
0.0
 40
1.0
 40
1.0
 40
1.0
 40
2.0
 40
2.0
 40
2.0
 40
3.0
 40
3.0
 40
3.0
 40
4.0
 40
4.0
 40
4.0
 40
5.0
 40
5.0
 40
5.0
 40
6.0
 40
6.0
 40
6.0
 40
7.0
 40
7.0
 40
7.0
 40
8.0
 40
8.0
 40
8.0
 40
9.0
 40
9.0
 40
9.0
 40
10.0
 40
10.0
 40
10.0
 40
11.0
 40
11.0
 40
11.0
 40
12.0
 40
12.0
 40
12.0
 40
13.0
 40
13.0
 40
13.0
 40
14.0
 40
14.0
 40
14.0
 40
15.0
 40
15.0
 40
15.0
 40
16.0
 40
16.0
 40
16.0
 40
17.0
 40
17.0
 40
17.0
 40
18.0
 40
18.0
 40
18.0
 40
19.0
 40
19.0
 40
19.0
 40
19.0
 10
10.42212542914088
 20
3.778019924910393
 30
0.0
 10
10.79254209580755
 20
3.777881036021502
 30
0.0
 10
11.16295876247422
 20
3.778297702688178
 30
0.0
 10
11.53337542914088
 20
3.777881036021502
 30
0.0
 10
11.5330976513631
 20
3.724269924910383
 30
0.0
 10
11.5330976513631
 20
3.670797702688156
 30
0.0
 10
11.53337542914088
 20
3.617186591577061
 30
0.0
 10
11.37531987358533
 20
3.616908813799278
 30
0.0
 10
11.21740320691866
 20
3.617325480465953
 30
0.0
 10
11.05948654025198
 20
3.61704770268817
 30
0.0
 10
11.05504209580754
 20
3.531353258243723
 30
0.0
 10
11.05004209580755
 20
3.445797702688171
 30
0.0
 10
11.04420876247421
 20
3.360242147132616
 30
0.0
 10
11.2293476513631
 20
3.360797702688159
 30
0.0
 10
11.4143476513631
 20
3.360381036021508
 30
0.0
 10
11.59948654025199
 20
3.360381036021508
 30
0.0
 10
11.59990320691866
 20
3.305936591577063
 30
0.0
 10
11.59962542914088
 20
3.251353258243725
 30
0.0
 10
11.59990320691866
 20
3.19690881379928
 30
0.0
 10
11.4318476513631
 20
3.197186591577064
 30
0.0
 10
11.26379209580754
 20
3.197047702688172
 30
0.0
 10
11.09587542914088
 20
3.19690881379928
 30
0.0
 10
11.18365320691866
 20
2.977325480465955
 30
0.0
 10
11.37865320691866
 20
2.811769924910398
 30
0.0
 10
11.60462542914087
 20
2.747047702688178
 30
0.0
 10
11.55670876247421
 20
2.691492147132621
 30
0.0
 10
11.51073654025199
 20
2.634269924910389
 30
0.0
 10
11.46601431802977
 20
2.576075480465938
 30
0.0
 10
11.23601431802976
 20
2.67010325824372
 30
0.0
 10
11.058236540252
 20
2.866353258243734
 30
0.0
 10
10.96670876247421
 20
3.094964369354833
 30
0.0
 10
10.88448654025199
 20
2.864269924910382
 30
0.0
 10
10.68768098469643
 20
2.697186591577064
 30
0.0
 10
10.47795876247421
 20
2.583297702688165
 30
0.0
 10
10.43462542914088
 20
2.636353258243716
 30
0.0
 10
10.38865320691866
 20
2.687186591577048
 30
0.0
 10
10.34198654025199
 20
2.737186591577054
 30
0.0
 10
10.54462542914088
 20
2.832186591577055
 30
0.0
 10
10.76406987358532
 20
2.966769924910396
 30
0.0
 10
10.82670876247422
 20
3.196769924910388
 30
0.0
 10
10.66795876247421
 20
3.197464369354823
 30
0.0
 10
10.50920876247421
 20
3.197047702688172
 30
0.0
 10
10.3505976513631
 20
3.19690881379928
 30
0.0
 10
10.35031987358532
 20
3.251492147132618
 30
0.0
 10
10.35045876247422
 20
3.305936591577063
 30
0.0
 10
10.35045876247422
 20
3.360381036021508
 30
0.0
 10
10.52143098469643
 20
3.360797702688159
 30
0.0
 10
10.69240320691866
 20
3.360381036021508
 30
0.0
 10
10.86323654025199
 20
3.360519924910401
 30
0.0
 10
10.87531987358533
 20
3.445519924910386
 30
0.0
 10
10.88240320691865
 20
3.531214369354832
 30
0.0
 10
10.88531987358532
 20
3.61704770268817
 30
0.0
 10
10.73087542914087
 20
3.617186591577061
 30
0.0
 10
10.57656987358532
 20
3.61704770268817
 30
0.0
 10
10.42226431802977
 20
3.617186591577061
 30
0.0
 10
10.42198654025199
 20
3.670797702688156
 30
0.0
 10
10.42198654025199
 20
3.724408813799275
 30
0.0
 10
10.42212542914088
 20
3.778019924910393
 30
0.0
  0
SPLINE
  5
5E
330
57
100
AcDbEntity
  8
Layer 1
370
     0
100
AcDbSpline
210
0.0
220
0.0
230
1.0
 70
     9
 71
     3
 72
    41
 73
    37
 74
     0
 42
0.000000001
 43
0.0000000001
 40
0.0
 40
0.0
 40
0.0
 40
0.0
 40
1.0
 40
1.0
 40
1.0
 40
2.0
 40
2.0
 40
2.0
 40
3.0
 40
3.0
 40
3.0
 40
4.0
 40
4.0
 40
4.0
 40
5.0
 40
5.0
 40
5.0
 40
6.0
 40
6.0
 40
6.0
 40
7.0
 40
7.0
 40
7.0
 40
8.0
 40
8.0
 40
8.0
 40
9.0
 40
9.0
 40
9.0
 40
10.0
 40
10.0
 40
10.0
 40
11.0
 40
11.0
 40
11.0
 40
12.0
 40
12.0
 40
12.0
 40
12.0
 10
13.25115320691865
 20
3.754825480465948
 30
0.0
 10
13.62323654025199
 20
3.754825480465948
 30
0.0
 10
13.99531987358532
 20
3.754686591577056
 30
0.0
 10
14.36754209580754
 20
3.754964369354841
 30
0.0
 10
14.36726431802976
 20
3.698575480465933
 30
0.0
 10
14.36726431802976
 20
3.642186591577051
 30
0.0
 10
14.36740320691865
 20
3.58579770268817
 30
0.0
 10
14.21240320691865
 20
3.585658813799278
 30
0.0
 10
14.05754209580755
 20
3.585936591577061
 30
0.0
 10
13.90254209580755
 20
3.585519924910386
 30
0.0
 10
13.90295876247421
 20
3.330797702688162
 30
0.0
 10
13.90268098469644
 20
3.076075480465938
 30
0.0
 10
13.90281987358532
 20
2.821353258243712
 30
0.0
 10
14.07990320691865
 20
2.821631036021497
 30
0.0
 10
14.25698654025199
 20
2.821353258243712
 30
0.0
 10
14.43406987358532
 20
2.821492147132604
 30
0.0
 10
14.43379209580755
 20
2.765242147132615
 30
0.0
 10
14.43379209580755
 20
2.7089921471326
 30
0.0
 10
14.43393098469644
 20
2.652603258243718
 30
0.0
 10
14.01615320691865
 20
2.652881036021502
 30
0.0
 10
13.59837542914086
 20
2.652742147132609
 30
0.0
 10
13.1805976513631
 20
2.652742147132609
 30
0.0
 10
13.18045876247421
 20
2.7089921471326
 30
0.0
 10
13.18045876247421
 20
2.765242147132615
 30
0.0
 10
13.18045876247421
 20
2.821353258243712
 30
0.0
 10
13.35504209580755
 20
2.821214369354846
 30
0.0
 10
13.52976431802977
 20
2.822047702688172
 30
0.0
 10
13.70448654025199
 20
2.820936591577062
 30
0.0
 10
13.70615320691866
 20
3.075797702688178
 30
0.0
 10
13.70448654025199
 20
3.330797702688162
 30
0.0
 10
13.70531987358532
 20
3.585658813799278
 30
0.0
 10
13.55393098469643
 20
3.58579770268817
 30
0.0
 10
13.40254209580755
 20
3.58579770268817
 30
0.0
 10
13.25101431802977
 20
3.585658813799278
 30
0.0
 10
13.25115320691865
 20
3.642047702688159
 30
0.0
 10
13.25101431802977
 20
3.698436591577066
 30
0.0
 10
13.25115320691865
 20
3.754825480465948
 30
0.0
  0
SPLINE
  5
5F
330
57
100
AcDbEntity
  8
Layer 1
370
     0
100
AcDbSpline
210
0.0
220
0.0
230
1.0
 70
     9
 71
     3
 72
    56
 73
    52
 74
     0
 42
0.000000001
 43
0.0000000001
 40
0.0
 40
0.0
 40
0.0
 40
0.0
 40
1.0
 40
1.0
 40
1.0
 40
2.0
 40
2.0
 40
2.0
 40
3.0
 40
3.0
 40
3.0
 40
4.0
 40
4.0
 40
4.0
 40
5.0
 40
5.0
 40
5.0
 40
6.0
 40
6.0
 40
6.0
 40
7.0
 40
7.0
 40
7.0
 40
8.0
 40
8.0
 40
8.0
 40
9.0
 40
9.0
 40
9.0
 40
10.0
 40
10.0
 40
10.0
 40
11.0
 40
11.0
 40
11.0
 40
12.0
 40
12.0
 40
12.0
 40
13.0
 40
13.0
 40
13.0
 40
14.0
 40
14.0
 40
14.0
 40
15.0
 40
15.0
 40
15.0
 40
16.0
 40
16.0
 40
16.0
 40
17.0
 40
17.0
 40
17.0
 40
17.0
 10
11.75490320691866
 20
3.263297702688178
 30
0.0
 10
11.91448654025199
 20
3.328714369354834
 30
0.0
 10
12.06670876247421
 20
3.413019924910384
 30
0.0
 10
12.2030976513631
 20
3.518853258243729
 30
0.0
 10
12.23920876247421
 20
3.480797702688176
 30
0.0
 10
12.27573654025199
 20
3.442881036021491
 30
0.0
 10
12.31198654025199
 20
3.404825480465937
 30
0.0
 10
12.20351431802977
 20
3.325242147132611
 30
0.0
 10
12.09031987358532
 20
3.251769924910401
 30
0.0
 10
11.97156987358532
 20
3.188436591577051
 30
0.0
 10
12.25559765136311
 20
3.188158813799266
 30
0.0
 10
12.53948654025199
 20
3.188158813799266
 30
0.0
 10
12.82351431802977
 20
3.188436591577051
 30
0.0
 10
12.82337542914087
 20
3.138575480465938
 30
0.0
 10
12.82323654025199
 20
3.088714369354824
 30
0.0
 10
12.82420876247421
 20
3.038714369354845
 30
0.0
 10
12.70837542914088
 20
3.036492147132623
 30
0.0
 10
12.59240320691866
 20
3.038297702688169
 30
0.0
 10
12.47656987358533
 20
3.0377421471326
 30
0.0
 10
12.47656987358533
 20
2.956075480465944
 30
0.0
 10
12.47656987358533
 20
2.874547702688157
 30
0.0
 10
12.47656987358533
 20
2.7928810360215
 30
0.0
 10
12.65615320691865
 20
2.7928810360215
 30
0.0
 10
12.83573654025199
 20
2.7928810360215
 30
0.0
 10
13.01531987358533
 20
2.7928810360215
 30
0.0
 10
13.01545876247421
 20
2.742603258243712
 30
0.0
 10
13.01545876247421
 20
2.692325480465949
 30
0.0
 10
13.01531987358533
 20
2.64204770268816
 30
0.0
 10
12.59906987358532
 20
2.642464369354835
 30
0.0
 10
12.18281987358532
 20
2.642464369354835
 30
0.0
 10
11.76656987358533
 20
2.64204770268816
 30
0.0
 10
11.76587542914088
 20
2.692325480465949
 30
0.0
 10
11.76601431802977
 20
2.742603258243712
 30
0.0
 10
11.76629209580754
 20
2.7928810360215
 30
0.0
 10
11.94587542914088
 20
2.7928810360215
 30
0.0
 10
12.12545876247421
 20
2.792742147132608
 30
0.0
 10
12.30504209580754
 20
2.7928810360215
 30
0.0
 10
12.30504209580754
 20
2.874547702688157
 30
0.0
 10
12.30490320691865
 20
2.956075480465944
 30
0.0
 10
12.30504209580754
 20
3.0377421471326
 30
0.0
 10
12.18948654025199
 20
3.0377421471326
 30
0.0
 10
12.07393098469644
 20
3.037881036021492
 30
0.0
 10
11.95851431802977
 20
3.037603258243734
 30
0.0
 10
11.95795876247421
 20
3.085381036021493
 30
0.0
 10
11.95809765136311
 20
3.133158813799278
 30
0.0
 10
11.95781987358532
 20
3.180936591577063
 30
0.0
 10
11.91837542914087
 20
3.159547702688163
 30
0.0
 10
11.87851431802977
 20
3.139131036021504
 30
0.0
 10
11.83781987358533
 20
3.120242147132607
 30
0.0
 10
11.81281987358533
 20
3.169408813799287
 30
0.0
 10
11.7843476513631
 20
3.216769924910396
 30
0.0
 10
11.75490320691866
 20
3.263297702688178
 30
0.0
  0
SPLINE
  5
60
330
57
100
AcDbEntity
  8
Layer 1
370
     0
100
AcDbSpline
210
0.0
220
0.0
230
1.0
 70
     9
 71
     3
 72
    17
 73
    13
 74
     0
 42
0.000000001
 43
0.0000000001
 40
0.0
 40
0.0
 40
0.0
 40
0.0
 40
1.0
 40
1.0
 40
1.0
 40
2.0
 40
2.0
 40
2.0
 40
3.0
 40
3.0
 40
3.0
 40
4.0
 40
4.0
 40
4.0
 40
4.0
 10
12.46865320691865
 20
3.399131036021496
 30
0.0
 10
12.49768098469643
 20
3.440936591577055
 30
0.0
 10
12.52726431802976
 20
3.482464369354829
 30
0.0
 10
12.55643098469644
 20
3.524269924910388
 30
0.0
 10
12.71615320691866
 20
3.449408813799285
 30
0.0
 10
12.87406987358533
 20
3.370658813799283
 30
0.0
 10
13.02823654025198
 20
3.284686591577055
 30
0.0
 10
13.00101431802977
 20
3.237186591577053
 30
0.0
 10
12.97462542914088
 20
3.189131036021509
 30
0.0
 10
12.94768098469644
 20
3.141492147132616
 30
0.0
 10
12.79240320691866
 20
3.235381036021508
 30
0.0
 10
12.63240320691865
 20
3.321075480465955
 30
0.0
 10
12.46865320691865
 20
3.399131036021496
 30
0.0
  0
SPLINE
  5
61
330
57
100
AcDbEntity
  8
Layer 1
370
     0
100
AcDbSpline
210
0.0
220
0.0
230
1.0
 70
     9
 71
     3
 72
    17
 73
    13
 74
     0
 42
0.000000001
 43
0.0000000001
 40
0.0
 40
0.0
 40
0.0
 40
0.0
 40
1.0
 40
1.0
 40
1.0
 40
2.0
 40
2.0
 40
2.0
 40
3.0
 40
3.0
 40
3.0
 40
4.0
 40
4.0
 40
4.0
 40
4.0
 10
10.37573654025199
 20
2.301908813799273
 30
0.0
 10
11.00795876247422
 20
2.363158813799271
 30
0.0
 10
11.64365320691866
 20
2.377186591577053
 30
0.0
 10
12.27837542914088
 20
2.388297702688179
 30
0.0
 10
13.21337542914087
 20
2.398992147132604
 30
0.0
 10
14.14879209580754
 20
2.397047702688167
 30
0.0
 10
15.08295876247421
 20
2.35426992491039
 30
0.0
 10
15.32698654025199
 20
2.340936591577044
 30
0.0
 10
15.57143098469644
 20
2.329408813799267
 30
0.0
 10
15.8143476513631
 20
2.301492147132623
 30
0.0
 10
14.00143098469644
 20
2.302881036021491
 30
0.0
 10
12.18851431802977
 20
2.302186591577058
 30
0.0
 10
10.37573654025199
 20
2.301908813799273
 30
0.0
  0
SPLINE
  5
62
330
57
100
AcDbEntity
  8
Layer 1
370
     0
100
AcDbSpline
210
0.0
220
0.0
230
1.0
 70
     9
 71
     3
 72
    38
 73
    34
 74
     0
 42
0.000000001
 43
0.0000000001
 40
0.0
 40
0.0
 40
0.0
 40
0.0
 40
1.0
 40
1.0
 40
1.0
 40
2.0
 40
2.0
 40
2.0
 40
3.0
 40
3.0
 40
3.0
 40
4.0
 40
4.0
 40
4.0
 40
5.0
 40
5.0
 40
5.0
 40
6.0
 40
6.0
 40
6.0
 40
7.0
 40
7.0
 40
7.0
 40
8.0
 40
8.0
 40
8.0
 40
9.0
 40
9.0
 40
9.0
 40
10.0
 40
10.0
 40
10.0
 40
11.0
 40
11.0
 40
11.0
 40
11.0
 10
11.08518098469643
 20
2.117603258243712
 30
0.0
 10
11.14920876247421
 20
2.117464369354845
 30
0.0
 10
11.21323654025199
 20
2.117742147132604
 30
0.0
 10
11.27740320691866
 20
2.117603258243712
 30
0.0
 10
11.2780976513631
 20
1.921214369354831
 30
0.0
 10
11.27656987358532
 20
1.72482548046595
 30
0.0
 10
11.27823654025198
 20
1.528436591577045
 30
0.0
 10
11.34129209580755
 20
1.623853258243721
 30
0.0
 10
11.40337542914088
 20
1.719964369354834
 30
0.0
 10
11.46420876247421
 20
1.816908813799273
 30
0.0
 10
11.54073654025199
 20
1.819269924910384
 30
0.0
 10
11.61740320691865
 20
1.817325480465948
 30
0.0
 10
11.69406987358532
 20
1.817881036021491
 30
0.0
 10
11.61962542914086
 20
1.72038103602151
 30
0.0
 10
11.54545876247422
 20
1.622742147132611
 30
0.0
 10
11.4705976513631
 20
1.525658813799281
 30
0.0
 10
11.55018098469643
 20
1.414825480465955
 30
0.0
 10
11.63031987358532
 20
1.304686591577062
 30
0.0
 10
11.71031987358533
 20
1.194131036021492
 30
0.0
 10
11.63295876247422
 20
1.194547702688168
 30
0.0
 10
11.55573654025199
 20
1.1939921471326
 30
0.0
 10
11.47865320691865
 20
1.194547702688168
 30
0.0
 10
11.41212542914088
 20
1.299269924910377
 30
0.0
 10
11.3443476513631
 20
1.403158813799285
 30
0.0
 10
11.27754209580755
 20
1.50760325824371
 30
0.0
 10
11.27740320691866
 20
1.403158813799285
 30
0.0
 10
11.27740320691866
 20
1.298575480465944
 30
0.0
 10
11.27754209580755
 20
1.194131036021492
 30
0.0
 10
11.21337542914087
 20
1.194408813799276
 30
0.0
 10
11.1493476513631
 20
1.194408813799276
 30
0.0
 10
11.08531987358533
 20
1.194269924910384
 30
0.0
 10
11.08504209580754
 20
1.50204770268816
 30
0.0
 10
11.08504209580754
 20
1.809825480465936
 30
0.0
 10
11.08518098469643
 20
2.117603258243712
 30
0.0
  0
SPLINE
  5
63
330
57
100
AcDbEntity
  8
Layer 1
370
     0
100
AcDbSpline
210
0.0
220
0.0
230
1.0
 70
     9
 71
     3
 72
    38
 73
    34
 74
     0
 42
0.000000001
 43
0.0000000001
 40
0.0
 40
0.0
 40
0.0
 40
0.0
 40
1.0
 40
1.0
 40
1.0
 40
2.0
 40
2.0
 40
2.0
 40
3.0
 40
3.0
 40
3.0
 40
4.0
 40
4.0
 40
4.0
 40
5.0
 40
5.0
 40
5.0
 40
6.0
 40
6.0
 40
6.0
 40
7.0
 40
7.0
 40
7.0
 40
8.0
 40
8.0
 40
8.0
 40
9.0
 40
9.0
 40
9.0
 40
10.0
 40
10.0
 40
10.0
 40
11.0
 40
11.0
 40
11.0
 40
11.0
 10
14.69726431802976
 20
2.117603258243712
 30
0.0
 10
14.76129209580755
 20
2.117464369354845
 30
0.0
 10
14.82531987358532
 20
2.117742147132604
 30
0.0
 10
14.8893476513631
 20
2.117603258243712
 30
0.0
 10
14.88976431802977
 20
1.920936591577047
 30
0.0
 10
14.88906987358532
 20
1.72413103602149
 30
0.0
 10
14.88976431802977
 20
1.527464369354825
 30
0.0
 10
14.95323654025199
 20
1.623853258243721
 30
0.0
 10
15.01504209580754
 20
1.721214369354837
 30
0.0
 10
15.07781987358533
 20
1.818019924910382
 30
0.0
 10
15.15379209580755
 20
1.817881036021491
 30
0.0
 10
15.22990320691866
 20
1.818019924910382
 30
0.0
 10
15.30601431802976
 20
1.817881036021491
 30
0.0
 10
15.23156987358532
 20
1.72038103602151
 30
0.0
 10
15.15712542914088
 20
1.622881036021504
 30
0.0
 10
15.08268098469643
 20
1.525242147132605
 30
0.0
 10
15.16254209580754
 20
1.414825480465955
 30
0.0
 10
15.24226431802976
 20
1.304269924910385
 30
0.0
 10
15.32254209580755
 20
1.194131036021492
 30
0.0
 10
15.2455976513631
 20
1.194269924910384
 30
0.0
 10
15.16879209580755
 20
1.194825480465952
 30
0.0
 10
15.09198654025199
 20
1.193853258243735
 30
0.0
 10
15.02379209580754
 20
1.297325480465942
 30
0.0
 10
14.958236540252
 20
1.402464369354825
 30
0.0
 10
14.89004209580754
 20
1.505936591577059
 30
0.0
 10
14.88879209580755
 20
1.402047702688176
 30
0.0
 10
14.88976431802977
 20
1.298158813799267
 30
0.0
 10
14.88948654025199
 20
1.194269924910384
 30
0.0
 10
14.82531987358532
 20
1.194408813799276
 30
0.0
 10
14.76129209580755
 20
1.194408813799276
 30
0.0
 10
14.69726431802976
 20
1.194131036021492
 30
0.0
 10
14.69712542914087
 20
1.501908813799268
 30
0.0
 10
14.69712542914087
 20
1.809825480465936
 30
0.0
 10
14.69726431802976
 20
2.117603258243712
 30
0.0
  0
SPLINE
  5
64
330
57
100
AcDbEntity
  8
Layer 1
370
     0
100
AcDbSpline
210
0.0
220
0.0
230
1.0
 70
     9
 71
     3
 72
    53
 73
    49
 74
     0
 42
0.000000001
 43
0.0000000001
 40
0.0
 40
0.0
 40
0.0
 40
0.0
 40
1.0
 40
1.0
 40
1.0
 40
2.0
 40
2.0
 40
2.0
 40
3.0
 40
3.0
 40
3.0
 40
4.0
 40
4.0
 40
4.0
 40
5.0
 40
5.0
 40
5.0
 40
6.0
 40
6.0
 40
6.0
 40
7.0
 40
7.0
 40
7.0
 40
8.0
 40
8.0
 40
8.0
 40
9.0
 40
9.0
 40
9.0
 40
10.0
 40
10.0
 40
10.0
 40
11.0
 40
11.0
 40
11.0
 40
12.0
 40
12.0
 40
12.0
 40
13.0
 40
13.0
 40
13.0
 40
14.0
 40
14.0
 40
14.0
 40
15.0
 40
15.0
 40
15.0
 40
16.0
 40
16.0
 40
16.0
 40
16.0
 10
10.38795876247421
 20
1.935242147132611
 30
0.0
 10
10.43045876247421
 20
2.019131036021514
 30
0.0
 10
10.52351431802977
 20
2.062186591577049
 30
0.0
 10
10.61281987358532
 20
2.07524214713261
 30
0.0
 10
10.71656987358532
 20
2.089408813799284
 30
0.0
 10
10.82448654025198
 20
2.083575480465949
 30
0.0
 10
10.92406987358532
 20
2.049686591577053
 30
0.0
 10
10.9243476513631
 20
1.989269924910381
 30
0.0
 10
10.92351431802976
 20
1.928714369354844
 30
0.0
 10
10.92462542914089
 20
1.868158813799279
 30
0.0
 10
10.84795876247421
 20
1.914547702688171
 30
0.0
 10
10.75545876247421
 20
1.937603258243724
 30
0.0
 10
10.66629209580755
 20
1.923436591577051
 30
0.0
 10
10.62656987358532
 20
1.916353258243715
 30
0.0
 10
10.58018098469644
 20
1.895936591577058
 30
0.0
 10
10.57115320691865
 20
1.852186591577063
 30
0.0
 10
10.56212542914088
 20
1.805936591577063
 30
0.0
 10
10.60212542914088
 20
1.771769924910384
 30
0.0
 10
10.63823654025198
 20
1.751769924910401
 30
0.0
 10
10.7268476513631
 20
1.70232548046594
 30
0.0
 10
10.83240320691866
 20
1.677742147132599
 30
0.0
 10
10.90351431802977
 20
1.600797702688168
 30
0.0
 10
10.9680976513631
 20
1.532742147132618
 30
0.0
 10
10.97615320691865
 20
1.426908813799274
 30
0.0
 10
10.94587542914088
 20
1.341353258243719
 30
0.0
 10
10.91406987358533
 20
1.255936591577059
 30
0.0
 10
10.82643098469643
 20
1.205797702688162
 30
0.0
 10
10.74045876247422
 20
1.190658813799271
 30
0.0
 10
10.61615320691865
 20
1.169131036021502
 30
0.0
 10
10.48323654025199
 20
1.175242147132621
 30
0.0
 10
10.36670876247422
 20
1.226769924910386
 30
0.0
 10
10.36656987358533
 20
1.29176992491039
 30
0.0
 10
10.3668476513631
 20
1.356769924910395
 30
0.0
 10
10.36643098469643
 20
1.421631036021506
 30
0.0
 10
10.45337542914088
 20
1.351769924910387
 30
0.0
 10
10.57170876247421
 20
1.31524214713262
 30
0.0
 10
10.68170876247421
 20
1.343019924910397
 30
0.0
 10
10.71795876247422
 20
1.351908813799278
 30
0.0
 10
10.75573654025199
 20
1.379686591577057
 30
0.0
 10
10.75518098469643
 20
1.420658813799289
 30
0.0
 10
10.75740320691865
 20
1.461214369354845
 30
0.0
 10
10.72351431802977
 20
1.490519924910384
 30
0.0
 10
10.69254209580754
 20
1.510381036021499
 30
0.0
 10
10.61031987358533
 20
1.560519924910396
 30
0.0
 10
10.51018098469644
 20
1.579686591577051
 30
0.0
 10
10.43879209580754
 20
1.647464369354844
 30
0.0
 10
10.35823654025199
 20
1.716908813799288
 30
0.0
 10
10.34240320691866
 20
1.842186591577046
 30
0.0
 10
10.38795876247421
 20
1.935242147132611
 30
0.0
  0
SPLINE
  5
65
330
57
100
AcDbEntity
  8
Layer 1
370
     0
100
AcDbSpline
210
0.0
220
0.0
230
1.0
 70
     9
 71
     3
 72
    44
 73
    40
 74
     0
 42
0.000000001
 43
0.0000000001
 40
0.0
 40
0.0
 40
0.0
 40
0.0
 40
1.0
 40
1.0
 40
1.0
 40
2.0
 40
2.0
 40
2.0
 40
3.0
 40
3.0
 40
3.0
 40
4.0
 40
4.0
 40
4.0
 40
5.0
 40
5.0
 40
5.0
 40
6.0
 40
6.0
 40
6.0
 40
7.0
 40
7.0
 40
7.0
 40
8.0
 40
8.0
 40
8.0
 40
9.0
 40
9.0
 40
9.0
 40
10.0
 40
10.0
 40
10.0
 40
11.0
 40
11.0
 40
11.0
 40
12.0
 40
12.0
 40
12.0
 40
13.0
 40
13.0
 40
13.0
 40
13.0
 10
15.4243476513631
 20
1.779131036021504
 30
0.0
 10
15.53198654025199
 20
1.851631036021495
 30
0.0
 10
15.6718476513631
 20
1.839964369354825
 30
0.0
 10
15.79198654025199
 20
1.809547702688178
 30
0.0
 10
15.79254209580755
 20
1.759964369354823
 30
0.0
 10
15.79198654025199
 20
1.710242147132601
 30
0.0
 10
15.79268098469644
 20
1.660658813799273
 30
0.0
 10
15.73295876247422
 20
1.691075480465946
 30
0.0
 10
15.66448654025199
 20
1.710242147132601
 30
0.0
 10
15.59726431802977
 20
1.699131036021501
 30
0.0
 10
15.56906987358532
 20
1.694825480465953
 30
0.0
 10
15.53531987358532
 20
1.676769924910381
 30
0.0
 10
15.53906987358533
 20
1.64315881379927
 30
0.0
 10
15.54962542914089
 20
1.604825480465933
 30
0.0
 10
15.59198654025199
 20
1.593992147132615
 30
0.0
 10
15.62476431802977
 20
1.581908813799271
 30
0.0
 10
15.69031987358532
 20
1.559408813799285
 30
0.0
 10
15.76462542914088
 20
1.537603258243735
 30
0.0
 10
15.80573654025199
 20
1.476908813799278
 30
0.0
 10
15.86004209580754
 20
1.389964369354832
 30
0.0
 10
15.8230976513631
 20
1.262464369354827
 30
0.0
 10
15.72948654025199
 20
1.218992147132615
 30
0.0
 10
15.61240320691866
 20
1.162047702688167
 30
0.0
 10
15.47281987358532
 20
1.171631036021506
 30
0.0
 10
15.35156987358533
 20
1.209964369354843
 30
0.0
 10
15.35129209580754
 20
1.261908813799284
 30
0.0
 10
15.35156987358533
 20
1.313992147132617
 30
0.0
 10
15.35143098469644
 20
1.365936591577059
 30
0.0
 10
15.4293476513631
 20
1.321631036021497
 30
0.0
 10
15.52587542914087
 20
1.291353258243715
 30
0.0
 10
15.61393098469643
 20
1.32301992491039
 30
0.0
 10
15.64837542914088
 20
1.332881036021489
 30
0.0
 10
15.65837542914088
 20
1.384131036021496
 30
0.0
 10
15.62587542914088
 20
1.402603258243718
 30
0.0
 10
15.56198654025199
 20
1.442047702688165
 30
0.0
 10
15.48212542914088
 20
1.447186591577064
 30
0.0
 10
15.42087542914088
 20
1.492464369354845
 30
0.0
 10
15.32462542914086
 20
1.555658813799279
 30
0.0
 10
15.32948654025199
 20
1.716769924910396
 30
0.0
 10
15.4243476513631
 20
1.779131036021504
 30
0.0
  0
SPLINE
  5
66
330
57
100
AcDbEntity
  8
Layer 1
370
     0
100
AcDbSpline
210
0.0
220
0.0
230
1.0
 70
     9
 71
     3
 72
    38
 73
    34
 74
     0
 42
0.000000001
 43
0.0000000001
 40
0.0
 40
0.0
 40
0.0
 40
0.0
 40
1.0
 40
1.0
 40
1.0
 40
2.0
 40
2.0
 40
2.0
 40
3.0
 40
3.0
 40
3.0
 40
4.0
 40
4.0
 40
4.0
 40
5.0
 40
5.0
 40
5.0
 40
6.0
 40
6.0
 40
6.0
 40
7.0
 40
7.0
 40
7.0
 40
8.0
 40
8.0
 40
8.0
 40
9.0
 40
9.0
 40
9.0
 40
10.0
 40
10.0
 40
10.0
 40
11.0
 40
11.0
 40
11.0
 40
11.0
 10
11.69670876247421
 20
1.818019924910382
 30
0.0
 10
11.76781987358532
 20
1.817881036021491
 30
0.0
 10
11.83906987358532
 20
1.818158813799274
 30
0.0
 10
11.91031987358532
 20
1.817881036021491
 30
0.0
 10
11.95406987358533
 20
1.663158813799276
 30
0.0
 10
12.01170876247421
 20
1.512047702688176
 30
0.0
 10
12.04490320691866
 20
1.354547702688175
 30
0.0
 10
12.08393098469643
 20
1.510936591577066
 30
0.0
 10
12.13809765136311
 20
1.663158813799276
 30
0.0
 10
12.18337542914087
 20
1.817881036021491
 30
0.0
 10
12.2468476513631
 20
1.818019924910382
 30
0.0
 10
12.31045876247421
 20
1.818019924910382
 30
0.0
 10
12.37406987358533
 20
1.817881036021491
 30
0.0
 10
12.28976431802976
 20
1.593436591577049
 30
0.0
 10
12.20531987358532
 20
1.369131036021498
 30
0.0
 10
12.12087542914087
 20
1.144825480465947
 30
0.0
 10
12.08893098469643
 20
1.061353258243721
 30
0.0
 10
12.04254209580755
 20
0.9759365915770608
 30
0.0
 10
11.96212542914088
 20
0.9306588137992799
 30
0.0
 10
11.8918476513631
 20
0.8905199249103992
 30
0.0
 10
11.80615320691865
 20
0.8977421471326023
 30
0.0
 10
11.73045876247421
 20
0.9156588137992807
 30
0.0
 10
11.73031987358532
 20
0.9666310360215042
 30
0.0
 10
11.7305976513631
 20
1.017603258243727
 30
0.0
 10
11.72990320691866
 20
1.068436591577059
 30
0.0
 10
11.77879209580755
 20
1.046214369354832
 30
0.0
 10
11.84379209580754
 20
1.03510325824373
 30
0.0
 10
11.88754209580755
 20
1.073853258243717
 30
0.0
 10
11.92004209580754
 20
1.10746436935483
 30
0.0
 10
11.93115320691865
 20
1.154686591577047
 30
0.0
 10
11.95031987358532
 20
1.196075480465955
 30
0.0
 10
11.86531987358532
 20
1.403158813799285
 30
0.0
 10
11.78156987358533
 20
1.610797702688159
 30
0.0
 10
11.69670876247421
 20
1.818019924910382
 30
0.0
  0
SPLINE
  5
67
330
57
100
AcDbEntity
  8
Layer 1
370
     0
100
AcDbSpline
210
0.0
220
0.0
230
1.0
 70
     9
 71
     3
 72
    47
 73
    43
 74
     0
 42
0.000000001
 43
0.0000000001
 40
0.0
 40
0.0
 40
0.0
 40
0.0
 40
1.0
 40
1.0
 40
1.0
 40
2.0
 40
2.0
 40
2.0
 40
3.0
 40
3.0
 40
3.0
 40
4.0
 40
4.0
 40
4.0
 40
5.0
 40
5.0
 40
5.0
 40
6.0
 40
6.0
 40
6.0
 40
7.0
 40
7.0
 40
7.0
 40
8.0
 40
8.0
 40
8.0
 40
9.0
 40
9.0
 40
9.0
 40
10.0
 40
10.0
 40
10.0
 40
11.0
 40
11.0
 40
11.0
 40
12.0
 40
12.0
 40
12.0
 40
13.0
 40
13.0
 40
13.0
 40
14.0
 40
14.0
 40
14.0
 40
14.0
 10
12.79115320691865
 20
1.817742147132624
 30
0.0
 10
12.85212542914088
 20
1.818158813799274
 30
0.0
 10
12.91323654025199
 20
1.817881036021491
 30
0.0
 10
12.97434765136311
 20
1.818158813799274
 30
0.0
 10
13.00851431802976
 20
1.656214369354833
 30
0.0
 10
13.06045876247421
 20
1.497464369354829
 30
0.0
 10
13.08031987358532
 20
1.332881036021489
 30
0.0
 10
13.10754209580754
 20
1.495381036021499
 30
0.0
 10
13.14337542914089
 20
1.656214369354833
 30
0.0
 10
13.17448654025199
 20
1.818019924910382
 30
0.0
 10
13.23393098469643
 20
1.817881036021491
 30
0.0
 10
13.29351431802977
 20
1.818158813799274
 30
0.0
 10
13.3530976513631
 20
1.817742147132624
 30
0.0
 10
13.29240320691866
 20
1.610103258243725
 30
0.0
 10
13.23323654025199
 20
1.402047702688176
 30
0.0
 10
13.1730976513631
 20
1.194269924910384
 30
0.0
 10
13.1055976513631
 20
1.194547702688168
 30
0.0
 10
13.03823654025199
 20
1.194269924910384
 30
0.0
 10
12.97087542914088
 20
1.194408813799276
 30
0.0
 10
12.9380976513631
 20
1.345519924910401
 30
0.0
 10
12.88406987358533
 20
1.492742147132604
 30
0.0
 10
12.8680976513631
 20
1.646769924910384
 30
0.0
 10
12.84198654025199
 20
1.493436591577063
 30
0.0
 10
12.79143098469644
 20
1.34538103602151
 30
0.0
 10
12.7543476513631
 20
1.194408813799276
 30
0.0
 10
12.68768098469643
 20
1.194269924910384
 30
0.0
 10
12.62101431802976
 20
1.194408813799276
 30
0.0
 10
12.5543476513631
 20
1.194408813799276
 30
0.0
 10
12.49615320691866
 20
1.402464369354825
 30
0.0
 10
12.43670876247422
 20
1.610103258243725
 30
0.0
 10
12.37851431802977
 20
1.818158813799274
 30
0.0
 10
12.44379209580754
 20
1.817742147132624
 30
0.0
 10
12.50920876247421
 20
1.818158813799274
 30
0.0
 10
12.57462542914087
 20
1.817742147132624
 30
0.0
 10
12.60698654025198
 20
1.656492147132615
 30
0.0
 10
12.64573654025198
 20
1.496353258243718
 30
0.0
 10
12.67323654025199
 20
1.3339921471326
 30
0.0
 10
12.67615320691866
 20
1.401769924910392
 30
0.0
 10
12.69893098469644
 20
1.465936591577045
 30
0.0
 10
12.71531987358532
 20
1.53107548046594
 30
0.0
 10
12.74059765136311
 20
1.62663103602151
 30
0.0
 10
12.76587542914088
 20
1.722186591577054
 30
0.0
 10
12.79115320691865
 20
1.817742147132624
 30
0.0
  0
INSERT
  5
69
330
57
100
AcDbEntity
  8
Layer 1
100
AcDbBlockReference
  2
block 4
 10
0.0
 20
0.0
 30
0.0
  0
SPLINE
  5
6E
330
57
100
AcDbEntity
  8
Layer 1
370
     0
100
AcDbSpline
210
0.0
220
0.0
230
1.0
 70
     9
 71
     3
 72
    35
 73
    31
 74
     0
 42
0.000000001
 43
0.0000000001
 40
0.0
 40
0.0
 40
0.0
 40
0.0
 40
1.0
 40
1.0
 40
1.0
 40
2.0
 40
2.0
 40
2.0
 40
3.0
 40
3.0
 40
3.0
 40
4.0
 40
4.0
 40
4.0
 40
5.0
 40
5.0
 40
5.0
 40
6.0
 40
6.0
 40
6.0
 40
7.0
 40
7.0
 40
7.0
 40
8.0
 40
8.0
 40
8.0
 40
9.0
 40
9.0
 40
9.0
 40
10.0
 40
10.0
 40
10.0
 40
10.0
 10
14.46768098469643
 20
1.801769924910381
 30
0.0
 10
14.50851431802976
 20
1.831075480465946
 30
0.0
 10
14.56143098469643
 20
1.83246436935484
 30
0.0
 10
14.60948654025199
 20
1.824408813799285
 30
0.0
 10
14.60976431802977
 20
1.765103258243723
 30
0.0
 10
14.60893098469643
 20
1.705936591577053
 30
0.0
 10
14.61018098469644
 20
1.646631036021491
 30
0.0
 10
14.56504209580755
 20
1.662881036021493
 30
0.0
 10
14.51268098469643
 20
1.672881036021509
 30
0.0
 10
14.46823654025199
 20
1.649686591577063
 30
0.0
 10
14.41656987358533
 20
1.622186591577045
 30
0.0
 10
14.39656987358532
 20
1.560242147132611
 30
0.0
 10
14.3955976513631
 20
1.50496436935484
 30
0.0
 10
14.39420876247421
 20
1.401492147132608
 30
0.0
 10
14.39545876247421
 20
1.297881036021508
 30
0.0
 10
14.39518098469643
 20
1.194269924910384
 30
0.0
 10
14.33101431802976
 20
1.194408813799276
 30
0.0
 10
14.26698654025199
 20
1.194408813799276
 30
0.0
 10
14.20295876247421
 20
1.194131036021492
 30
0.0
 10
14.20254209580753
 20
1.402047702688176
 30
0.0
 10
14.20281987358533
 20
1.609964369354834
 30
0.0
 10
14.20281987358533
 20
1.817881036021491
 30
0.0
 10
14.2668476513631
 20
1.818019924910382
 30
0.0
 10
14.33087542914089
 20
1.818019924910382
 30
0.0
 10
14.39504209580754
 20
1.817881036021491
 30
0.0
 10
14.39518098469643
 20
1.778158813799285
 30
0.0
 10
14.39531987358532
 20
1.738436591577056
 30
0.0
 10
14.39462542914086
 20
1.698714369354824
 30
0.0
 10
14.41198654025199
 20
1.737047702688161
 30
0.0
 10
14.43115320691865
 20
1.77774214713261
 30
0.0
 10
14.46768098469643
 20
1.801769924910381
 30
0.0
  0
ENDBLK
  5
5A
330
57
100
AcDbEntity
  8
0
100
AcDbBlockEnd
  0
BLOCK
  5
6A
330
68
100
AcDbEntity
  8
0
100
AcDbBlockBegin
  2
block 4
 70
     0
 10
0.0
 20
0.0
 30
0.0
  3
block 4
  1

  0
SPLINE
  5
6C
330
68
100
AcDbEntity
  8
Layer 1
370
     0
100
AcDbSpline
210
0.0
220
0.0
230
1.0
 70
     9
 71
     3
 72
    26
 73
    22
 74
     0
 42
0.000000001
 43
0.0000000001
 40
0.0
 40
0.0
 40
0.0
 40
0.0
 40
1.0
 40
1.0
 40
1.0
 40
2.0
 40
2.0
 40
2.0
 40
3.0
 40
3.0
 40
3.0
 40
4.0
 40
4.0
 40
4.0
 40
5.0
 40
5.0
 40
5.0
 40
6.0
 40
6.0
 40
6.0
 40
7.0
 40
7.0
 40
7.0
 40
7.0
 10
13.61920876247421
 20
1.815519924910379
 30
0.0
 10
13.70754209580754
 20
1.84024214713261
 30
0.0
 10
13.80462542914088
 20
1.840519924910393
 30
0.0
 10
13.89156987358531
 20
1.809408813799285
 30
0.0
 10
13.98643098469644
 20
1.775519924910389
 30
0.0
 10
14.05712542914087
 20
1.68690881379929
 30
0.0
 10
14.07351431802977
 20
1.588019924910389
 30
0.0
 10
14.09226431802976
 20
1.476769924910387
 30
0.0
 10
14.07212542914087
 20
1.34982548046595
 30
0.0
 10
13.98823654025199
 20
1.268575480465946
 30
0.0
 10
13.90143098469644
 20
1.182742147132607
 30
0.0
 10
13.76837542914089
 20
1.166353258243715
 30
0.0
 10
13.65295876247421
 20
1.18690881379929
 30
0.0
 10
13.56198654025199
 20
1.202186591577047
 30
0.0
 10
13.47754209580753
 20
1.260242147132606
 30
0.0
 10
13.4380976513631
 20
1.344547702688159
 30
0.0
 10
13.39990320691865
 20
1.424964369354838
 30
0.0
 10
13.39740320691865
 20
1.518992147132621
 30
0.0
 10
13.41656987358532
 20
1.604686591577066
 30
0.0
 10
13.43906987358532
 20
1.705242147132619
 30
0.0
 10
13.52045876247421
 20
1.787603258243735
 30
0.0
 10
13.61920876247421
 20
1.815519924910379
 30
0.0
  0
SPLINE
  5
6D
330
68
100
AcDbEntity
  8
Layer 1
370
     0
100
AcDbSpline
210
0.0
220
0.0
230
1.0
 70
     9
 71
     3
 72
    23
 73
    19
 74
     0
 42
0.000000001
 43
0.0000000001
 40
0.0
 40
0.0
 40
0.0
 40
0.0
 40
1.0
 40
1.0
 40
1.0
 40
2.0
 40
2.0
 40
2.0
 40
3.0
 40
3.0
 40
3.0
 40
4.0
 40
4.0
 40
4.0
 40
5.0
 40
5.0
 40
5.0
 40
6.0
 40
6.0
 40
6.0
 40
6.0
 10
13.68893098469644
 20
1.676353258243731
 30
0.0
 10
13.63156987358532
 20
1.654686591577046
 30
0.0
 10
13.60448654025199
 20
1.591075480465936
 30
0.0
 10
13.60156987358533
 20
1.533575480465944
 30
0.0
 10
13.59781987358532
 20
1.473297702688165
 30
0.0
 10
13.60254209580754
 20
1.403575480465937
 30
0.0
 10
13.64851431802977
 20
1.358992147132614
 30
0.0
 10
13.69337542914088
 20
1.320381036021495
 30
0.0
 10
13.76351431802977
 20
1.316631036021489
 30
0.0
 10
13.81545876247421
 20
1.342881036021505
 30
0.0
 10
13.86698654025199
 20
1.371908813799285
 30
0.0
 10
13.88087542914088
 20
1.435936591577046
 30
0.0
 10
13.88337542914088
 20
1.490381036021491
 30
0.0
 10
13.88490320691865
 20
1.545381036021504
 30
0.0
 10
13.88129209580754
 20
1.60746436935483
 30
0.0
 10
13.84212542914088
 20
1.649825480465955
 30
0.0
 10
13.80309765136311
 20
1.68954770268816
 30
0.0
 10
13.73920876247421
 20
1.69357548046595
 30
0.0
 10
13.68893098469644
 20
1.676353258243731
 30
0.0
  0
ENDBLK
  5
6B
330
68
100
AcDbEntity
  8
0
100
AcDbBlockEnd
  0
ENDSEC
  0
SECTION
  2
ENTITIES
  0
SPLINE
  5
46
330
1F
100
AcDbEntity
  8
Layer 1
370
     0
100
AcDbSpline
210
0.0
220
0.0
230
1.0
 70
     9
 71
     3
 72
    26
 73
    22
 74
     0
 42
0.000000001
 43
0.0000000001
 40
0.0
 40
0.0
 40
0.0
 40
0.0
 40
1.0
 40
1.0
 40
1.0
 40
2.0
 40
2.0
 40
2.0
 40
3.0
 40
3.0
 40
3.0
 40
4.0
 40
4.0
 40
4.0
 40
5.0
 40
5.0
 40
5.0
 40
6.0
 40
6.0
 40
6.0
 40
7.0
 40
7.0
 40
7.0
 40
7.0
 10
1.371725869537738
 20
4.019559974017447
 30
0.0
 10
1.614836980648849
 20
3.981448862906332
 30
0.0
 10
1.861503647315514
 20
3.960782196239659
 30
0.0
 10
2.107614758426626
 20
3.973559974017432
 30
0.0
 10
2.247281425093295
 20
3.981337751795219
 30
0.0
 10
2.387503647315516
 20
3.999004418461887
 30
0.0
 10
2.521725869537737
 20
4.039671085128552
 30
0.0
 10
2.587948091759959
 20
4.060671085128547
 30
0.0
 10
2.654503647315514
 20
4.086004418461887
 30
0.0
 10
2.709614758426624
 20
4.12944886290633
 30
0.0
 10
2.733614758426627
 20
4.149559974017434
 30
0.0
 10
2.758170313982179
 20
4.175448862906323
 30
0.0
 10
2.75883698064885
 20
4.208671085128563
 30
0.0
 10
2.756503647315516
 20
4.248671085128546
 30
0.0
 10
2.717614758426627
 20
4.271559974017451
 30
0.0
 10
2.684392536204403
 20
4.285115529572999
 30
0.0
 10
2.592725869537736
 20
4.318782196239673
 30
0.0
 10
2.493281425093293
 20
4.318893307350765
 30
0.0
 10
2.396948091759959
 20
4.318337751795218
 30
0.0
 10
2.03605920287107
 20
4.312448862906323
 30
0.0
 10
1.684948091759961
 20
4.193893307350765
 30
0.0
 10
1.371725869537738
 20
4.019559974017447
 30
0.0
  0
SPLINE
  5
47
330
1F
100
AcDbEntity
  8
Layer 1
370
     0
100
AcDbSpline
210
0.0
220
0.0
230
1.0
 70
     9
 71
     3
 72
    17
 73
    13
 74
     0
 42
0.000000001
 43
0.0000000001
 40
0.0
 40
0.0
 40
0.0
 40
0.0
 40
1.0
 40
1.0
 40
1.0
 40
2.0
 40
2.0
 40
2.0
 40
3.0
 40
3.0
 40
3.0
 40
4.0
 40
4.0
 40
4.0
 40
4.0
 10
7.086903400805318
 20
3.899614168182454
 30
0.0
 10
7.053792095807542
 20
3.841214369354828
 30
0.0
 10
7.436986540251987
 20
3.667464369354825
 30
0.0
 10
7.71531987358532
 20
3.384547702688172
 30
0.0
 10
7.766708762474206
 20
3.461075480465953
 30
0.0
 10
7.81018098469643
 20
3.542881036021501
 30
0.0
 10
7.846292095807547
 20
3.627603258243728
 30
0.0
 10
7.728375429140882
 20
3.712464369354822
 30
0.0
 10
7.59781987358532
 20
3.779825480465937
 30
0.0
 10
7.459625429140877
 20
3.824686591577068
 30
0.0
 10
7.202125429140878
 20
3.909547702688163
 30
0.0
 10
6.924208762474209
 20
3.916075480465956
 30
0.0
 10
7.086903400805318
 20
3.899614168182454
 30
0.0
  0
SPLINE
  5
48
330
1F
100
AcDbEntity
  8
Layer 1
370
     0
100
AcDbSpline
210
0.0
220
0.0
230
1.0
 70
     9
 71
     3
 72
    17
 73
    13
 74
     0
 42
0.000000001
 43
0.0000000001
 40
0.0
 40
0.0
 40
0.0
 40
0.0
 40
1.0
 40
1.0
 40
1.0
 40
2.0
 40
2.0
 40
2.0
 40
3.0
 40
3.0
 40
3.0
 40
4.0
 40
4.0
 40
4.0
 40
4.0
 10
6.522852039324901
 20
3.835805995340814
 30
0.0
 10
6.711292095807542
 20
3.534547702688163
 30
0.0
 10
6.971569873585317
 20
3.199686591577068
 30
0.0
 10
7.1818476513631
 20
2.843297702688157
 30
0.0
 10
7.335875429140881
 20
2.95343659157705
 30
0.0
 10
7.478375429140882
 20
3.080936591577053
 30
0.0
 10
7.599486540251985
 20
3.226769924910386
 30
0.0
 10
7.339347651363102
 20
3.531214369354832
 30
0.0
 10
6.978930984696438
 20
3.738297702688163
 30
0.0
 10
6.598097651363105
 20
3.852047702688171
 30
0.0
 10
6.521153206918661
 20
3.840797702688178
 30
0.0
 10
6.545388356985852
 20
3.841503635487648
 30
0.0
 10
6.522852039324901
 20
3.835805995340814
 30
0.0
  0
SPLINE
  5
49
330
1F
100
AcDbEntity
  8
Layer 1
370
     0
100
AcDbSpline
210
0.0
220
0.0
230
1.0
 70
     9
 71
     3
 72
    17
 73
    13
 74
     0
 42
0.000000001
 43
0.0000000001
 40
0.0
 40
0.0
 40
0.0
 40
0.0
 40
1.0
 40
1.0
 40
1.0
 40
2.0
 40
2.0
 40
2.0
 40
3.0
 40
3.0
 40
3.0
 40
4.0
 40
4.0
 40
4.0
 40
4.0
 10
6.216569873585322
 20
3.695936591577063
 30
0.0
 10
6.097958762474212
 20
3.279825480465937
 30
0.0
 10
6.156708762474206
 20
2.834964369354843
 30
0.0
 10
6.27865320691866
 20
2.426492147132623
 30
0.0
 10
6.535597651363105
 20
2.4902421471326
 30
0.0
 10
6.781569873585326
 20
2.595936591577053
 30
0.0
 10
7.009347651363099
 20
2.7303810360215
 30
0.0
 10
6.81545876247421
 20
3.092186591577047
 30
0.0
 10
6.604625429140871
 20
3.446769924910388
 30
0.0
 10
6.277995271554229
 20
3.735033951648987
 30
0.0
 10
6.307958762474211
 20
3.747742147132612
 30
0.0
 10
6.256708762474217
 20
3.729686591577066
 30
0.0
 10
6.216569873585322
 20
3.695936591577063
 30
0.0
  0
SPLINE
  5
4A
330
1F
100
AcDbEntity
  8
Layer 1
370
     0
100
AcDbSpline
210
0.0
220
0.0
230
1.0
 70
     9
 71
     3
 72
    17
 73
    13
 74
     0
 42
0.000000001
 43
0.0000000001
 40
0.0
 40
0.0
 40
0.0
 40
0.0
 40
1.0
 40
1.0
 40
1.0
 40
2.0
 40
2.0
 40
2.0
 40
3.0
 40
3.0
 40
3.0
 40
4.0
 40
4.0
 40
4.0
 40
4.0
 10
5.782125429140882
 20
3.265936591577049
 30
0.0
 10
5.616014318029769
 20
2.995103258243716
 30
0.0
 10
5.546986540251988
 20
2.670936591577048
 30
0.0
 10
5.561357473033431
 20
2.501815257110633
 30
0.0
 10
5.758621409860969
 20
2.432160957112301
 30
0.0
 10
5.979364445526523
 20
2.42481734653566
 30
0.0
 10
6.065605517736269
 20
2.454515599020456
 30
0.0
 10
5.987403206918656
 20
2.810936591577047
 30
0.0
 10
5.988375429140874
 20
3.280103258243721
 30
0.0
 10
5.944246565164474
 20
3.482659114018107
 30
0.0
 10
6.022125429140879
 20
3.574825480465936
 30
0.0
 10
5.883097651363097
 20
3.432186591577066
 30
0.0
 10
5.782125429140882
 20
3.265936591577049
 30
0.0
  0
SPLINE
  5
4B
330
1F
100
AcDbEntity
  8
Layer 1
370
     0
100
AcDbSpline
210
0.0
220
0.0
230
1.0
 70
     9
 71
     3
 72
    20
 73
    16
 74
     0
 42
0.000000001
 43
0.0000000001
 40
0.0
 40
0.0
 40
0.0
 40
0.0
 40
1.0
 40
1.0
 40
1.0
 40
2.0
 40
2.0
 40
2.0
 40
3.0
 40
3.0
 40
3.0
 40
4.0
 40
4.0
 40
4.0
 40
5.0
 40
5.0
 40
5.0
 40
5.0
 10
2.702660016189562
 20
3.324100492644498
 30
0.0
 10
2.591771127300673
 20
3.250989381533388
 30
0.0
 10
2.490993349522893
 20
3.158767159311153
 30
0.0
 10
2.422660016189559
 20
3.043878270422263
 30
0.0
 10
2.620104460634003
 20
3.116322714866712
 30
0.0
 10
2.816215571745115
 20
3.209989381533382
 30
0.0
 10
2.967882238411784
 20
3.359100492644494
 30
0.0
 10
2.987326682856228
 20
3.380767159311148
 30
0.0
 10
3.014104460634004
 20
3.401767159311162
 30
0.0
 10
3.015660016189563
 20
3.43332271486672
 30
0.0
 10
2.998993349522897
 20
3.45265604820005
 30
0.0
 10
2.970215571745117
 20
3.443544937088942
 30
0.0
 10
2.948771127300674
 20
3.440211603755597
 30
0.0
 10
2.860104460634008
 20
3.417989381533375
 30
0.0
 10
2.778993349522894
 20
3.37321160375561
 30
0.0
 10
2.702660016189562
 20
3.324100492644498
 30
0.0
  0
SPLINE
  5
4C
330
1F
100
AcDbEntity
  8
Layer 1
370
     0
100
AcDbSpline
210
0.0
220
0.0
230
1.0
 70
     9
 71
     3
 72
    17
 73
    13
 74
     0
 42
0.000000001
 43
0.0000000001
 40
0.0
 40
0.0
 40
0.0
 40
0.0
 40
1.0
 40
1.0
 40
1.0
 40
2.0
 40
2.0
 40
2.0
 40
3.0
 40
3.0
 40
3.0
 40
4.0
 40
4.0
 40
4.0
 40
4.0
 10
8.005736540251985
 20
3.489825480465948
 30
0.0
 10
7.966847651363095
 20
3.394825480465947
 30
0.0
 10
7.918653206918659
 20
3.303714369354843
 30
0.0
 10
7.862542095807547
 20
3.217742147132613
 30
0.0
 10
7.99768098469643
 20
3.041492147132607
 30
0.0
 10
8.097680984696427
 20
2.8391310360215
 30
0.0
 10
8.157680984696437
 20
2.625381036021508
 30
0.0
 10
8.228792095807547
 20
2.739686591577057
 30
0.0
 10
8.283514318029762
 20
2.863575480465947
 30
0.0
 10
8.326569873585324
 20
2.990797702688167
 30
0.0
 10
8.255319873585321
 20
3.176769924910382
 30
0.0
 10
8.146153206918659
 20
3.348436591577056
 30
0.0
 10
8.005736540251985
 20
3.489825480465948
 30
0.0
  0
SPLINE
  5
4D
330
1F
100
AcDbEntity
  8
Layer 1
370
     0
100
AcDbSpline
210
0.0
220
0.0
230
1.0
 70
     9
 71
     3
 72
    14
 73
    10
 74
     0
 42
0.000000001
 43
0.0000000001
 40
0.0
 40
0.0
 40
0.0
 40
0.0
 40
1.0
 40
1.0
 40
1.0
 40
2.0
 40
2.0
 40
2.0
 40
3.0
 40
3.0
 40
3.0
 40
3.0
 10
4.01553599625232
 20
2.842314457187661
 30
0.0
 10
4.017980440696767
 20
2.788425568298768
 30
0.0
 10
4.01998044069677
 20
2.734536679409876
 30
0.0
 10
4.022424885141218
 20
2.680647790521002
 30
0.0
 10
4.174202662918994
 20
2.809203346076554
 30
0.0
 10
4.326202662918987
 20
2.937425568298767
 30
0.0
 10
4.478091551807876
 20
3.065870012743225
 30
0.0
 10
4.322758218474548
 20
2.993758901632096
 30
0.0
 10
4.169758218474544
 20
2.916647790520999
 30
0.0
 10
4.01553599625232
 20
2.842314457187661
 30
0.0
  0
SPLINE
  5
4E
330
1F
100
AcDbEntity
  8
Layer 1
370
     0
100
AcDbSpline
210
0.0
220
0.0
230
1.0
 70
     9
 71
     3
 72
    14
 73
    10
 74
     0
 42
0.000000001
 43
0.0000000001
 40
0.0
 40
0.0
 40
0.0
 40
0.0
 40
1.0
 40
1.0
 40
1.0
 40
2.0
 40
2.0
 40
2.0
 40
3.0
 40
3.0
 40
3.0
 40
3.0
 10
4.040657189486537
 20
2.470704434621438
 30
0.0
 10
4.111323856153209
 20
2.429704434621454
 30
0.0
 10
4.181101633930985
 20
2.386704434621445
 30
0.0
 10
4.252546078375432
 20
2.346815545732554
 30
0.0
 10
4.355101633930984
 20
2.572815545732556
 30
0.0
 10
4.458657189486546
 20
2.798371101288103
 30
0.0
 10
4.560768300597653
 20
3.024593323510333
 30
0.0
 10
4.443595007770458
 20
2.90032818940036
 30
0.0
 10
4.213879411708761
 20
2.655482212399228
 30
0.0
 10
4.040657189486537
 20
2.470704434621438
 30
0.0
  0
SPLINE
  5
4F
330
1F
100
AcDbEntity
  8
Layer 1
370
     0
100
AcDbSpline
210
0.0
220
0.0
230
1.0
 70
     9
 71
     3
 72
    17
 73
    13
 74
     0
 42
0.000000001
 43
0.0000000001
 40
0.0
 40
0.0
 40
0.0
 40
0.0
 40
1.0
 40
1.0
 40
1.0
 40
2.0
 40
2.0
 40
2.0
 40
3.0
 40
3.0
 40
3.0
 40
4.0
 40
4.0
 40
4.0
 40
4.0
 10
7.282125429140882
 20
2.66163103602149
 30
0.0
 10
7.394625429140874
 20
2.444408813799276
 30
0.0
 10
7.48893098469643
 20
2.217742147132614
 30
0.0
 10
7.562680984696434
 20
1.984408813799291
 30
0.0
 10
7.726014318029772
 20
2.101908813799278
 30
0.0
 10
7.873792095807541
 20
2.240797702688167
 30
0.0
 10
8.000875429140881
 20
2.396769924910384
 30
0.0
 10
7.955597651363101
 20
2.628158813799271
 30
0.0
 10
7.862680984696427
 20
2.849131036021491
 30
0.0
 10
7.735180984696436
 20
3.047047702688157
 30
0.0
 10
7.604486540251993
 20
2.896769924910383
 30
0.0
 10
7.451014318029768
 20
2.766908813799267
 30
0.0
 10
7.282125429140882
 20
2.66163103602149
 30
0.0
  0
SPLINE
  5
50
330
1F
100
AcDbEntity
  8
Layer 1
370
     0
100
AcDbSpline
210
0.0
220
0.0
230
1.0
 70
     9
 71
     3
 72
    17
 73
    13
 74
     0
 42
0.000000001
 43
0.0000000001
 40
0.0
 40
0.0
 40
0.0
 40
0.0
 40
1.0
 40
1.0
 40
1.0
 40
2.0
 40
2.0
 40
2.0
 40
3.0
 40
3.0
 40
3.0
 40
4.0
 40
4.0
 40
4.0
 40
4.0
 10
3.603179881124765
 20
2.77840692098275
 30
0.0
 10
3.646179881124764
 20
2.748295809871649
 30
0.0
 10
3.688957658902546
 20
2.717851365427187
 30
0.0
 10
3.731957658902544
 20
2.687851365427199
 30
0.0
 10
3.755735436680315
 20
2.715962476538297
 30
0.0
 10
3.779290992235869
 20
2.744073587649416
 30
0.0
 10
3.803068770013651
 20
2.772184698760534
 30
0.0
 10
3.804735436680314
 20
2.802518032093862
 30
0.0
 10
3.8065132144581
 20
2.832740254316078
 30
0.0
 10
3.808179881124763
 20
2.862962476538313
 30
0.0
 10
3.739846547791433
 20
2.834851365427194
 30
0.0
 10
3.671513214458094
 20
2.806740254316076
 30
0.0
 10
3.603179881124765
 20
2.77840692098275
 30
0.0
  0
SPLINE
  5
51
330
1F
100
AcDbEntity
  8
Layer 1
370
     0
100
AcDbSpline
210
0.0
220
0.0
230
1.0
 70
     9
 71
     3
 72
    17
 73
    13
 74
     0
 42
0.000000001
 43
0.0000000001
 40
0.0
 40
0.0
 40
0.0
 40
0.0
 40
1.0
 40
1.0
 40
1.0
 40
2.0
 40
2.0
 40
2.0
 40
3.0
 40
3.0
 40
3.0
 40
4.0
 40
4.0
 40
4.0
 40
4.0
 10
8.212680984696437
 20
2.296769924910399
 30
0.0
 10
8.232680984696433
 20
2.007881036021495
 30
0.0
 10
8.165736540251991
 20
1.713714369354823
 30
0.0
 10
8.199264172065893
 20
1.670847819166457
 30
0.0
 10
8.153097651363106
 20
1.589964369354825
 30
0.0
 10
8.26143098469644
 20
1.742464369354845
 30
0.0
 10
8.33254209580755
 20
1.911631036021491
 30
0.0
 10
8.432125429140871
 20
2.142186591577051
 30
0.0
 10
8.451014318029768
 20
2.400658813799281
 30
0.0
 10
8.415458762474207
 20
2.647325480465951
 30
0.0
 10
8.362264318029763
 20
2.522742147132602
 30
0.0
 10
8.290180984696437
 20
2.407464369354833
 30
0.0
 10
8.212680984696437
 20
2.296769924910399
 30
0.0
  0
SPLINE
  5
52
330
1F
100
AcDbEntity
  8
Layer 1
370
     0
100
AcDbSpline
210
0.0
220
0.0
230
1.0
 70
     9
 71
     3
 72
    17
 73
    13
 74
     0
 42
0.000000001
 43
0.0000000001
 40
0.0
 40
0.0
 40
0.0
 40
0.0
 40
1.0
 40
1.0
 40
1.0
 40
2.0
 40
2.0
 40
2.0
 40
3.0
 40
3.0
 40
3.0
 40
4.0
 40
4.0
 40
4.0
 40
4.0
 10
6.314486540251992
 20
2.320381036021495
 30
0.0
 10
6.403375429140876
 20
2.062047702688157
 30
0.0
 10
6.527264318029765
 20
1.813992147132618
 30
0.0
 10
6.696708762474206
 20
1.598992147132624
 30
0.0
 10
6.950597651363106
 20
1.654408813799288
 30
0.0
 10
7.194069873585325
 20
1.753992147132623
 30
0.0
 10
7.416708762474209
 20
1.887603258243719
 30
0.0
 10
7.318792095807541
 20
2.114964369354841
 30
0.0
 10
7.211153206918652
 20
2.337742147132606
 30
0.0
 10
7.099486540251985
 20
2.558575480465933
 30
0.0
 10
6.853236540251991
 20
2.436631036021505
 30
0.0
 10
6.586986540251992
 20
2.355519924910392
 30
0.0
 10
6.314486540251992
 20
2.320381036021495
 30
0.0
  0
SPLINE
  5
53
330
1F
100
AcDbEntity
  8
Layer 1
370
     0
100
AcDbSpline
210
0.0
220
0.0
230
1.0
 70
     9
 71
     3
 72
    17
 73
    13
 74
     0
 42
0.000000001
 43
0.0000000001
 40
0.0
 40
0.0
 40
0.0
 40
0.0
 40
1.0
 40
1.0
 40
1.0
 40
2.0
 40
2.0
 40
2.0
 40
3.0
 40
3.0
 40
3.0
 40
4.0
 40
4.0
 40
4.0
 40
4.0
 10
5.576193910283333
 20
2.24250223596327
 30
0.0
 10
5.58726431802976
 20
2.06190881379929
 30
0.0
 10
5.707819873585322
 20
1.78885325824371
 30
0.0
 10
5.827787429642884
 20
1.646612546830441
 30
0.0
 10
6.081985365550716
 20
1.596253786402067
 30
0.0
 10
6.271430984696432
 20
1.589618092274678
 30
0.0
 10
6.411426752017637
 20
1.622732421700723
 30
0.0
 10
6.282542095807545
 20
1.773158813799278
 30
0.0
 10
6.17004209580754
 20
2.034686591577054
 30
0.0
 10
6.110368853595177
 20
2.263580073356655
 30
0.0
 10
5.920597651363096
 20
2.253116827176196
 30
0.0
 10
5.740319873585324
 20
2.247902643077804
 30
0.0
 10
5.576193910283333
 20
2.24250223596327
 30
0.0
  0
SPLINE
  5
54
330
1F
100
AcDbEntity
  8
Layer 1
370
     0
100
AcDbSpline
210
0.0
220
0.0
230
1.0
 70
     9
 71
     3
 72
    17
 73
    13
 74
     0
 42
0.000000001
 43
0.0000000001
 40
0.0
 40
0.0
 40
0.0
 40
0.0
 40
1.0
 40
1.0
 40
1.0
 40
2.0
 40
2.0
 40
2.0
 40
3.0
 40
3.0
 40
3.0
 40
4.0
 40
4.0
 40
4.0
 40
4.0
 10
7.622958762474214
 20
1.772881036021494
 30
0.0
 10
7.667819873585321
 20
1.596214369354837
 30
0.0
 10
7.700458762474213
 20
1.416353258243715
 30
0.0
 10
7.797041570678104
 20
1.283929504743167
 30
0.0
 10
7.797542095807544
 20
1.283158813799269
 30
0.0
 10
7.8768476513631
 20
1.332881036021489
 30
0.0
 10
7.944903206918651
 20
1.395936591577057
 30
0.0
 10
8.013236540251986
 20
1.621075480465935
 30
0.0
 10
8.042958762474212
 20
1.858436591577047
 30
0.0
 10
8.036986540251985
 20
2.093714369354831
 30
0.0
 10
7.91337542914088
 20
1.969547702688159
 30
0.0
 10
7.773792095807542
 20
1.861769924910378
 30
0.0
 10
7.622958762474214
 20
1.772881036021494
 30
0.0
  0
SPLINE
  5
55
330
1F
100
AcDbEntity
  8
Layer 1
370
     0
100
AcDbSpline
210
0.0
220
0.0
230
1.0
 70
     9
 71
     3
 72
    17
 73
    13
 74
     0
 42
0.000000001
 43
0.0000000001
 40
0.0
 40
0.0
 40
0.0
 40
0.0
 40
1.0
 40
1.0
 40
1.0
 40
2.0
 40
2.0
 40
2.0
 40
3.0
 40
3.0
 40
3.0
 40
4.0
 40
4.0
 40
4.0
 40
4.0
 10
6.791847651363101
 20
1.492325480465954
 30
0.0
 10
6.9630976513631
 20
1.310519924910396
 30
0.0
 10
7.185458762474214
 20
1.183853258243718
 30
0.0
 10
7.419208762474213
 20
1.100658813799276
 30
0.0
 10
7.513653206918661
 20
1.132742147132603
 30
0.0
 10
7.605736540251982
 20
1.171908813799291
 30
0.0
 10
7.634711854316076
 20
1.190046340579334
 30
0.0
 10
7.629486540251996
 20
1.383019924910387
 30
0.0
 10
7.564764318029763
 20
1.544547702688179
 30
0.0
 10
7.496847651363105
 20
1.704686591577051
 30
0.0
 10
7.275875429140871
 20
1.594964369354834
 30
0.0
 10
7.036292095807539
 20
1.523992147132604
 30
0.0
 10
6.791847651363101
 20
1.492325480465954
 30
0.0
  0
SPLINE
  5
56
330
1F
100
AcDbEntity
  8
Layer 1
370
     0
100
AcDbSpline
210
0.0
220
0.0
230
1.0
 70
     9
 71
     3
 72
    17
 73
    13
 74
     0
 42
0.000000001
 43
0.0000000001
 40
0.0
 40
0.0
 40
0.0
 40
0.0
 40
1.0
 40
1.0
 40
1.0
 40
2.0
 40
2.0
 40
2.0
 40
3.0
 40
3.0
 40
3.0
 40
4.0
 40
4.0
 40
4.0
 40
4.0
 10
6.017279877859505
 20
1.428171967947509
 30
0.0
 10
6.127819873585317
 20
1.291075480465956
 30
0.0
 10
6.436430984696432
 20
1.095936591577052
 30
0.0
 10
6.77781987358532
 20
1.03885325824371
 30
0.0
 10
6.970875429140884
 20
1.005519924910383
 30
0.0
 10
7.168653206918659
 20
1.030519924910398
 30
0.0
 10
7.123027456129601
 20
1.075486286695485
 30
0.0
 10
7.055180984696435
 20
1.131631036021492
 30
0.0
 10
6.757819873585326
 20
1.253714369354839
 30
0.0
 10
6.540042095807545
 20
1.473992147132624
 30
0.0
 10
6.325597651363106
 20
1.419819178063943
 30
0.0
 10
6.16531379357333
 20
1.389092427155756
 30
0.0
 10
6.017279877859505
 20
1.428171967947509
 30
0.0
  0
SPLINE
  5
A1
330
1F
100
AcDbEntity
  8
Layer 1
370
     0
100
AcDbSpline
210
0.0
220
0.0
230
1.0
 70
     9
 71
     3
 72
   213
 73
   209
 74
     0
 42
0.000000001
 43
0.0000000001
 40
0.0
 40
0.0
 40
0.0
 40
0.0
 40
1.0
 40
1.0
 40
1.0
 40
2.0
 40
2.0
 40
2.0
 40
3.0
 40
3.0
 40
3.0
 40
4.0
 40
4.0
 40
4.0
 40
5.0
 40
5.0
 40
5.0
 40
6.0
 40
6.0
 40
6.0
 40
7.0
 40
7.0
 40
7.0
 40
8.0
 40
8.0
 40
8.0
 40
9.0
 40
9.0
 40
9.0
 40
10.0
 40
10.0
 40
10.0
 40
11.0
 40
11.0
 40
11.0
 40
12.0
 40
12.0
 40
12.0
 40
13.0
 40
13.0
 40
13.0
 40
14.0
 40
14.0
 40
14.0
 40
15.0
 40
15.0
 40
15.0
 40
16.0
 40
16.0
 40
16.0
 40
17.0
 40
17.0
 40
17.0
 40
18.0
 40
18.0
 40
18.0
 40
19.0
 40
19.0
 40
19.0
 40
20.0
 40
20.0
 40
20.0
 40
21.0
 40
21.0
 40
21.0
 40
22.0
 40
22.0
 40
22.0
 40
23.0
 40
23.0
 40
23.0
 40
24.0
 40
24.0
 40
24.0
 40
25.0
 40
25.0
 40
25.0
 40
26.0
 40
26.0
 40
26.0
 40
27.0
 40
27.0
 40
27.0
 40
28.0
 40
28.0
 40
28.0
 40
29.0
 40
29.0
 40
29.0
 40
30.0
 40
30.0
 40
30.0
 40
31.0
 40
31.0
 40
31.0
 40
32.0
 40
32.0
 40
32.0
 40
33.0
 40
33.0
 40
33.0
 40
34.0
 40
34.0
 40
34.0
 40
35.0
 40
35.0
 40
35.0
 40
36.0
 40
36.0
 40
36.0
 40
37.0
 40
37.0
 40
37.0
 40
38.0
 40
38.0
 40
38.0
 40
39.0
 40
39.0
 40
39.0
 40
40.0
 40
40.0
 40
40.0
 40
41.0
 40
41.0
 40
41.0
 40
42.0
 40
42.0
 40
42.0
 40
43.0
 40
43.0
 40
43.0
 40
44.0
 40
44.0
 40
44.0
 40
45.0
 40
45.0
 40
45.0
 40
46.0
 40
46.0
 40
46.0
 40
47.0
 40
47.0
 40
47.0
 40
48.0
 40
49.0
 40
49.0
 40
49.0
 40
50.0
 40
50.0
 40
50.0
 40
51.0
 40
51.0
 40
51.0
 40
52.0
 40
52.0
 40
52.0
 40
53.0
 40
53.0
 40
53.0
 40
54.0
 40
54.0
 40
54.0
 40
55.0
 40
55.0
 40
55.0
 40
56.0
 40
56.0
 40
56.0
 40
57.0
 40
57.0
 40
57.0
 40
58.0
 40
58.0
 40
58.0
 40
59.0
 40
59.0
 40
59.0
 40
60.0
 40
60.0
 40
60.0
 40
61.0
 40
61.0
 40
61.0
 40
62.0
 40
62.0
 40
62.0
 40
63.0
 40
63.0
 40
63.0
 40
64.0
 40
64.0
 40
64.0
 40
65.0
 40
65.0
 40
65.0
 40
66.0
 40
66.0
 40
66.0
 40
67.0
 40
67.0
 40
67.0
 40
68.0
 40
68.0
 40
68.0
 40
69.0
 40
69.0
 40
69.0
 40
70.0
 40
70.0
 40
70.0
 40
70.0
 10
-0.2792634597480073
 20
5.881353258243734
 30
0.0
 10
0.0221254291408791
 20
5.978853258243714
 30
0.0
 10
0.3379587624742093
 20
6.026214369354823
 30
0.0
 10
0.6536532069186542
 20
6.044408813799287
 30
0.0
 10
1.318375429140877
 20
6.085103258243734
 30
0.0
 10
1.982680984696433
 20
5.978297702688172
 30
0.0
 10
2.625042095807543
 20
5.813714369354834
 30
0.0
 10
3.402264318029765
 20
5.611214369354834
 30
0.0
 10
4.159764318029766
 20
5.319964369354843
 30
0.0
 10
4.856014318029767
 20
4.917186591577066
 30
0.0
 10
5.326569873585323
 20
4.641075480465941
 30
0.0
 10
5.773930984696434
 20
4.309964369354828
 30
0.0
 10
6.194476360129739
 20
4.057881864146064
 30
0.0
 10
6.556014318029762
 20
4.172881036021508
 30
0.0
 10
7.132125429140879
 20
4.228436591577064
 30
0.0
 10
7.614347651363105
 20
4.030797702688156
 30
0.0
 10
8.071430984696437
 20
3.84913103602149
 30
0.0
 10
8.433930984696429
 20
3.448297702688174
 30
0.0
 10
8.567542095807541
 20
2.974964369354843
 30
0.0
 10
8.705042095807545
 20
2.50607548046595
 30
0.0
 10
8.615736540251988
 20
1.977325480465955
 30
0.0
 10
8.328792095807544
 20
1.581353258243729
 30
0.0
 10
8.032819873585316
 20
1.162186591577059
 30
0.0
 10
7.529208762474214
 20
0.899269924910388
 30
0.0
 10
7.015319873585326
 20
0.9014921471326083
 30
0.0
 10
6.510458762474208
 20
0.8946865915770557
 30
0.0
 10
6.012264318029766
 20
1.14315881379927
 30
0.0
 10
5.711014318029771
 20
1.547881036021509
 30
0.0
 10
5.416569873585318
 20
1.932603258243715
 30
0.0
 10
5.312819873585326
 20
2.452742147132614
 30
0.0
 10
5.433097651363102
 20
2.921631036021506
 30
0.0
 10
5.528236540251982
 20
3.305242147132603
 30
0.0
 10
5.770736540251984
 20
3.649131036021495
 30
0.0
 10
5.937520244894924
 20
3.918982401843262
 30
0.0
 10
5.709903206918649
 20
4.188297702688158
 30
0.0
 10
5.29393098469643
 20
4.473297702688165
 30
0.0
 10
4.853097651363098
 20
4.714547702688175
 30
0.0
 10
4.552680984696431
 20
4.879408813799273
 30
0.0
 10
4.244347651363102
 20
5.030103258243721
 30
0.0
 10
3.930180984696435
 20
5.166769924910391
 30
0.0
 10
3.370180984696433
 20
5.406492147132616
 30
0.0
 10
2.782403206918654
 20
5.581214369354838
 30
0.0
 10
2.182264318029764
 20
5.685381036021504
 30
0.0
 10
1.573792095807542
 20
5.789547702688169
 30
0.0
 10
0.9501809846964366
 20
5.827603258243723
 30
0.0
 10
0.3360143180297666
 20
5.754269924910381
 30
0.0
 10
0.0494865402519875
 20
5.717186591577048
 30
0.0
 10
-0.2385690153035651
 20
5.658714369354835
 30
0.0
 10
-0.5016245708591213
 20
5.535519924910381
 30
0.0
 10
-0.6285690153035642
 20
5.473158813799273
 30
0.0
 10
-0.7560690153035682
 20
5.394269924910379
 30
0.0
 10
-0.8330134597480121
 20
5.271769924910383
 30
0.0
 10
-0.8848190153035677
 20
5.191353258243731
 30
0.0
 10
-0.8973190153035625
 20
5.087325480465956
 30
0.0
 10
-0.8642634597480121
 20
4.997325480465936
 30
0.0
 10
-0.8198190153035636
 20
4.874131036021505
 30
0.0
 10
-0.7235690153035659
 20
4.778714369354828
 30
0.0
 10
-0.6232912375257911
 20
4.698575480465933
 30
0.0
 10
-0.4537079041924573
 20
4.566353258243731
 30
0.0
 10
-0.2598190153035678
 20
4.469408813799266
 30
0.0
 10
-0.0631523486368969
 20
4.384131036021496
 30
0.0
 10
0.2554587624742149
 20
4.247464369354828
 30
0.0
 10
0.5880976513631014
 20
4.146631036021491
 30
0.0
 10
0.9224032069186591
 20
4.056631036021498
 30
0.0
 10
1.346292095807547
 20
4.294686591577046
 30
0.0
 10
1.805180984696435
 20
4.490658813799276
 30
0.0
 10
2.292264318029764
 20
4.544547702688177
 30
0.0
 10
2.510042095807547
 20
4.565936591577054
 30
0.0
 10
2.738792095807543
 20
4.561631036021505
 30
0.0
 10
2.942819873585323
 20
4.474269924910382
 30
0.0
 10
3.027542095807543
 20
4.43621436935483
 30
0.0
 10
3.111708762474209
 20
4.378436591577055
 30
0.0
 10
3.148514318029767
 20
4.289964369354846
 30
0.0
 10
3.179069873585326
 20
4.218019924910398
 30
0.0
 10
3.158514318029769
 20
4.133992147132604
 30
0.0
 10
3.111153206918653
 20
4.074547702688176
 30
0.0
 10
3.041292095807547
 20
3.985381036021508
 30
0.0
 10
2.937680984696434
 20
3.931075480465955
 30
0.0
 10
2.834208762474208
 20
3.890103258243721
 30
0.0
 10
2.656847651363099
 20
3.82301992491039
 30
0.0
 10
2.467403206918655
 20
3.794825480465937
 30
0.0
 10
2.279069873585322
 20
3.781214369354831
 30
0.0
 10
1.861153206918654
 20
3.75399214713262
 30
0.0
 10
1.442403206918653
 20
3.800936591577055
 30
0.0
 10
1.031153206918657
 20
3.873158813799287
 30
0.0
 10
0.8336532069186544
 20
3.749269924910397
 30
0.0
 10
0.6401809846964347
 20
3.612464369354837
 30
0.0
 10
0.4860143180297691
 20
3.435797702688179
 30
0.0
 10
0.3993476513630992
 20
3.33371436935484
 30
0.0
 10
0.3189309846964332
 20
3.212603258243713
 30
0.0
 10
0.3153198735853253
 20
3.074269924910392
 30
0.0
 10
0.3119865402519886
 20
2.9752421471326
 30
0.0
 10
0.371847651363099
 20
2.881908813799276
 30
0.0
 10
0.4576809846964364
 20
2.835242147132601
 30
0.0
 10
0.5897643180297666
 20
2.763019924910394
 30
0.0
 10
0.7435143180297688
 20
2.747047702688178
 30
0.0
 10
0.8912920958075446
 20
2.73885325824373
 30
0.0
 10
1.200180984696436
 20
2.727881036021496
 30
0.0
 10
1.509208762474214
 20
2.76774214713262
 30
0.0
 10
1.810319873585322
 20
2.834686591577059
 30
0.0
 10
1.917542095807542
 20
2.861214369354835
 30
0.0
 10
2.027264318029765
 20
2.885381036021497
 30
0.0
 10
2.126708762474208
 20
2.934408813799286
 30
0.0
 10
2.293792095807544
 20
3.177881036021491
 30
0.0
 10
2.488792095807543
 20
3.413019924910384
 30
0.0
 10
2.746847651363099
 20
3.564131036021509
 30
0.0
 10
2.854069873585323
 20
3.625381036021507
 30
0.0
 10
2.974347651363101
 20
3.674547702688161
 30
0.0
 10
3.099903206918654
 20
3.670797702688155
 30
0.0
 10
3.165458762474214
 20
3.668436591577068
 30
0.0
 10
3.238653206918658
 20
3.643575480465945
 30
0.0
 10
3.270875429140876
 20
3.581908813799272
 30
0.0
 10
3.304486540251987
 20
3.51565881379929
 30
0.0
 10
3.2793476513631
 20
3.438019924910399
 30
0.0
 10
3.243236540251991
 20
3.378297702688162
 30
0.0
 10
3.172542095807544
 20
3.264547702688155
 30
0.0
 10
3.063375429140876
 20
3.181492147132606
 30
0.0
 10
2.951986540251986
 20
3.110381036021508
 30
0.0
 10
2.736292095807546
 20
2.976908813799278
 30
0.0
 10
2.496430984696435
 20
2.887464369354827
 30
0.0
 10
2.253792095807542
 20
2.816631036021488
 30
0.0
 10
2.239903206918654
 20
2.810797702688179
 30
0.0
 10
2.219764318029768
 20
2.810658813799287
 30
0.0
 10
2.213653206918654
 20
2.79399214713261
 30
0.0
 10
2.124347651363102
 20
2.628019924910379
 30
0.0
 10
2.040042095807544
 20
2.455519924910377
 30
0.0
 10
2.003514318029765
 20
2.269269924910379
 30
0.0
 10
1.983375429140879
 20
2.162464369354843
 30
0.0
 10
1.983097651363101
 20
2.036769924910383
 30
0.0
 10
2.060042095807545
 20
1.951075480465938
 30
0.0
 10
2.143236540251987
 20
1.860658813799267
 30
0.0
 10
2.275180984696431
 20
1.844964369354834
 30
0.0
 10
2.391430984696437
 20
1.84579770268816
 30
0.0
 10
2.692958762474214
 20
1.853714369354823
 30
0.0
 10
2.983792095807542
 20
1.954825480465943
 30
0.0
 10
3.251430984696437
 20
2.088297702688174
 30
0.0
 10
3.448653206918656
 20
2.188297702688159
 30
0.0
 10
3.638097651363105
 20
2.305381036021495
 30
0.0
 10
3.811569873585324
 20
2.442742147132623
 30
0.0
 10
3.813930984696437
 20
2.504547702688164
 30
0.0
 10
3.82101431802976
 20
2.566214369354838
 30
0.0
 10
3.819347651363096
 20
2.673752557566171
 30
0.0
 10
3.678176037062611
 20
2.50592226824072
 30
0.0
 10
3.614347651363106
 20
2.578436591577049
 30
0.0
 10
3.502542095807547
 20
2.69065881379927
 30
0.0
 10
3.391569873585321
 20
2.803992147132602
 30
0.0
 10
3.84143098469643
 20
2.948297702688174
 30
0.0
 10
4.290875429140883
 20
3.093436591577048
 30
0.0
 10
4.740458762474214
 20
3.238297702688162
 30
0.0
 10
4.59351431802977
 20
2.868853258243714
 30
0.0
 10
4.447680984696437
 20
2.498714369354829
 30
0.0
 10
4.300180984696428
 20
2.129408813799273
 30
0.0
 10
4.148514318029773
 20
2.214131036021499
 30
0.0
 10
3.995736540251994
 20
2.297186591577049
 30
0.0
 10
3.914121063067281
 20
2.341167065716802
 30
0.0
 10
3.679486540251988
 20
2.223992147132623
 30
0.0
 10
3.489486540251991
 20
2.098575480465948
 30
0.0
 10
3.290736540251991
 20
1.993019924910388
 30
0.0
 10
3.077264318029764
 20
1.88107548046595
 30
0.0
 10
2.851292095807542
 20
1.790936591577064
 30
0.0
 10
2.61601431802977
 20
1.737881036021513
 30
0.0
 10
2.447403206918654
 20
1.701492147132612
 30
0.0
 10
2.269903206918659
 20
1.679408813799278
 30
0.0
 10
2.100180984696432
 20
1.720519924910401
 30
0.0
 10
1.999764318029765
 20
1.744825480465958
 30
0.0
 10
1.902542095807543
 20
1.804269924910385
 30
0.0
 10
1.855597651363103
 20
1.899269924910388
 30
0.0
 10
1.800458762474211
 20
2.006631036021492
 30
0.0
 10
1.807680984696433
 20
2.13329770268817
 30
0.0
 10
1.830875429140879
 20
2.248158813799288
 30
0.0
 10
1.869903206918655
 20
2.428436591577059
 30
0.0
 10
1.948375429140879
 20
2.597325480465946
 30
0.0
 10
2.035875429140875
 20
2.758714369354846
 30
0.0
 10
1.744903206918655
 20
2.67343659157705
 30
0.0
 10
1.443792095807546
 20
2.622881036021504
 30
0.0
 10
1.141014318029766
 20
2.607186591577045
 30
0.0
 10
0.926708762474214
 20
2.59801992491038
 30
0.0
 10
0.707819873585322
 20
2.604408813799282
 30
0.0
 10
0.5007365402519908
 20
2.665797702688173
 30
0.0
 10
0.3697643180297643
 20
2.704131036021509
 30
0.0
 10
0.2465698735853214
 20
2.77774214713261
 30
0.0
 10
0.1633754291408801
 20
2.887464369354827
 30
0.0
 10
0.1079587624742102
 20
2.959547702688167
 30
0.0
 10
0.0790698735853223
 20
3.052186591577057
 30
0.0
 10
0.0883754291408789
 20
3.143019924910377
 30
0.0
 10
0.098514318029768
 20
3.257325480465953
 30
0.0
 10
0.1547643180297705
 20
3.361214369354836
 30
0.0
 10
0.2197643180297683
 20
3.453297702688157
 30
0.0
 10
0.3574032069186551
 20
3.643575480465945
 30
0.0
 10
0.5415698735853249
 20
3.792325480465933
 30
0.0
 10
0.7249032069186557
 20
3.936075480465937
 30
0.0
 10
0.4880976513631038
 20
3.984825480465941
 30
0.0
 10
0.2589309846964372
 20
4.063297702688158
 30
0.0
 10
0.0324032069186539
 20
4.146769924910383
 30
0.0
 10
-0.2432912375257894
 20
4.241353258243736
 30
0.0
 10
-0.5170412375257899
 20
4.354131036021498
 30
0.0
 10
-0.754124570859119
 20
4.526492147132608
 30
0.0
 10
-0.8894023486369
 20
4.626353258243726
 30
0.0
 10
-1.015374570859117
 20
4.749131036021505
 30
0.0
 10
-1.082874570859119
 20
4.905797702688156
 30
0.0
 10
-1.129124570859118
 20
5.012325480465934
 30
0.0
 10
-1.138430126414676
 20
5.135103258243714
 30
0.0
 10
-1.103291237525789
 20
5.246214369354825
 30
0.0
 10
-1.061207904192454
 20
5.382325480465952
 30
0.0
 10
-0.9655134597480115
 20
5.495103258243715
 30
0.0
 10
-0.8571801264146756
 20
5.584408813799276
 30
0.0
 10
-0.6877356819702336
 20
5.722186591577054
 30
0.0
 10
-0.4855134597480122
 20
5.813297702688158
 30
0.0
 10
-0.2792634597480073
 20
5.881353258243734
 30
0.0
  0
ENDSEC
  0
SECTION
  2
OBJECTS
  0
DICTIONARY
  5
C
330
0
100
AcDbDictionary
281
     1
  3
ACAD_CIP_PREVIOUS_PRODUCT_INFO
350
98
  3
ACAD_COLOR
350
7D
  3
ACAD_DETAILVIEWSTYLE
350
94
  3
ACAD_GROUP
350
D
  3
ACAD_LAYOUT
350
1A
  3
ACAD_MATERIAL
350
3B
  3
ACAD_MLEADERSTYLE
350
70
  3
ACAD_MLINESTYLE
350
17
  3
ACAD_PLOTSETTINGS
350
19
  3
ACAD_PLOTSTYLENAME
350
E
  3
ACAD_SCALELIST
350
7F
  3
ACAD_SECTIONVIEWSTYLE
350
92
  3
ACAD_TABLESTYLE
350
6F
  3
ACAD_VISUALSTYLE
350
2A
  3
ACDB_RECOMPOSE_DATA
350
160
  3
AcDbVariableDictionary
350
C7
  3
AcDsDecomposeData
350
166
  0
SUN
  5
3F
330
29
100
AcDbSun
 90
        1
290
     1
 63
     7
421
 16777215
 40
1.0
291
     1
 91
  2455826
 92
 54000000
292
     0
 70
     0
 71
   256
280
     1
1001
ACAD
1000
AcDbSavedByObjectVersion
1070
     0
  0
DICTIONARY
  5
AE
330
2
100
AcDbDictionary
280
     1
281
     1
  3
ACAD_LAYERSTATES
360
AF
  0
DICTIONARY
  5
A2
330
1F
100
AcDbDictionary
280
     1
281
     1
  3
ACAD_SORTENTS
360
A3
  0
XRECORD
  5
98
102
{ACAD_REACTORS
330
C
102
}
330
C
100
AcDbXrecord
280
     1
300
ACD
300
2018
300

  0
DICTIONARY
  5
7D
102
{ACAD_REACTORS
330
C
102
}
330
C
100
AcDbDictionary
281
     1
  0
DICTIONARY
  5
94
102
{ACAD_REACTORS
330
C
102
}
330
C
100
AcDbDictionary
281
     1
  3
Imperial24
350
95
  0
DICTIONARY
  5
D
102
{ACAD_REACTORS
330
C
102
}
330
C
100
AcDbDictionary
281
     1
  0
DICTIONARY
  5
1A
102
{ACAD_REACTORS
330
C
102
}
330
C
100
AcDbDictionary
281
     1
  3
Layout1
350
1E
  3
Layout2
350
26
  3
Model
350
22
  0
DICTIONARY
  5
3B
102
{ACAD_REACTORS
330
C
102
}
330
C
100
AcDbDictionary
281
     1
  3
ByBlock
350
3D
  3
ByLayer
350
3C
  3
Global
350
3E
  0
DICTIONARY
  5
70
102
{ACAD_REACTORS
330
C
102
}
330
C
100
AcDbDictionary
281
     1
  3
Standard
350
91
  0
DICTIONARY
  5
17
102
{ACAD_REACTORS
330
C
102
}
330
C
100
AcDbDictionary
281
     1
  3
Standard
350
18
  0
DICTIONARY
  5
19
102
{ACAD_REACTORS
330
C
102
}
330
C
100
AcDbDictionary
281
     1
  0
ACDBDICTIONARYWDFLT
  5
E
102
{ACAD_REACTORS
330
C
102
}
330
C
100
AcDbDictionary
281
     1
  3
Normal
350
F
100
AcDbDictionaryWithDefault
340
F
  0
DICTIONARY
  5
7F
102
{ACAD_REACTORS
330
C
102
}
330
C
100
AcDbDictionary
281
     1
  3
A0
350
80
  3
A1
350
81
  3
A2
350
82
  3
A3
350
83
  3
A4
350
84
  3
A5
350
85
  3
A6
350
86
  3
A7
350
87
  3
A8
350
88
  3
A9
350
89
  3
B0
350
8A
  3
B1
350
8B
  3
B2
350
8C
  3
B3
350
8D
  3
B4
350
8E
  3
B5
350
8F
  3
B6
350
90
  0
DICTIONARY
  5
92
102
{ACAD_REACTORS
330
C
102
}
330
C
100
AcDbDictionary
281
     1
  3
Imperial24
350
93
  0
DICTIONARY
  5
6F
102
{ACAD_REACTORS
330
C
102
}
330
C
100
AcDbDictionary
281
     1
  3
Standard
350
7E
  0
DICTIONARY
  5
2A
102
{ACAD_REACTORS
330
C
102
}
330
C
100
AcDbDictionary
281
     1
  3
2dWireframe
350
2F
  3
3D Hidden
350
31
  3
3dWireframe
350
30
  3
Basic
350
32
  3
Brighten
350
36
  3
ColorChange
350
3A
  3
Conceptual
350
34
  3
Dim
350
35
  3
EdgeColorOff
350
7C
  3
Facepattern
350
39
  3
Flat
350
2B
  3
FlatWithEdges
350
2C
  3
Gouraud
350
2D
  3
GouraudWithEdges
350
2E
  3
Hidden
350
74
  3
JitterOff
350
7A
  3
Linepattern
350
38
  3
OverhangOff
350
7B
  3
Realistic
350
33
  3
Shaded
350
79
  3
Shaded with edges
350
78
  3
Shades of Gray
350
75
  3
Sketchy
350
76
  3
Thicken
350
37
  3
Wireframe
350
73
  3
X-Ray
350
77
  0
XRECORD
  5
160
102
{ACAD_REACTORS
330
C
102
}
330
C
100
AcDbXrecord
280
     1
 90
        1
330
7E
  0
DICTIONARY
  5
C7
102
{ACAD_REACTORS
330
C
102
}
330
C
100
AcDbDictionary
281
     1
  3
CANNOSCALE
350
CC
  3
CMLEADERSTYLE
350
C9
  3
CTABLESTYLE
350
C8
  3
CVIEWDETAILSTYLE
350
CA
  3
CVIEWSECTIONSTYLE
350
CB
  0
DICTIONARY
  5
166
102
{ACAD_REACTORS
330
C
102
}
330
C
100
AcDbDictionary
281
     1
  3
AcDsRecords
350
168
  3
AcDsSchemas
350
167
1001
ACAD
1070
     2
  0
DICTIONARY
  5
AF
102
{ACAD_REACTORS
330
AE
102
}
330
AE
100
AcDbDictionary
281
     1
  0
SORTENTSTABLE
  5
A3
102
{ACAD_REACTORS
330
A2
102
}
330
A2
100
AcDbSortentsTable
330
1F
331
49
  5
4A
331
54
  5
55
331
55
  5
56
331
52
  5
53
331
53
  5
54
331
50
  5
51
331
51
  5
52
331
A1
  5
46
331
4E
  5
4F
331
4F
  5
50
331
4C
  5
4D
331
4D
  5
4E
331
4A
  5
4B
331
46
  5
47
331
4B
  5
4C
331
47
  5
48
331
56
  5
A1
331
48
  5
49
  0
ACDBDETAILVIEWSTYLE
  5
95
102
{ACAD_XDICTIONARY
360
16B
102
}
102
{ACAD_REACTORS
330
94
102
}
330
94
100
AcDbModelDocViewStyle
 70
     0
  3
Imperial24
290
     0
100
AcDbDetailViewStyle
 70
     0
 71
     0
 90
        3
 71
     1
340
11
 62
   256
 40
0.24
340
0
 62
   256
 40
0.24
300

 40
0.36
280
     3
 71
     2
340
16
 90
       25
 62
   256
 71
     3
340
11
 62
   256
 40
0.24
 90
        1
 40
0.75
 90
        1
300
%<\AcVar ViewType \f "%tc1">% %<\AcVar ViewDetailId>%\PSCALE %<\AcVar ViewScale \f "%sn">%
 71
     4
340
16
 90
       25
 62
   256
340
16
 90
       25
 62
   256
280
     0
  0
LAYOUT
  5
1E
102
{ACAD_REACTORS
330
1A
102
}
330
1A
100
AcDbPlotSettings
  1

  2
none_device
  4

  6

 40
0.0
 41
0.0
 42
0.0
 43
0.0
 44
0.0
 45
0.0
 46
0.0
 47
0.0
 48
0.0
 49
0.0
140
0.0
141
0.0
142
1.0
143
1.0
 70
   688
 72
     0
 73
     0
 74
     5
  7

 75
    16
147
1.0
 76
     0
 77
     2
 78
   300
148
0.0
149
0.0
100
AcDbLayout
  1
Layout1
 70
     1
 71
     1
 10
0.0
 20
0.0
 11
12.0
 21
9.0
 12
0.0
 22
0.0
 32
0.0
 14
1.000000000000000E+20
 24
1.000000000000000E+20
 34
1.000000000000000E+20
 15
-1.000000000000000E+20
 25
-1.000000000000000E+20
 35
-1.000000000000000E+20
146
0.0
 13
0.0
 23
0.0
 33
0.0
 16
1.0
 26
0.0
 36
0.0
 17
0.0
 27
1.0
 37
0.0
 76
     0
330
1B
  0
LAYOUT
  5
26
102
{ACAD_REACTORS
330
1A
102
}
330
1A
100
AcDbPlotSettings
  1

  2
none_device
  4

  6

 40
0.0
 41
0.0
 42
0.0
 43
0.0
 44
0.0
 45
0.0
 46
0.0
 47
0.0
 48
0.0
 49
0.0
140
0.0
141
0.0
142
1.0
143
1.0
 70
   688
 72
     0
 73
     0
 74
     5
  7

 75
    16
147
1.0
 76
     0
 77
     2
 78
   300
148
0.0
149
0.0
100
AcDbLayout
  1
Layout2
 70
     1
 71
     2
 10
0.0
 20
0.0
 11
0.0
 21
0.0
 12
0.0
 22
0.0
 32
0.0
 14
0.0
 24
0.0
 34
0.0
 15
0.0
 25
0.0
 35
0.0
146
0.0
 13
0.0
 23
0.0
 33
0.0
 16
1.0
 26
0.0
 36
0.0
 17
0.0
 27
1.0
 37
0.0
 76
     0
330
23
  0
LAYOUT
  5
22
102
{ACAD_REACTORS
330
1A
102
}
330
1A
100
AcDbPlotSettings
  1

  2
none_device
  4

  6

 40
0.0
 41
0.0
 42
0.0
 43
0.0
 44
0.0
 45
0.0
 46
0.0
 47
0.0
 48
0.0
 49
0.0
140
0.0
141
0.0
142
1.0
143
1.0
 70
  1712
 72
     0
 73
     0
 74
     0
  7

 75
     0
147
1.0
 76
     0
 77
     2
 78
   300
148
0.0
149
0.0
100
AcDbLayout
  1
Model
 70
     1
 71
     0
 10
0.0
 20
0.0
 11
12.0
 21
9.0
 12
0.0
 22
0.0
 32
0.0
 14
1.000000000000000E+20
 24
1.000000000000000E+20
 34
1.000000000000000E+20
 15
-1.000000000000000E+20
 25
-1.000000000000000E+20
 35
-1.000000000000000E+20
146
0.0
 13
0.0
 23
0.0
 33
0.0
 16
1.0
 26
0.0
 36
0.0
 17
0.0
 27
1.0
 37
0.0
 76
     0
330
1F
331
29
  0
MATERIAL
  5
3D
102
{ACAD_REACTORS
330
3B
102
}
330
3B
100
AcDbMaterial
  1
ByBlock
  0
MATERIAL
  5
3C
102
{ACAD_REACTORS
330
3B
102
}
330
3B
100
AcDbMaterial
  1
ByLayer
  0
MATERIAL
  5
3E
102
{ACAD_REACTORS
330
3B
102
}
330
3B
100
AcDbMaterial
  1
Global
  0
MLEADERSTYLE
  5
91
102
{ACAD_REACTORS
330
70
102
}
330
70
100
AcDbMLeaderStyle
179
     2
170
     2
171
     1
172
     0
 90
        2
 40
0.0
 41
0.0
173
     1
 91
-1056964608
340
14
 92
       -2
290
     1
 42
0.09
291
     1
 43
0.36
  3
Standard
 44
0.18
300

342
11
174
     1
178
     6
175
     1
176
     0
 93
-1056964608
 45
0.18
292
     0
297
     0
 46
0.18
 94
-1056964608
 47
1.0
 49
1.0
140
1.0
293
     1
141
0.0
294
     1
177
     0
142
1.0
295
     0
296
     0
143
0.125
271
     0
272
     9
273
     9
298
     0
  0
MLINESTYLE
  5
18
102
{ACAD_REACTORS
330
17
102
}
330
17
100
AcDbMlineStyle
  2
STANDARD
 70
     0
  3

 62
   256
 51
90.0
 52
90.0
 71
     2
 49
0.5
 62
   256
  6
BYLAYER
 49
-0.5
 62
   256
  6
BYLAYER
  0
ACDBPLACEHOLDER
  5
F
102
{ACAD_REACTORS
330
E
102
}
330
E
  0
SCALE
  5
80
102
{ACAD_REACTORS
330
7F
102
}
330
7F
100
AcDbScale
 70
     0
300
1:1
140
1.0
141
1.0
290
     1
  0
SCALE
  5
81
102
{ACAD_REACTORS
330
7F
102
}
330
7F
100
AcDbScale
 70
     0
300
1/128" = 1'-0"
140
0.0078125
141
12.0
290
     0
  0
SCALE
  5
82
102
{ACAD_REACTORS
330
7F
102
}
330
7F
100
AcDbScale
 70
     0
300
1/64" = 1'-0"
140
0.015625
141
12.0
290
     0
  0
SCALE
  5
83
102
{ACAD_REACTORS
330
7F
102
}
330
7F
100
AcDbScale
 70
     0
300
1/32" = 1'-0"
140
0.03125
141
12.0
290
     0
  0
SCALE
  5
84
102
{ACAD_REACTORS
330
7F
102
}
330
7F
100
AcDbScale
 70
     0
300
1/16" = 1'-0"
140
0.0625
141
12.0
290
     0
  0
SCALE
  5
85
102
{ACAD_REACTORS
330
7F
102
}
330
7F
100
AcDbScale
 70
     0
300
3/32" = 1'-0"
140
0.09375
141
12.0
290
     0
  0
SCALE
  5
86
102
{ACAD_REACTORS
330
7F
102
}
330
7F
100
AcDbScale
 70
     0
300
1/8" = 1'-0"
140
0.125
141
12.0
290
     0
  0
SCALE
  5
87
102
{ACAD_REACTORS
330
7F
102
}
330
7F
100
AcDbScale
 70
     0
300
3/16" = 1'-0"
140
0.1875
141
12.0
290
     0
  0
SCALE
  5
88
102
{ACAD_REACTORS
330
7F
102
}
330
7F
100
AcDbScale
 70
     0
300
1/4" = 1'-0"
140
0.25
141
12.0
290
     0
  0
SCALE
  5
89
102
{ACAD_REACTORS
330
7F
102
}
330
7F
100
AcDbScale
 70
     0
300
3/8" = 1'-0"
140
0.375
141
12.0
290
     0
  0
SCALE
  5
8A
102
{ACAD_REACTORS
330
7F
102
}
330
7F
100
AcDbScale
 70
     0
300
1/2" = 1'-0"
140
0.5
141
12.0
290
     0
  0
SCALE
  5
8B
102
{ACAD_REACTORS
330
7F
102
}
330
7F
100
AcDbScale
 70
     0
300
3/4" = 1'-0"
140
0.75
141
12.0
290
     0
  0
SCALE
  5
8C
102
{ACAD_REACTORS
330
7F
102
}
330
7F
100
AcDbScale
 70
     0
300
1" = 1'-0"
140
1.0
141
12.0
290
     0
  0
SCALE
  5
8D
102
{ACAD_REACTORS
330
7F
102
}
330
7F
100
AcDbScale
 70
     0
300
1-1/2" = 1'-0"
140
1.5
141
12.0
290
     0
  0
SCALE
  5
8E
102
{ACAD_REACTORS
330
7F
102
}
330
7F
100
AcDbScale
 70
     0
300
3" = 1'-0"
140
3.0
141
12.0
290
     0
  0
SCALE
  5
8F
102
{ACAD_REACTORS
330
7F
102
}
330
7F
100
AcDbScale
 70
     0
300
6" = 1'-0"
140
6.0
141
12.0
290
     0
  0
SCALE
  5
90
102
{ACAD_REACTORS
330
7F
102
}
330
7F
100
AcDbScale
 70
     0
300
1'-0" = 1'-0"
140
12.0
141
12.0
290
     0
  0
ACDBSECTIONVIEWSTYLE
  5
93
102
{ACAD_XDICTIONARY
360
169
102
}
102
{ACAD_REACTORS
330
92
102
}
330
92
100
AcDbModelDocViewStyle
 70
     0
  3
Imperial24
290
     0
100
AcDbSectionViewStyle
 70
     0
 71
     0
 90
       78
 71
     1
340
11
 62
   256
 40
0.24
340
0
340
0
 62
   256
 40
0.24
300
I, O, Q, S, X, Z
 40
0.48
 90
        3
 40
0.18
 90
        1
 71
     2
340
16
 90
       25
 62
   256
340
16
 90
       50
 62
   256
 40
0.24
 40
0.0
 40
0.24
 71
     3
340
11
 62
   256
 40
0.24
 90
        1
 40
0.75
 90
        1
300
%<\AcVar ViewType \f "%tc1">% %<\AcVar ViewSectionStartId>%-%<\AcVar ViewSectionEndId>%\PSCALE %<\AcVar ViewScale \f "%sn">%
 71
     4
 62
   256
 62
   257
300
ANSI31
 40
1.0
 90
        0
290
     0
290
     0
 90
        6
 40
0.0
 40
1.570796326794896
 40
0.2617993877991494
 40
1.308996938995747
 40
-0.2617993877991494
 40
1.832595714594046
  0
TABLESTYLE
  5
7E
102
{ACAD_XDICTIONARY
360
15E
102
}
102
{ACAD_REACTORS
330
6F
102
}
330
6F
100
AcDbTableStyle
280
     0
  3
Standard
 70
     0
 71
     0
 40
0.06
 41
0.06
280
     0
281
     0
  7
Standard
140
0.18
170
     2
 62
     0
 63
     7
283
     0
 90
      512
 91
        0
  1

274
    -2
284
     1
 64
     0
275
    -2
285
     1
 65
     0
276
    -2
286
     1
 66
     0
277
    -2
287
     1
 67
     0
278
    -2
288
     1
 68
     0
279
    -2
289
     1
 69
     0
  7
Standard
140
0.25
170
     5
 62
     0
 63
     7
283
     0
 90
      512
 91
        0
  1

274
    -2
284
     1
 64
     0
275
    -2
285
     1
 65
     0
276
    -2
286
     1
 66
     0
277
    -2
287
     1
 67
     0
278
    -2
288
     1
 68
     0
279
    -2
289
     1
 69
     0
  7
Standard
140
0.18
170
     5
 62
     0
 63
     7
283
     0
 90
      512
 91
        0
  1

274
    -2
284
     1
 64
     0
275
    -2
285
     1
 65
     0
276
    -2
286
     1
 66
     0
277
    -2
287
     1
 67
     0
278
    -2
288
     1
 68
     0
279
    -2
289
     1
 69
     0
  0
VISUALSTYLE
  5
2F
102
{ACAD_REACTORS
330
2A
102
}
330
2A
100
AcDbVisualStyle
  2
2dWireframe
 70
     4
177
     3
291
     0
 70
    58
 90
        0
176
     1
 90
        2
176
     1
 90
        0
176
     1
 90
        0
176
     1
 40
0.6
176
     1
 40
30.0
176
     1
 62
     7
420
 16777215
176
     1
 90
        1
176
     1
 90
        4
176
     1
 62
     7
176
     1
 62
   257
176
     1
 90
        1
176
     1
 90
        1
176
     1
 40
1.0
176
     1
 90
        0
176
     1
 62
   257
176
     1
 40
1.0
176
     1
 90
        1
176
     1
 90
        6
176
     1
 90
        2
176
     1
 62
     7
176
     1
 90
        5
176
     1
 90
        0
176
     1
 90
        0
176
     1
290
     0
176
     1
 90
        1
176
     1
 40
0.0
176
     1
 90
        0
176
     1
290
     1
176
     1
290
     1
176
     1
290
     0
176
     1
290
     0
176
     1
290
     0
176
     1
290
     0
176
     1
290
     0
176
     1
290
     0
176
     1
290
     0
176
     1
 90
       50
176
     1
 40
0.0
176
     1
 40
1.0
176
     1
 90
        0
176
     1
 62
    18
420
        0
176
     1
 90
       50
176
     1
 90
        3
176
     1
 62
     5
420
      255
176
     1
290
     0
176
     1
 90
       50
176
     1
 90
       50
176
     1
 90
       50
176
     1
290
     0
176
     1
 90
       50
176
     1
 62
   256
176
     0
 40
1.0
176
     0
 90
        2
176
     1
  1
strokes_ogs.tif
176
     1
290
     0
176
     1
 40
1.0
176
     1
 40
1.0
176
     1
1001
ACAD
1000
AcDbSavedByObjectVersion
1070
     0
  0
VISUALSTYLE
  5
31
102
{ACAD_REACTORS
330
2A
102
}
330
2A
100
AcDbVisualStyle
  2
3D Hidden
 70
     6
177
     3
291
     0
 70
    58
 90
        1
176
     1
 90
        2
176
     1
 90
        2
176
     1
 90
        0
176
     1
 40
0.6
176
     1
 40
30.0
176
     1
 62
     7
420
 16777215
176
     1
 90
        2
176
     1
 90
        2
176
     1
 62
     7
176
     1
 62
   257
176
     1
 90
        2
176
     1
 90
        1
176
     1
 40
40.0
176
     1
 90
        0
176
     1
 62
   257
176
     1
 40
1.0
176
     1
 90
        1
176
     1
 90
        6
176
     1
 90
        2
176
     1
 62
     7
176
     1
 90
        3
176
     1
 90
        0
176
     1
 90
        0
176
     1
290
     0
176
     1
 90
        1
176
     1
 40
0.0
176
     1
 90
        0
176
     1
290
     0
176
     1
290
     1
176
     1
290
     1
176
     1
290
     0
176
     1
290
     0
176
     1
290
     0
176
     1
290
     0
176
     1
290
     0
176
     1
290
     0
176
     1
 90
       50
176
     1
 40
0.0
176
     1
 40
1.0
176
     1
 90
        0
176
     1
 62
    18
420
        0
176
     1
 90
       50
176
     1
 90
        3
176
     1
 62
     5
420
      255
176
     1
290
     0
176
     1
 90
       50
176
     1
 90
       50
176
     1
 90
       50
176
     1
290
     0
176
     1
 90
       50
176
     1
 62
   256
176
     0
 40
1.0
176
     0
 90
        2
176
     1
  1
strokes_ogs.tif
176
     1
290
     0
176
     1
 40
1.0
176
     1
 40
1.0
176
     1
1001
ACAD
1000
AcDbSavedByObjectVersion
1070
     0
  0
VISUALSTYLE
  5
30
102
{ACAD_REACTORS
330
2A
102
}
330
2A
100
AcDbVisualStyle
  2
3dWireframe
 70
     5
177
     3
291
     0
 70
    58
 90
        0
176
     1
 90
        2
176
     1
 90
        0
176
     1
 90
        0
176
     1
 40
0.6
176
     1
 40
30.0
176
     1
 62
     7
420
 16777215
176
     1
 90
        1
176
     1
 90
        4
176
     1
 62
     7
176
     1
 62
   257
176
     1
 90
        1
176
     1
 90
        1
176
     1
 40
1.0
176
     1
 90
        0
176
     1
 62
   257
176
     1
 40
1.0
176
     1
 90
        1
176
     1
 90
        6
176
     1
 90
        2
176
     1
 62
     7
176
     1
 90
        5
176
     1
 90
        0
176
     1
 90
        0
176
     1
290
     0
176
     1
 90
        1
176
     1
 40
0.0
176
     1
 90
        0
176
     1
290
     0
176
     1
290
     1
176
     1
290
     1
176
     1
290
     0
176
     1
290
     0
176
     1
290
     0
176
     1
290
     0
176
     1
290
     0
176
     1
290
     0
176
     1
 90
       50
176
     1
 40
0.0
176
     1
 40
1.0
176
     1
 90
        0
176
     1
 62
    18
420
        0
176
     1
 90
       50
176
     1
 90
        3
176
     1
 62
     5
420
      255
176
     1
290
     0
176
     1
 90
       50
176
     1
 90
       50
176
     1
 90
       50
176
     1
290
     0
176
     1
 90
       50
176
     1
 62
   256
176
     0
 40
1.0
176
     0
 90
        2
176
     1
  1
strokes_ogs.tif
176
     1
290
     0
176
     1
 40
1.0
176
     1
 40
1.0
176
     1
1001
ACAD
1000
AcDbSavedByObjectVersion
1070
     0
  0
VISUALSTYLE
  5
32
102
{ACAD_REACTORS
330
2A
102
}
330
2A
100
AcDbVisualStyle
  2
Basic
 70
     7
177
     3
291
     1
 70
    58
 90
        1
176
     1
 90
        0
176
     1
 90
        1
176
     1
 90
        0
176
     1
 40
0.6
176
     1
 40
30.0
176
     1
 62
     7
420
 16777215
176
     1
 90
        0
176
     1
 90
        4
176
     1
 62
     7
176
     1
 62
   257
176
     1
 90
        1
176
     1
 90
        1
176
     1
 40
1.0
176
     1
 90
        8
176
     1
 62
     7
176
     1
 40
1.0
176
     1
 90
        1
176
     1
 90
        6
176
     1
 90
        2
176
     1
 62
     7
176
     1
 90
        5
176
     1
 90
        0
176
     1
 90
        0
176
     1
290
     0
176
     1
 90
        1
176
     1
 40
0.0
176
     1
 90
        0
176
     1
290
     0
176
     1
290
     1
176
     1
290
     1
176
     1
290
     0
176
     1
290
     0
176
     1
290
     0
176
     1
290
     0
176
     1
290
     0
176
     1
290
     0
176
     1
 90
       50
176
     1
 40
0.0
176
     1
 40
1.0
176
     1
 90
        0
176
     1
 62
    18
420
        0
176
     1
 90
       50
176
     1
 90
        3
176
     1
 62
     5
420
      255
176
     1
290
     0
176
     1
 90
       50
176
     1
 90
       50
176
     1
 90
       50
176
     1
290
     0
176
     1
 90
       50
176
     1
 62
   256
176
     0
 40
1.0
176
     0
 90
        2
176
     1
  1
strokes_ogs.tif
176
     1
290
     0
176
     1
 40
1.0
176
     1
 40
1.0
176
     1
1001
ACAD
1000
AcDbSavedByObjectVersion
1070
     0
  0
VISUALSTYLE
  5
36
102
{ACAD_REACTORS
330
2A
102
}
330
2A
100
AcDbVisualStyle
  2
Brighten
 70
    12
177
     3
291
     1
 70
    58
 90
        2
176
     1
 90
        2
176
     1
 90
        0
176
     1
 90
        0
176
     1
 40
0.6
176
     1
 40
30.0
176
     1
 62
     7
420
 16777215
176
     1
 90
        1
176
     1
 90
        4
176
     1
 62
     7
176
     1
 62
   257
176
     1
 90
        1
176
     1
 90
        1
176
     1
 40
1.0
176
     1
 90
        8
176
     1
 62
     7
176
     1
 40
1.0
176
     1
 90
        1
176
     1
 90
        6
176
     1
 90
        2
176
     1
 62
     7
176
     1
 90
        5
176
     1
 90
        0
176
     1
 90
        0
176
     1
290
     0
176
     1
 90
        1
176
     1
 40
50.0
176
     1
 90
        0
176
     1
290
     0
176
     1
290
     1
176
     1
290
     1
176
     1
290
     0
176
     1
290
     0
176
     1
290
     0
176
     1
290
     0
176
     1
290
     0
176
     1
290
     0
176
     1
 90
       50
176
     1
 40
0.0
176
     1
 40
1.0
176
     1
 90
        0
176
     1
 62
    18
420
        0
176
     1
 90
       50
176
     1
 90
        3
176
     1
 62
     5
420
      255
176
     1
290
     0
176
     1
 90
       50
176
     1
 90
       50
176
     1
 90
       50
176
     1
290
     0
176
     1
 90
       50
176
     1
 62
   256
176
     0
 40
1.0
176
     0
 90
        2
176
     1
  1
strokes_ogs.tif
176
     1
290
     0
176
     1
 40
1.0
176
     1
 40
1.0
176
     1
1001
ACAD
1000
AcDbSavedByObjectVersion
1070
     0
  0
VISUALSTYLE
  5
3A
102
{ACAD_REACTORS
330
2A
102
}
330
2A
100
AcDbVisualStyle
  2
ColorChange
 70
    16
177
     3
291
     1
 70
    58
 90
        2
176
     1
 90
        2
176
     1
 90
        3
176
     1
 90
        0
176
     1
 40
0.6
176
     1
 40
30.0
176
     1
 62
     8
420
  8421504
176
     1
 90
        1
176
     1
 90
        4
176
     1
 62
     7
176
     1
 62
   257
176
     1
 90
        1
176
     1
 90
        1
176
     1
 40
1.0
176
     1
 90
        8
176
     1
 62
     8
420
  8421504
176
     1
 40
1.0
176
     1
 90
        1
176
     1
 90
        6
176
     1
 90
        2
176
     1
 62
     7
176
     1
 90
        5
176
     1
 90
        0
176
     1
 90
        0
176
     1
290
     0
176
     1
 90
        1
176
     1
 40
0.0
176
     1
 90
        0
176
     1
290
     0
176
     1
290
     1
176
     1
290
     1
176
     1
290
     0
176
     1
290
     0
176
     1
290
     0
176
     1
290
     0
176
     1
290
     0
176
     1
290
     0
176
     1
 90
       50
176
     1
 40
0.0
176
     1
 40
1.0
176
     1
 90
        0
176
     1
 62
    18
420
        0
176
     1
 90
       50
176
     1
 90
        3
176
     1
 62
     5
420
      255
176
     1
290
     0
176
     1
 90
       50
176
     1
 90
       50
176
     1
 90
       50
176
     1
290
     0
176
     1
 90
       50
176
     1
 62
   256
176
     0
 40
1.0
176
     0
 90
        2
176
     1
  1
strokes_ogs.tif
176
     1
290
     0
176
     1
 40
1.0
176
     1
 40
1.0
176
     1
1001
ACAD
1000
AcDbSavedByObjectVersion
1070
     0
  0
VISUALSTYLE
  5
34
102
{ACAD_REACTORS
330
2A
102
}
330
2A
100
AcDbVisualStyle
  2
Conceptual
 70
     9
177
     3
291
     0
 70
    58
 90
        3
176
     1
 90
        2
176
     1
 90
        0
176
     1
 90
        0
176
     1
 40
0.6
176
     1
 40
30.0
176
     1
 62
     7
420
 16777215
176
     1
 90
        2
176
     1
 90
        2
176
     1
 62
     7
176
     1
 62
   257
176
     1
 90
        1
176
     1
 90
        1
176
     1
 40
40.0
176
     1
 90
        8
176
     1
 62
     7
176
     1
 40
1.0
176
     1
 90
        1
176
     1
 90
        6
176
     1
 90
        2
176
     1
 62
     7
176
     1
 90
        3
176
     1
 90
        0
176
     1
 90
        0
176
     1
290
     0
176
     1
 90
        1
176
     1
 40
0.0
176
     1
 90
        0
176
     1
290
     0
176
     1
290
     1
176
     1
290
     1
176
     1
290
     0
176
     1
290
     0
176
     1
290
     0
176
     1
290
     0
176
     1
290
     0
176
     1
290
     0
176
     1
 90
       50
176
     1
 40
0.0
176
     1
 40
1.0
176
     1
 90
        0
176
     1
 62
    18
420
        0
176
     1
 90
       50
176
     1
 90
        3
176
     1
 62
     5
420
      255
176
     1
290
     0
176
     1
 90
       50
176
     1
 90
       50
176
     1
 90
       50
176
     1
290
     0
176
     1
 90
       50
176
     1
 62
   256
176
     0
 40
1.0
176
     0
 90
        2
176
     1
  1
strokes_ogs.tif
176
     1
290
     0
176
     1
 40
1.0
176
     1
 40
1.0
176
     1
1001
ACAD
1000
AcDbSavedByObjectVersion
1070
     0
  0
VISUALSTYLE
  5
35
102
{ACAD_REACTORS
330
2A
102
}
330
2A
100
AcDbVisualStyle
  2
Dim
 70
    11
177
     3
291
     1
 70
    58
 90
        2
176
     1
 90
        2
176
     1
 90
        0
176
     1
 90
        0
176
     1
 40
0.6
176
     1
 40
30.0
176
     1
 62
     7
420
 16777215
176
     1
 90
        1
176
     1
 90
        4
176
     1
 62
     7
176
     1
 62
   257
176
     1
 90
        1
176
     1
 90
        1
176
     1
 40
1.0
176
     1
 90
        8
176
     1
 62
     7
176
     1
 40
1.0
176
     1
 90
        1
176
     1
 90
        6
176
     1
 90
        2
176
     1
 62
     7
176
     1
 90
        5
176
     1
 90
        0
176
     1
 90
        0
176
     1
290
     0
176
     1
 90
        1
176
     1
 40
-50.0
176
     1
 90
        0
176
     1
290
     0
176
     1
290
     1
176
     1
290
     1
176
     1
290
     0
176
     1
290
     0
176
     1
290
     0
176
     1
290
     0
176
     1
290
     0
176
     1
290
     0
176
     1
 90
       50
176
     1
 40
0.0
176
     1
 40
1.0
176
     1
 90
        0
176
     1
 62
    18
420
        0
176
     1
 90
       50
176
     1
 90
        3
176
     1
 62
     5
420
      255
176
     1
290
     0
176
     1
 90
       50
176
     1
 90
       50
176
     1
 90
       50
176
     1
290
     0
176
     1
 90
       50
176
     1
 62
   256
176
     0
 40
1.0
176
     0
 90
        2
176
     1
  1
strokes_ogs.tif
176
     1
290
     0
176
     1
 40
1.0
176
     1
 40
1.0
176
     1
1001
ACAD
1000
AcDbSavedByObjectVersion
1070
     0
  0
VISUALSTYLE
  5
7C
102
{ACAD_REACTORS
330
2A
102
}
330
2A
100
AcDbVisualStyle
  2
EdgeColorOff
 70
    22
177
     3
291
     1
 70
    58
 90
        2
176
     0
 90
        2
176
     0
 90
        0
176
     0
 90
        0
176
     0
 40
0.6
176
     0
 40
30.0
176
     0
 62
     7
420
 16777215
176
     0
 90
        1
176
     0
 90
        4
176
     0
 62
     7
176
     0
 62
   257
176
     0
 90
        1
176
     0
 90
        1
176
     0
 40
1.0
176
     0
 90
        8
176
     2
 62
     7
176
     0
 40
1.0
176
     0
 90
        1
176
     0
 90
        6
176
     0
 90
        2
176
     0
 62
     7
176
     0
 90
        5
176
     0
 90
        0
176
     0
 90
        0
176
     0
290
     0
176
     0
 90
        1
176
     0
 40
0.0
176
     0
 90
        0
176
     0
290
     0
176
     1
290
     1
176
     1
290
     1
176
     1
290
     0
176
     1
290
     0
176
     1
290
     0
176
     1
290
     0
176
     1
290
     0
176
     1
290
     0
176
     1
 90
       50
176
     0
 40
0.0
176
     0
 40
1.0
176
     0
 90
        0
176
     0
 62
    18
420
        0
176
     0
 90
       50
176
     0
 90
        3
176
     0
 62
     5
420
      255
176
     0
290
     0
176
     1
 90
       50
176
     0
 90
       50
176
     0
 90
       50
176
     0
290
     0
176
     1
 90
       50
176
     0
 62
   256
176
     0
 40
1.0
176
     0
 90
        2
176
     0
  1
strokes_ogs.tif
176
     0
290
     0
176
     1
 40
1.0
176
     0
 40
1.0
176
     0
1001
ACAD
1000
AcDbSavedByObjectVersion
1070
     0
  0
VISUALSTYLE
  5
39
102
{ACAD_REACTORS
330
2A
102
}
330
2A
100
AcDbVisualStyle
  2
Facepattern
 70
    15
177
     3
291
     1
 70
    58
 90
        2
176
     1
 90
        2
176
     1
 90
        0
176
     1
 90
        0
176
     1
 40
0.6
176
     1
 40
30.0
176
     1
 62
     7
420
 16777215
176
     1
 90
        1
176
     1
 90
        4
176
     1
 62
     7
176
     1
 62
   257
176
     1
 90
        1
176
     1
 90
        1
176
     1
 40
1.0
176
     1
 90
        8
176
     1
 62
     7
176
     1
 40
1.0
176
     1
 90
        1
176
     1
 90
        6
176
     1
 90
        2
176
     1
 62
     7
176
     1
 90
        5
176
     1
 90
        0
176
     1
 90
        0
176
     1
290
     0
176
     1
 90
        1
176
     1
 40
0.0
176
     1
 90
        0
176
     1
290
     0
176
     1
290
     1
176
     1
290
     1
176
     1
290
     0
176
     1
290
     0
176
     1
290
     0
176
     1
290
     0
176
     1
290
     0
176
     1
290
     0
176
     1
 90
       50
176
     1
 40
0.0
176
     1
 40
1.0
176
     1
 90
        0
176
     1
 62
    18
420
        0
176
     1
 90
       50
176
     1
 90
        3
176
     1
 62
     5
420
      255
176
     1
290
     0
176
     1
 90
       50
176
     1
 90
       50
176
     1
 90
       50
176
     1
290
     0
176
     1
 90
       50
176
     1
 62
   256
176
     0
 40
1.0
176
     0
 90
        2
176
     1
  1
strokes_ogs.tif
176
     1
290
     0
176
     1
 40
1.0
176
     1
 40
1.0
176
     1
1001
ACAD
1000
AcDbSavedByObjectVersion
1070
     0
  0
VISUALSTYLE
  5
2B
102
{ACAD_REACTORS
330
2A
102
}
330
2A
100
AcDbVisualStyle
  2
Flat
 70
     0
177
     3
291
     1
 70
    58
 90
        2
176
     1
 90
        1
176
     1
 90
        1
176
     1
 90
        2
176
     1
 40
0.6
176
     1
 40
30.0
176
     1
 62
     7
420
 16777215
176
     1
 90
        0
176
     1
 90
        4
176
     1
 62
     7
176
     1
 62
   257
176
     1
 90
        1
176
     1
 90
        1
176
     1
 40
1.0
176
     1
 90
        8
176
     1
 62
     7
176
     1
 40
1.0
176
     1
 90
        1
176
     1
 90
        6
176
     1
 90
        2
176
     1
 62
     7
176
     1
 90
        5
176
     1
 90
        0
176
     1
 90
        0
176
     1
290
     0
176
     1
 90
       13
176
     1
 40
0.0
176
     1
 90
        0
176
     1
290
     0
176
     1
290
     1
176
     1
290
     1
176
     1
290
     0
176
     1
290
     0
176
     1
290
     0
176
     1
290
     0
176
     1
290
     0
176
     1
290
     0
176
     1
 90
       50
176
     1
 40
0.0
176
     1
 40
1.0
176
     1
 90
        0
176
     1
 62
    18
420
        0
176
     1
 90
       50
176
     1
 90
        3
176
     1
 62
     5
420
      255
176
     1
290
     0
176
     1
 90
       50
176
     1
 90
       50
176
     1
 90
       50
176
     1
290
     0
176
     1
 90
       50
176
     1
 62
   256
176
     0
 40
1.0
176
     0
 90
        2
176
     1
  1
strokes_ogs.tif
176
     1
290
     0
176
     1
 40
1.0
176
     1
 40
1.0
176
     1
1001
ACAD
1000
AcDbSavedByObjectVersion
1070
     0
  0
VISUALSTYLE
  5
2C
102
{ACAD_REACTORS
330
2A
102
}
330
2A
100
AcDbVisualStyle
  2
FlatWithEdges
 70
     1
177
     3
291
     1
 70
    58
 90
        2
176
     1
 90
        1
176
     1
 90
        1
176
     1
 90
        2
176
     1
 40
0.6
176
     1
 40
30.0
176
     1
 62
     7
420
 16777215
176
     1
 90
        1
176
     1
 90
        4
176
     1
 62
     7
176
     1
 62
   257
176
     1
 90
        1
176
     1
 90
        1
176
     1
 40
1.0
176
     1
 90
        0
176
     1
 62
   257
176
     1
 40
1.0
176
     1
 90
        1
176
     1
 90
        6
176
     1
 90
        2
176
     1
 62
     7
176
     1
 90
        5
176
     1
 90
        0
176
     1
 90
        0
176
     1
290
     0
176
     1
 90
       13
176
     1
 40
0.0
176
     1
 90
        0
176
     1
290
     0
176
     1
290
     1
176
     1
290
     1
176
     1
290
     0
176
     1
290
     0
176
     1
290
     0
176
     1
290
     0
176
     1
290
     0
176
     1
290
     0
176
     1
 90
       50
176
     1
 40
0.0
176
     1
 40
1.0
176
     1
 90
        0
176
     1
 62
    18
420
        0
176
     1
 90
       50
176
     1
 90
        3
176
     1
 62
     5
420
      255
176
     1
290
     0
176
     1
 90
       50
176
     1
 90
       50
176
     1
 90
       50
176
     1
290
     0
176
     1
 90
       50
176
     1
 62
   256
176
     0
 40
1.0
176
     0
 90
        2
176
     1
  1
strokes_ogs.tif
176
     1
290
     0
176
     1
 40
1.0
176
     1
 40
1.0
176
     1
1001
ACAD
1000
AcDbSavedByObjectVersion
1070
     0
  0
VISUALSTYLE
  5
2D
102
{ACAD_REACTORS
330
2A
102
}
330
2A
100
AcDbVisualStyle
  2
Gouraud
 70
     2
177
     3
291
     1
 70
    58
 90
        2
176
     1
 90
        2
176
     1
 90
        1
176
     1
 90
        2
176
     1
 40
0.6
176
     1
 40
30.0
176
     1
 62
     7
420
 16777215
176
     1
 90
        0
176
     1
 90
        4
176
     1
 62
     7
176
     1
 62
   257
176
     1
 90
        1
176
     1
 90
        1
176
     1
 40
1.0
176
     1
 90
        0
176
     1
 62
     7
176
     1
 40
1.0
176
     1
 90
        1
176
     1
 90
        6
176
     1
 90
        2
176
     1
 62
     7
176
     1
 90
        5
176
     1
 90
        0
176
     1
 90
        0
176
     1
290
     0
176
     1
 90
       13
176
     1
 40
0.0
176
     1
 90
        0
176
     1
290
     0
176
     1
290
     1
176
     1
290
     1
176
     1
290
     0
176
     1
290
     0
176
     1
290
     0
176
     1
290
     0
176
     1
290
     0
176
     1
290
     0
176
     1
 90
       50
176
     1
 40
0.0
176
     1
 40
1.0
176
     1
 90
        0
176
     1
 62
    18
420
        0
176
     1
 90
       50
176
     1
 90
        3
176
     1
 62
     5
420
      255
176
     1
290
     0
176
     1
 90
       50
176
     1
 90
       50
176
     1
 90
       50
176
     1
290
     0
176
     1
 90
       50
176
     1
 62
   256
176
     0
 40
1.0
176
     0
 90
        2
176
     1
  1
strokes_ogs.tif
176
     1
290
     0
176
     1
 40
1.0
176
     1
 40
1.0
176
     1
1001
ACAD
1000
AcDbSavedByObjectVersion
1070
     0
  0
VISUALSTYLE
  5
2E
102
{ACAD_REACTORS
330
2A
102
}
330
2A
100
AcDbVisualStyle
  2
GouraudWithEdges
 70
     3
177
     3
291
     1
 70
    58
 90
        2
176
     1
 90
        2
176
     1
 90
        1
176
     1
 90
        2
176
     1
 40
0.6
176
     1
 40
30.0
176
     1
 62
     7
420
 16777215
176
     1
 90
        1
176
     1
 90
        4
176
     1
 62
     7
176
     1
 62
   257
176
     1
 90
        1
176
     1
 90
        1
176
     1
 40
1.0
176
     1
 90
        0
176
     1
 62
   257
176
     1
 40
1.0
176
     1
 90
        1
176
     1
 90
        6
176
     1
 90
        2
176
     1
 62
     7
176
     1
 90
        5
176
     1
 90
        0
176
     1
 90
        0
176
     1
290
     0
176
     1
 90
       13
176
     1
 40
0.0
176
     1
 90
        0
176
     1
290
     0
176
     1
290
     1
176
     1
290
     1
176
     1
290
     0
176
     1
290
     0
176
     1
290
     0
176
     1
290
     0
176
     1
290
     0
176
     1
290
     0
176
     1
 90
       50
176
     1
 40
0.0
176
     1
 40
1.0
176
     1
 90
        0
176
     1
 62
    18
420
        0
176
     1
 90
       50
176
     1
 90
        3
176
     1
 62
     5
420
      255
176
     1
290
     0
176
     1
 90
       50
176
     1
 90
       50
176
     1
 90
       50
176
     1
290
     0
176
     1
 90
       50
176
     1
 62
   256
176
     0
 40
1.0
176
     0
 90
        2
176
     1
  1
strokes_ogs.tif
176
     1
290
     0
176
     1
 40
1.0
176
     1
 40
1.0
176
     1
1001
ACAD
1000
AcDbSavedByObjectVersion
1070
     0
  0
VISUALSTYLE
  5
74
102
{ACAD_REACTORS
330
2A
102
}
330
2A
100
AcDbVisualStyle
  2
Hidden
 70
     6
177
     3
291
     0
 70
    58
 90
        1
176
     1
 90
        2
176
     1
 90
        2
176
     1
 90
        0
176
     1
 40
0.6
176
     1
 40
30.0
176
     1
 62
     7
420
 16777215
176
     1
 90
        2
176
     1
 90
        2
176
     1
 62
     7
176
     1
 62
   257
176
     1
 90
        2
176
     1
 90
        1
176
     1
 40
40.0
176
     1
 90
        0
176
     1
 62
   257
176
     1
 40
1.0
176
     1
 90
        1
176
     1
 90
        6
176
     1
 90
        2
176
     1
 62
     7
176
     1
 90
        3
176
     1
 90
        0
176
     1
 90
        0
176
     1
290
     0
176
     1
 90
        1
176
     1
 40
0.0
176
     1
 90
        0
176
     1
290
     0
176
     1
290
     1
176
     1
290
     1
176
     1
290
     0
176
     1
290
     0
176
     1
290
     0
176
     1
290
     0
176
     1
290
     0
176
     1
290
     0
176
     1
 90
       50
176
     1
 40
0.0
176
     1
 40
1.0
176
     1
 90
        0
176
     1
 62
    18
420
        0
176
     1
 90
       50
176
     1
 90
        3
176
     1
 62
     5
420
      255
176
     1
290
     0
176
     1
 90
       50
176
     1
 90
       50
176
     1
 90
       50
176
     1
290
     0
176
     1
 90
       50
176
     1
 62
   256
176
     0
 40
1.0
176
     0
 90
        2
176
     1
  1
strokes_ogs.tif
176
     1
290
     0
176
     1
 40
1.0
176
     1
 40
1.0
176
     1
1001
ACAD
1000
AcDbSavedByObjectVersion
1070
     0
  0
VISUALSTYLE
  5
7A
102
{ACAD_REACTORS
330
2A
102
}
330
2A
100
AcDbVisualStyle
  2
JitterOff
 70
    20
177
     3
291
     1
 70
    58
 90
        2
176
     0
 90
        2
176
     0
 90
        0
176
     0
 90
        0
176
     0
 40
0.6
176
     0
 40
30.0
176
     0
 62
     7
420
 16777215
176
     0
 90
        1
176
     0
 90
        4
176
     0
 62
     7
176
     0
 62
   257
176
     0
 90
        1
176
     0
 90
        1
176
     0
 40
1.0
176
     0
 90
       10
176
     2
 62
     7
176
     0
 40
1.0
176
     0
 90
        1
176
     0
 90
        6
176
     0
 90
        2
176
     0
 62
     7
176
     0
 90
        5
176
     0
 90
        0
176
     0
 90
        0
176
     0
290
     0
176
     0
 90
        1
176
     0
 40
0.0
176
     0
 90
        0
176
     0
290
     0
176
     1
290
     1
176
     1
290
     1
176
     1
290
     0
176
     1
290
     0
176
     1
290
     0
176
     1
290
     0
176
     1
290
     0
176
     1
290
     0
176
     1
 90
       50
176
     0
 40
0.0
176
     0
 40
1.0
176
     0
 90
        0
176
     0
 62
    18
420
        0
176
     0
 90
       50
176
     0
 90
        3
176
     0
 62
     5
420
      255
176
     0
290
     0
176
     1
 90
       50
176
     0
 90
       50
176
     0
 90
       50
176
     0
290
     0
176
     1
 90
       50
176
     0
 62
   256
176
     0
 40
1.0
176
     0
 90
        2
176
     0
  1
strokes_ogs.tif
176
     0
290
     0
176
     1
 40
1.0
176
     0
 40
1.0
176
     0
1001
ACAD
1000
AcDbSavedByObjectVersion
1070
     0
  0
VISUALSTYLE
  5
38
102
{ACAD_REACTORS
330
2A
102
}
330
2A
100
AcDbVisualStyle
  2
Linepattern
 70
    14
177
     3
291
     1
 70
    58
 90
        2
176
     1
 90
        2
176
     1
 90
        0
176
     1
 90
        0
176
     1
 40
0.6
176
     1
 40
30.0
176
     1
 62
     7
420
 16777215
176
     1
 90
        1
176
     1
 90
        4
176
     1
 62
     7
176
     1
 62
   257
176
     1
 90
        7
176
     1
 90
        7
176
     1
 40
1.0
176
     1
 90
        8
176
     1
 62
     7
176
     1
 40
1.0
176
     1
 90
        1
176
     1
 90
        6
176
     1
 90
        2
176
     1
 62
     7
176
     1
 90
        5
176
     1
 90
        0
176
     1
 90
        0
176
     1
290
     0
176
     1
 90
        1
176
     1
 40
0.0
176
     1
 90
        0
176
     1
290
     0
176
     1
290
     1
176
     1
290
     1
176
     1
290
     0
176
     1
290
     0
176
     1
290
     0
176
     1
290
     0
176
     1
290
     0
176
     1
290
     0
176
     1
 90
       50
176
     1
 40
0.0
176
     1
 40
1.0
176
     1
 90
        0
176
     1
 62
    18
420
        0
176
     1
 90
       50
176
     1
 90
        3
176
     1
 62
     5
420
      255
176
     1
290
     0
176
     1
 90
       50
176
     1
 90
       50
176
     1
 90
       50
176
     1
290
     0
176
     1
 90
       50
176
     1
 62
   256
176
     0
 40
1.0
176
     0
 90
        2
176
     1
  1
strokes_ogs.tif
176
     1
290
     0
176
     1
 40
1.0
176
     1
 40
1.0
176
     1
1001
ACAD
1000
AcDbSavedByObjectVersion
1070
     0
  0
VISUALSTYLE
  5
7B
102
{ACAD_REACTORS
330
2A
102
}
330
2A
100
AcDbVisualStyle
  2
OverhangOff
 70
    21
177
     3
291
     1
 70
    58
 90
        2
176
     0
 90
        2
176
     0
 90
        0
176
     0
 90
        0
176
     0
 40
0.6
176
     0
 40
30.0
176
     0
 62
     7
420
 16777215
176
     0
 90
        1
176
     0
 90
        4
176
     0
 62
     7
176
     0
 62
   257
176
     0
 90
        1
176
     0
 90
        1
176
     0
 40
1.0
176
     0
 90
        9
176
     2
 62
     7
176
     0
 40
1.0
176
     0
 90
        1
176
     0
 90
        6
176
     0
 90
        2
176
     0
 62
     7
176
     0
 90
        5
176
     0
 90
        0
176
     0
 90
        0
176
     0
290
     0
176
     0
 90
        1
176
     0
 40
0.0
176
     0
 90
        0
176
     0
290
     0
176
     1
290
     1
176
     1
290
     1
176
     1
290
     0
176
     1
290
     0
176
     1
290
     0
176
     1
290
     0
176
     1
290
     0
176
     1
290
     0
176
     1
 90
       50
176
     0
 40
0.0
176
     0
 40
1.0
176
     0
 90
        0
176
     0
 62
    18
420
        0
176
     0
 90
       50
176
     0
 90
        3
176
     0
 62
     5
420
      255
176
     0
290
     0
176
     1
 90
       50
176
     0
 90
       50
176
     0
 90
       50
176
     0
290
     0
176
     1
 90
       50
176
     0
 62
   256
176
     0
 40
1.0
176
     0
 90
        2
176
     0
  1
strokes_ogs.tif
176
     0
290
     0
176
     1
 40
1.0
176
     0
 40
1.0
176
     0
1001
ACAD
1000
AcDbSavedByObjectVersion
1070
     0
  0
VISUALSTYLE
  5
33
102
{ACAD_REACTORS
330
2A
102
}
330
2A
100
AcDbVisualStyle
  2
Realistic
 70
     8
177
     3
291
     0
 70
    58
 90
        2
176
     1
 90
        2
176
     1
 90
        0
176
     1
 90
        0
176
     1
 40
0.6
176
     1
 40
30.0
176
     1
 62
     7
420
 16777215
176
     1
 90
        1
176
     1
 90
        0
176
     1
 62
     7
176
     1
 62
   257
176
     1
 90
        1
176
     1
 90
        1
176
     1
 40
1.0
176
     1
 90
        8
176
     1
 62
     8
420
  7895160
176
     1
 40
1.0
176
     1
 90
        1
176
     1
 90
        6
176
     1
 90
        2
176
     1
 62
     7
176
     1
 90
        5
176
     1
 90
        0
176
     1
 90
        0
176
     1
290
     0
176
     1
 90
       13
176
     1
 40
0.0
176
     1
 90
        0
176
     1
290
     0
176
     1
290
     1
176
     1
290
     1
176
     1
290
     0
176
     1
290
     0
176
     1
290
     0
176
     1
290
     0
176
     1
290
     0
176
     1
290
     0
176
     1
 90
       50
176
     1
 40
0.0
176
     1
 40
1.0
176
     1
 90
        0
176
     1
 62
    18
420
        0
176
     1
 90
       50
176
     1
 90
        3
176
     1
 62
     5
420
      255
176
     1
290
     0
176
     1
 90
       50
176
     1
 90
       50
176
     1
 90
       50
176
     1
290
     0
176
     1
 90
       50
176
     1
 62
   256
176
     0
 40
1.0
176
     0
 90
        2
176
     1
  1
strokes_ogs.tif
176
     1
290
     0
176
     1
 40
1.0
176
     1
 40
1.0
176
     1
1001
ACAD
1000
AcDbSavedByObjectVersion
1070
     0
  0
VISUALSTYLE
  5
79
102
{ACAD_REACTORS
330
2A
102
}
330
2A
100
AcDbVisualStyle
  2
Shaded
 70
    27
177
     3
291
     0
 70
    58
 90
        2
176
     1
 90
        2
176
     1
 90
        1
176
     1
 90
        2
176
     1
 40
0.6
176
     1
 40
30.0
176
     1
 62
     7
420
 16777215
176
     1
 90
        0
176
     1
 90
        4
176
     1
 62
     7
176
     1
 62
   257
176
     1
 90
        1
176
     1
 90
        1
176
     1
 40
1.0
176
     1
 90
        8
176
     1
 62
   257
176
     1
 40
1.0
176
     1
 90
        1
176
     1
 90
        6
176
     1
 90
        2
176
     1
 62
     8
420
  7895160
176
     1
 90
        3
176
     1
 90
        0
176
     1
 90
        0
176
     1
290
     0
176
     1
 90
        5
176
     1
 40
0.0
176
     1
 90
        0
176
     1
290
     0
176
     1
290
     1
176
     1
290
     1
176
     1
290
     0
176
     1
290
     0
176
     1
290
     0
176
     1
290
     0
176
     1
290
     0
176
     1
290
     0
176
     1
 90
       50
176
     1
 40
0.0
176
     1
 40
1.0
176
     1
 90
        0
176
     1
 62
    18
420
        0
176
     1
 90
       50
176
     1
 90
        3
176
     1
 62
     5
420
      255
176
     1
290
     0
176
     1
 90
       50
176
     1
 90
       50
176
     1
 90
       50
176
     1
290
     0
176
     1
 90
       50
176
     1
 62
   256
176
     0
 40
1.0
176
     0
 90
        2
176
     1
  1
strokes_ogs.tif
176
     1
290
     0
176
     1
 40
1.0
176
     1
 40
1.0
176
     1
1001
ACAD
1000
AcDbSavedByObjectVersion
1070
     0
  0
VISUALSTYLE
  5
78
102
{ACAD_REACTORS
330
2A
102
}
330
2A
100
AcDbVisualStyle
  2
Shaded with edges
 70
    26
177
     3
291
     0
 70
    58
 90
        2
176
     1
 90
        2
176
     1
 90
        1
176
     1
 90
        2
176
     1
 40
0.6
176
     1
 40
30.0
176
     1
 62
     7
420
 16777215
176
     1
 90
        1
176
     1
 90
        2
176
     1
 62
     7
176
     1
 62
   257
176
     1
 90
        2
176
     1
 90
        1
176
     1
 40
1.0
176
     1
 90
        8
176
     1
 62
   257
176
     1
 40
1.0
176
     1
 90
        1
176
     1
 90
        6
176
     1
 90
        2
176
     1
 62
     7
176
     1
 90
        3
176
     1
 90
        0
176
     1
 90
        0
176
     1
290
     0
176
     1
 90
        5
176
     1
 40
0.0
176
     1
 90
        0
176
     1
290
     0
176
     1
290
     1
176
     1
290
     1
176
     1
290
     0
176
     1
290
     0
176
     1
290
     0
176
     1
290
     0
176
     1
290
     0
176
     1
290
     0
176
     1
 90
       50
176
     1
 40
0.0
176
     1
 40
1.0
176
     1
 90
        0
176
     1
 62
    18
420
        0
176
     1
 90
       50
176
     1
 90
        3
176
     1
 62
     5
420
      255
176
     1
290
     0
176
     1
 90
       50
176
     1
 90
       50
176
     1
 90
       50
176
     1
290
     0
176
     1
 90
       50
176
     1
 62
   256
176
     0
 40
1.0
176
     0
 90
        2
176
     1
  1
strokes_ogs.tif
176
     1
290
     0
176
     1
 40
1.0
176
     1
 40
1.0
176
     1
1001
ACAD
1000
AcDbSavedByObjectVersion
1070
     0
  0
VISUALSTYLE
  5
75
102
{ACAD_REACTORS
330
2A
102
}
330
2A
100
AcDbVisualStyle
  2
Shades of Gray
 70
    23
177
     3
291
     0
 70
    58
 90
        2
176
     1
 90
        2
176
     1
 90
        3
176
     1
 90
        0
176
     1
 40
0.6
176
     1
 40
30.0
176
     1
 62
     7
420
 16777215
176
     1
 90
        2
176
     1
 90
        2
176
     1
 62
     7
176
     1
 62
     7
176
     1
 90
        1
176
     1
 90
        1
176
     1
 40
40.0
176
     1
 90
        8
176
     1
 62
     7
176
     1
 40
1.0
176
     1
 90
        1
176
     1
 90
        6
176
     1
 90
        2
176
     1
 62
     7
176
     1
 90
        3
176
     1
 90
        0
176
     1
 90
        0
176
     1
290
     0
176
     1
 90
        1
176
     1
 40
0.0
176
     1
 90
        0
176
     1
290
     0
176
     1
290
     1
176
     1
290
     1
176
     1
290
     0
176
     1
290
     0
176
     1
290
     0
176
     1
290
     0
176
     1
290
     0
176
     1
290
     0
176
     1
 90
       50
176
     1
 40
0.0
176
     1
 40
1.0
176
     1
 90
        0
176
     1
 62
    18
420
        0
176
     1
 90
       50
176
     1
 90
        3
176
     1
 62
     5
420
      255
176
     1
290
     0
176
     1
 90
       50
176
     1
 90
       50
176
     1
 90
       50
176
     1
290
     0
176
     1
 90
       50
176
     1
 62
   256
176
     0
 40
1.0
176
     0
 90
        2
176
     1
  1
strokes_ogs.tif
176
     1
290
     0
176
     1
 40
1.0
176
     1
 40
1.0
176
     1
1001
ACAD
1000
AcDbSavedByObjectVersion
1070
     0
  0
VISUALSTYLE
  5
76
102
{ACAD_REACTORS
330
2A
102
}
330
2A
100
AcDbVisualStyle
  2
Sketchy
 70
    24
177
     3
291
     0
 70
    58
 90
        1
176
     1
 90
        2
176
     1
 90
        2
176
     1
 90
        0
176
     1
 40
0.6
176
     1
 40
30.0
176
     1
 62
     7
420
 16777215
176
     1
 90
        2
176
     1
 90
        2
176
     1
 62
     7
176
     1
 62
     7
176
     1
 90
        1
176
     1
 90
        1
176
     1
 40
40.0
176
     1
 90
       11
176
     1
 62
     7
176
     1
 40
1.0
176
     1
 90
        1
176
     1
 90
        6
176
     1
 90
        2
176
     1
 62
     7
176
     1
 90
        6
176
     1
 90
        0
176
     1
 90
        0
176
     1
290
     0
176
     1
 90
        1
176
     1
 40
0.0
176
     1
 90
        0
176
     1
290
     0
176
     1
290
     1
176
     1
290
     1
176
     1
290
     0
176
     1
290
     0
176
     1
290
     0
176
     1
290
     0
176
     1
290
     0
176
     1
290
     0
176
     1
 90
       50
176
     1
 40
0.0
176
     1
 40
1.0
176
     1
 90
        0
176
     1
 62
    18
420
        0
176
     1
 90
       50
176
     1
 90
        3
176
     1
 62
     5
420
      255
176
     1
290
     0
176
     1
 90
       50
176
     1
 90
       50
176
     1
 90
       50
176
     1
290
     0
176
     1
 90
       50
176
     1
 62
   256
176
     0
 40
1.0
176
     0
 90
        2
176
     1
  1
strokes_ogs.tif
176
     1
290
     0
176
     1
 40
1.0
176
     1
 40
1.0
176
     1
1001
ACAD
1000
AcDbSavedByObjectVersion
1070
     0
  0
VISUALSTYLE
  5
37
102
{ACAD_REACTORS
330
2A
102
}
330
2A
100
AcDbVisualStyle
  2
Thicken
 70
    13
177
     3
291
     1
 70
    58
 90
        2
176
     1
 90
        2
176
     1
 90
        0
176
     1
 90
        0
176
     1
 40
0.6
176
     1
 40
30.0
176
     1
 62
     7
420
 16777215
176
     1
 90
        1
176
     1
 90
        4
176
     1
 62
     7
176
     1
 62
   257
176
     1
 90
        1
176
     1
 90
        1
176
     1
 40
1.0
176
     1
 90
       12
176
     1
 62
     7
176
     1
 40
1.0
176
     1
 90
        1
176
     1
 90
        6
176
     1
 90
        2
176
     1
 62
     7
176
     1
 90
        5
176
     1
 90
        0
176
     1
 90
        0
176
     1
290
     0
176
     1
 90
        1
176
     1
 40
0.0
176
     1
 90
        0
176
     1
290
     0
176
     1
290
     1
176
     1
290
     1
176
     1
290
     0
176
     1
290
     0
176
     1
290
     0
176
     1
290
     0
176
     1
290
     0
176
     1
290
     0
176
     1
 90
       50
176
     1
 40
0.0
176
     1
 40
1.0
176
     1
 90
        0
176
     1
 62
    18
420
        0
176
     1
 90
       50
176
     1
 90
        3
176
     1
 62
     5
420
      255
176
     1
290
     0
176
     1
 90
       50
176
     1
 90
       50
176
     1
 90
       50
176
     1
290
     0
176
     1
 90
       50
176
     1
 62
   256
176
     0
 40
1.0
176
     0
 90
        2
176
     1
  1
strokes_ogs.tif
176
     1
290
     0
176
     1
 40
1.0
176
     1
 40
1.0
176
     1
1001
ACAD
1000
AcDbSavedByObjectVersion
1070
     0
  0
VISUALSTYLE
  5
73
102
{ACAD_REACTORS
330
2A
102
}
330
2A
100
AcDbVisualStyle
  2
Wireframe
 70
     5
177
     3
291
     0
 70
    58
 90
        0
176
     1
 90
        2
176
     1
 90
        0
176
     1
 90
        0
176
     1
 40
0.6
176
     1
 40
30.0
176
     1
 62
     7
420
 16777215
176
     1
 90
        1
176
     1
 90
        4
176
     1
 62
     7
176
     1
 62
   257
176
     1
 90
        1
176
     1
 90
        1
176
     1
 40
1.0
176
     1
 90
        0
176
     1
 62
   257
176
     1
 40
1.0
176
     1
 90
        1
176
     1
 90
        6
176
     1
 90
        2
176
     1
 62
     7
176
     1
 90
        3
176
     1
 90
        0
176
     1
 90
        0
176
     1
290
     0
176
     1
 90
        1
176
     1
 40
0.0
176
     1
 90
        0
176
     1
290
     0
176
     1
290
     1
176
     1
290
     1
176
     1
290
     0
176
     1
290
     0
176
     1
290
     0
176
     1
290
     0
176
     1
290
     0
176
     1
290
     0
176
     1
 90
       50
176
     1
 40
0.0
176
     1
 40
1.0
176
     1
 90
        0
176
     1
 62
    18
420
        0
176
     1
 90
       50
176
     1
 90
        3
176
     1
 62
     5
420
      255
176
     1
290
     0
176
     1
 90
       50
176
     1
 90
       50
176
     1
 90
       50
176
     1
290
     0
176
     1
 90
       50
176
     1
 62
   256
176
     0
 40
1.0
176
     0
 90
        2
176
     1
  1
strokes_ogs.tif
176
     1
290
     0
176
     1
 40
1.0
176
     1
 40
1.0
176
     1
1001
ACAD
1000
AcDbSavedByObjectVersion
1070
     0
  0
VISUALSTYLE
  5
77
102
{ACAD_REACTORS
330
2A
102
}
330
2A
100
AcDbVisualStyle
  2
X-Ray
 70
    25
177
     3
291
     0
 70
    58
 90
        2
176
     1
 90
        2
176
     1
 90
        1
176
     1
 90
        1
176
     1
 40
0.5
176
     1
 40
30.0
176
     1
 62
     7
420
 16777215
176
     1
 90
        1
176
     1
 90
        0
176
     1
 62
     7
176
     1
 62
   257
176
     1
 90
        1
176
     1
 90
        1
176
     1
 40
1.0
176
     1
 90
        8
176
     1
 62
     7
176
     1
 40
1.0
176
     1
 90
        1
176
     1
 90
        6
176
     1
 90
        2
176
     1
 62
     7
176
     1
 90
        3
176
     1
 90
        0
176
     1
 90
        0
176
     1
290
     0
176
     1
 90
       13
176
     1
 40
0.0
176
     1
 90
        0
176
     1
290
     0
176
     1
290
     1
176
     1
290
     1
176
     1
290
     0
176
     1
290
     0
176
     1
290
     0
176
     1
290
     0
176
     1
290
     0
176
     1
290
     0
176
     1
 90
       50
176
     1
 40
0.0
176
     1
 40
1.0
176
     1
 90
        0
176
     1
 62
    18
420
        0
176
     1
 90
       50
176
     1
 90
        3
176
     1
 62
     5
420
      255
176
     1
290
     0
176
     1
 90
       50
176
     1
 90
       50
176
     1
 90
       50
176
     1
290
     0
176
     1
 90
       50
176
     1
 62
   256
176
     0
 40
1.0
176
     0
 90
        2
176
     1
  1
strokes_ogs.tif
176
     1
290
     0
176
     1
 40
1.0
176
     1
 40
1.0
176
     1
1001
ACAD
1000
AcDbSavedByObjectVersion
1070
     0
  0
DICTIONARYVAR
  5
CC
102
{ACAD_REACTORS
330
C7
102
}
330
C7
100
DictionaryVariables
280
     0
  1
1:1
  0
DICTIONARYVAR
  5
C9
102
{ACAD_REACTORS
330
C7
102
}
330
C7
100
DictionaryVariables
280
     0
  1
STANDARD
  0
DICTIONARYVAR
  5
C8
102
{ACAD_REACTORS
330
C7
102
}
330
C7
100
DictionaryVariables
280
     0
  1
STANDARD
  0
DICTIONARYVAR
  5
CA
102
{ACAD_REACTORS
330
C7
102
}
330
C7
100
DictionaryVariables
280
     0
  1
Imperial24
  0
DICTIONARYVAR
  5
CB
102
{ACAD_REACTORS
330
C7
102
}
330
C7
100
DictionaryVariables
280
     0
  1
Imperial24
  0
DICTIONARY
  5
168
102
{ACAD_REACTORS
330
166
102
}
330
166
100
AcDbDictionary
281
     1
  0
DICTIONARY
  5
167
102
{ACAD_REACTORS
330
166
102
}
330
166
100
AcDbDictionary
281
     1
  3
1775746125584
350
161
  3
1775746125600
350
162
  3
1775746125616
350
163
  3
1775746125632
350
164
  3
1775746125648
350
165
  0
DICTIONARY
  5
16B
330
95
100
AcDbDictionary
280
     1
281
     1
  3
ACAD_XREC_ROUNDTRIP
360
16C
  0
DICTIONARY
  5
169
330
93
100
AcDbDictionary
280
     1
281
     1
  3
ACAD_XREC_ROUNDTRIP
360
16A
  0
DICTIONARY
  5
15E
330
7E
100
AcDbDictionary
280
     1
281
     1
  3
ACAD_ROUNDTRIP_2008_TABLESTYLE_CELLSTYLEMAP
360
15F
  0
XRECORD
  5
161
102
{ACAD_REACTORS
330
167
102
}
330
167
100
AcDbXrecord
280
     1
  1
AcDb_Thumbnail_Schema
102
{ATTRRECORD
341
162
  2
AcDbDs::TreatedAsObjectData
280
     1
291
     1
102
ATTRRECORD}
102
{ATTRRECORD
341
163
  2
AcDbDs::Legacy
280
     1
291
     1
102
ATTRRECORD}
  2
AcDbDs::ID
280
    10
 91
        8
102
{ATTRRECORD
341
164
  2
AcDs:Indexable
280
     1
291
     1
102
ATTRRECORD}
102
{ATTRRECORD
341
165
  2
AcDbDs::HandleAttribute
280
     7
282
     1
102
ATTRRECORD}
  2
Thumbnail_Data
280
    15
 91
        0
  0
XRECORD
  5
162
102
{ACAD_REACTORS
330
167
102
}
330
167
100
AcDbXrecord
280
     1
  1
AcDbDs::TreatedAsObjectDataSchema
  2
AcDbDs::TreatedAsObjectData
280
     1
 91
        0
  0
XRECORD
  5
163
102
{ACAD_REACTORS
330
167
102
}
330
167
100
AcDbXrecord
280
     1
  1
AcDbDs::LegacySchema
  2
AcDbDs::Legacy
280
     1
 91
        0
  0
XRECORD
  5
164
102
{ACAD_REACTORS
330
167
102
}
330
167
100
AcDbXrecord
280
     1
  1
AcDbDs::IndexedPropertySchema
  2
AcDs:Indexable
280
     1
 91
        0
  0
XRECORD
  5
165
102
{ACAD_REACTORS
330
167
102
}
330
167
100
AcDbXrecord
280
     1
  1
AcDbDs::HandleAttributeSchema
  2
AcDbDs::HandleAttribute
280
     7
 91
        1
284
     1
  0
XRECORD
  5
16C
102
{ACAD_REACTORS
330
16B
102
}
330
16B
100
AcDbXrecord
280
     1
102
DISPLAYNAME
  1
Imperial24
102
FLAGS
 90
        0
  0
XRECORD
  5
16A
102
{ACAD_REACTORS
330
169
102
}
330
169
100
AcDbXrecord
280
     1
102
DISPLAYNAME
  1
Imperial24
102
FLAGS
 90
        0
  0
CELLSTYLEMAP
  5
15F
102
{ACAD_REACTORS
330
15E
102
}
330
15E
100
AcDbCellStyleMap
 90
        3
300
CELLSTYLE
  1
TABLEFORMAT_BEGIN
 90
        5
170
     1
 91
        0
 92
    32768
 62
   257
 93
        1
300
CONTENTFORMAT
  1
CONTENTFORMAT_BEGIN
 90
        0
 91
        0
 92
      512
 93
        0
300

 40
0.0
140
1.0
 94
        5
 62
     0
340
11
144
0.25
309
CONTENTFORMAT_END
171
     0
 94
        0
309
TABLEFORMAT_END
  1
CELLSTYLE_BEGIN
 90
        1
 91
        1
300
_TITLE
309
CELLSTYLE_END
300
CELLSTYLE
  1
TABLEFORMAT_BEGIN
 90
        5
170
     1
 91
        0
 92
        0
 62
   257
 93
        1
300
CONTENTFORMAT
  1
CONTENTFORMAT_BEGIN
 90
        0
 91
        0
 92
      512
 93
        0
300

 40
0.0
140
1.0
 94
        5
 62
     0
340
11
144
0.18
309
CONTENTFORMAT_END
171
     0
 94
        0
309
TABLEFORMAT_END
  1
CELLSTYLE_BEGIN
 90
        2
 91
        1
300
_HEADER
309
CELLSTYLE_END
300
CELLSTYLE
  1
TABLEFORMAT_BEGIN
 90
        5
170
     1
 91
        0
 92
        0
 62
   257
 93
        1
300
CONTENTFORMAT
  1
CONTENTFORMAT_BEGIN
 90
        0
 91
        0
 92
      512
 93
        0
300

 40
0.0
140
1.0
 94
        2
 62
     0
340
11
144
0.18
309
CONTENTFORMAT_END
171
     0
 94
        0
309
TABLEFORMAT_END
  1
CELLSTYLE_BEGIN
 90
        3
 91
        2
300
_DATA
309
CELLSTYLE_END
  0
ENDSEC
  0
SECTION
  2
ACDSDATA
 70
     2
 71
     8
  0
ACDSSCHEMA
 90
        0
  1
AcDb_Thumbnail_Schema
  2
AcDbDs::ID
280
    10
 91
        8
  2
Thumbnail_Data
280
    15
 91
        0
101
ACDSRECORD
 95
        0
 90
        1
  2
AcDbDs::TreatedAsObjectData
280
     1
291
     1
101
ACDSRECORD
 95
        0
 90
        2
  2
AcDbDs::Legacy
280
     1
291
     1
101
ACDSRECORD
  1
AcDbDs::ID
 90
        3
  2
AcDs:Indexable
280
     1
291
     1
101
ACDSRECORD
  1
AcDbDs::ID
 90
        4
  2
AcDbDs::HandleAttribute
280
     7
282
     1
  0
ACDSSCHEMA
 90
        1
  1
AcDbDs::TreatedAsObjectDataSchema
  2
AcDbDs::TreatedAsObjectData
280
     1
 91
        0
  0
ACDSSCHEMA
 90
        2
  1
AcDbDs::LegacySchema
  2
AcDbDs::Legacy
280
     1
 91
        0
  0
ACDSSCHEMA
 90
        3
  1
AcDbDs::IndexedPropertySchema
  2
AcDs:Indexable
280
     1
 91
        0
  0
ACDSSCHEMA
 90
        4
  1
AcDbDs::HandleAttributeSchema
  2
AcDbDs::HandleAttribute
280
     7
 91
        1
284
     1
  0
ACDSRECORD
 90
        0
  2
AcDbDs::ID
280
    10
320
22
  2
Thumbnail_Data
280
    15
 94
     1995
310
89504E470D0A1A0A0000000D49484452000001000000005A080300000060CE787100000300504C5445212830FFFFFF2128300000000000000000000000000000000000000000000000000000330000660000990000CC0000FF0033000033330033660033990033CC0033FF0066000066330066660066990066CC0066FF0099
310
000099330099660099990099CC0099FF00CC0000CC3300CC6600CC9900CCCC00CCFF00FF0000FF3300FF6600FF9900FFCC00FFFF3300003300333300663300993300CC3300FF3333003333333333663333993333CC3333FF3366003366333366663366993366CC3366FF3399003399333399663399993399CC3399FF33CC00
310
33CC3333CC6633CC9933CCCC33CCFF33FF0033FF3333FF6633FF9933FFCC33FFFF6600006600336600666600996600CC6600FF6633006633336633666633996633CC6633FF6666006666336666666666996666CC6666FF6699006699336699666699996699CC6699FF66CC0066CC3366CC6666CC9966CCCC66CCFF66FF0066
310
FF3366FF6666FF9966FFCC66FFFF9900009900339900669900999900CC9900FF9933009933339933669933999933CC9933FF9966009966339966669966999966CC9966FF9999009999339999669999999999CC9999FF99CC0099CC3399CC6699CC9999CCCC99CCFF99FF0099FF3399FF6699FF9999FFCC99FFFFCC0000CC00
310
33CC0066CC0099CC00CCCC00FFCC3300CC3333CC3366CC3399CC33CCCC33FFCC6600CC6633CC6666CC6699CC66CCCC66FFCC9900CC9933CC9966CC9999CC99CCCC99FFCCCC00CCCC33CCCC66CCCC99CCCCCCCCCCFFCCFF00CCFF33CCFF66CCFF99CCFFCCCCFFFFFF0000FF0033FF0066FF0099FF00CCFF00FFFF3300FF3333
310
FF3366FF3399FF33CCFF33FFFF6600FF6633FF6666FF6699FF66CCFF66FFFF9900FF9933FF9966FF9999FF99CCFF99FFFFCC00FFCC33FFCC66FFCC99FFCCCCFFCCFFFFFF00FFFF33FFFF66FFFF99FFFFCCFFFFFF0000000D0D0D1A1A1A2828283535354343435050505D5D5D6B6B6B787878868686939393A1A1A1AEAEAEBB
310
BBBBC9C9C9D6D6D6E4E4E4F1F1F1FFFFFF0000000000000000000000000000000000000000000000000000000000002E4550F1000001874944415478DAED9ABB96C3200C44F9FFFF9D7ECF6E10088CB33E29528CEE2DD2C48D86D10BBB35806FA2A06AEC9B12A5C25F0CD0A32F23C26F9C9760BB0A254450BB0B329C601FFF
310
3FC5C15B8207267FA5484D03A42A29630B3C6B14AE26785AE8A5565C01DF4270B0F7CD54EC2A81D63A1F93D1A1F2C9D805DD063100DED5FEF9985C6DA0B11A1C7BDF1C90FD44E821E775E83839A482E025815E0E7F7F2FA0656FB452E012CD5104C54810F1CB28FE532F3C3CA5FEACACD684F395808EB5B225056CB2603780
310
B4DABBF78630FDFC7549822D8EE568A718A3F2470150735160B17BEE70CB95D9FCE34F1259596063397C8D0C18CA8C5E6073577008FF62803653A0CD2AE0B71F6CE9306254747F8DB1D17247DCEA414A88DC32B5CCCDC606C8C3CE561F627AB675C07EF46D7D5310E5C15100DD4CC24A2343BA3931CC8173649A0AF491C0F5
310
92E8CDEBB2B106D6797D785907D59407E25A02E4732FF93D855289AC77FE9799B9D5A478F8000000000000000000000000000000000000000000000000009FF103578E582ECEB9ED3E0000000049454E44AE426082794216E6E122023DF147C5D060FC89478056C212006D132A1AA47AE33F0A6D83C0E7D9F90E4A87814D5C
310
320D9983983E519C05994EA0FD033F39BB778CD88B5DC9892847E0357E3E5E77B7006460168198044EE30F43ABF49856D2B74BF3FFD445D0FC6122FE52CA34CEFB210320218009E7FE1DA0FD75D5FC673CAFD777490284D912E802D06825135A01046CBF642281460084BA93FE8F4F49000A4022FAC08A45D001A0E49ABCFD
310
C4178246009134920A00576B804ADBCBE768FFAAE630B7000380CC8C28565301D0E294E52D9DA83EA21F00C62EE3E52440EEEE44ACFA68222174005053BEA00C0A962B159941B9811FFF882AF4C8C718EC046964FFE986008905A63890477748FF3DF4AC002C0018676C563822661FC4C7BEA2ED9867A5408144EF83A9FFB1
310
260B24F3AF6F412897F994662F0700DB5A21B86BAFAA2832128AF95A1B00349C0ABDC45F1D0CA5FC856A2A40EDAC6400B0190072E90BB5AB880C6BE89D16D9395A01CA28CB365414EA2B3B0DB28D006253975007907C573D2436C14E00FED78214BC4C74BAA4741A71177F6D1344B65490D9278F13834100CB0ED8020099C2
310
A6F00E6509C8EB239C03487BA1CF02401E919D03807637396F851A7EDB06007EFAC91878875A1AC4B843580DA07682BB480247D5E14900AAD7F9A8E6186468DF44239615DE0A0169900C35471425201B457CAD00ADF5B14E21F2F701892B80EDABB840C0890E41A3D80D32F7230D065F9DD59CEF90B3168138184A000FFBF1
310
36A4E1245D38719D80B34AF88E3C621E8B31AECA9EA6814C3D2513250F8D5F1F8BAD2B82F9CD118BD2805D6146F6E0437FC253E5F6E434C18206A9B5072B92BE439E1DBF349082BE9675FF2B34D76502F3A4657CC3F40FCA7B924606622EE80000000049454E44AE4260821CCE8AB5CB310F4660D184DE81354B8E9B15F801
310
FF8F3C58CE8AB63D712D0D94AFCE3C3A0F5C50852F1AD88E8B1ECD7D6A71B591C0268CFD6FB9CF2BCCFCC79FB31F767DDAB469D3A64D9B366DDAB469D3A64D9B366DDA25FB03A8C90690B5998BF50000000049454E44AE426082
  0
ENDSEC
  0
EOF
